{"glyphs":{"0":{"ha":930,"x_min":49,"x_max":876,"o":"m 875 518 q 875 493 875 507 q 876 465 876 479 q 875 437 876 451 q 872 414 874 424 q 867 392 869 397 q 864 382 865 387 q 861 369 862 377 q 860 339 860 360 q 856 318 860 333 q 847 286 852 302 q 835 256 842 270 q 823 239 829 243 l 823 235 q 820 218 823 226 q 812 204 817 211 q 801 191 807 197 q 791 176 795 184 q 788 164 789 170 q 783 154 787 159 q 765 132 775 142 q 743 113 754 122 q 721 93 732 103 q 703 72 711 83 q 698 64 699 68 q 693 56 696 60 q 689 49 691 52 q 685 41 686 46 q 666 32 675 36 q 653 16 656 27 q 619 5 637 13 q 584 -12 602 -3 q 551 -28 567 -21 q 522 -35 535 -35 q 502 -33 512 -35 q 482 -31 492 -31 q 460 -35 471 -31 q 439 -39 450 -39 q 419 -36 429 -39 q 401 -30 410 -33 q 382 -25 392 -27 q 363 -25 373 -23 q 343 -13 353 -16 q 323 -7 333 -9 q 302 -5 313 -6 q 282 1 292 -3 q 253 26 272 14 q 214 50 233 39 q 177 71 194 61 q 155 86 161 80 q 152 95 153 90 q 147 104 151 100 q 140 109 144 108 q 134 113 137 109 q 129 125 132 116 q 125 140 127 135 q 117 149 121 146 q 111 158 113 153 q 109 172 108 165 q 107 184 109 178 q 98 207 103 197 q 89 229 92 216 q 76 283 83 255 q 63 338 69 311 q 53 394 57 366 q 49 449 49 422 q 54 477 49 463 q 58 507 58 492 q 56 548 58 528 q 53 590 53 569 q 58 614 53 602 q 69 637 63 625 q 80 661 75 648 q 85 686 85 673 q 95 694 93 689 q 98 706 98 700 q 99 720 99 713 q 103 732 100 726 q 107 735 104 735 q 111 741 110 736 q 116 760 115 748 q 115 781 117 772 q 131 802 125 790 q 141 826 136 814 q 155 848 146 838 q 179 861 163 857 q 184 875 180 869 q 193 886 188 881 q 201 896 197 890 q 205 909 205 901 q 232 924 212 911 q 272 952 251 937 q 312 983 294 968 q 335 1004 330 998 q 396 1012 366 1008 q 456 1026 426 1017 q 461 1032 456 1029 q 463 1033 463 1032 q 465 1034 464 1034 q 470 1032 468 1034 q 474 1028 472 1030 q 480 1024 477 1025 q 489 1022 483 1022 q 505 1025 497 1022 q 521 1028 513 1028 l 524 1026 q 539 1023 532 1026 q 554 1018 547 1020 q 573 1016 564 1016 q 590 1014 582 1016 l 595 1004 l 604 1004 q 657 976 635 991 q 698 944 679 961 q 736 909 717 927 q 779 869 755 890 q 802 815 789 841 q 823 758 816 789 q 841 697 831 725 q 858 642 850 669 q 870 585 865 614 q 875 518 875 555 m 739 467 q 738 498 738 482 q 739 530 739 514 q 738 562 739 546 q 733 593 737 577 q 730 606 732 601 q 726 616 728 612 q 722 627 724 621 q 721 643 721 633 l 721 646 q 712 659 714 654 q 710 668 710 664 q 709 676 709 672 q 707 686 709 680 l 699 690 q 694 711 694 701 q 693 732 693 722 q 679 749 688 737 q 660 773 669 760 q 643 798 650 786 q 635 817 635 810 q 621 822 626 817 q 611 834 615 827 q 603 848 607 841 q 595 861 600 855 l 586 861 q 564 865 574 860 q 544 876 554 870 q 523 888 534 882 q 497 893 512 893 q 469 887 483 893 q 437 882 454 882 q 421 877 433 882 q 396 865 410 872 q 370 852 382 859 q 353 843 357 846 q 346 832 347 839 q 340 821 344 826 q 309 791 327 804 q 277 762 291 778 q 267 740 273 751 q 250 722 260 730 q 239 677 248 699 q 219 634 229 655 q 200 590 208 612 q 192 545 192 568 q 194 524 192 534 q 196 503 196 513 q 194 487 196 494 q 192 471 192 479 q 197 431 192 451 q 201 390 201 411 q 199 379 201 385 q 196 367 196 373 q 198 350 196 359 q 203 334 201 342 q 206 317 205 326 q 205 301 208 309 q 236 250 223 277 q 260 195 249 223 q 283 172 273 185 q 304 144 294 158 l 313 146 q 333 141 323 146 q 355 129 342 136 q 386 118 368 123 q 431 113 404 113 q 466 114 453 113 q 490 120 479 116 q 512 130 500 123 q 542 144 523 136 q 567 156 557 152 q 584 164 576 159 q 599 176 591 168 q 618 199 606 183 q 633 212 625 207 q 648 225 641 218 q 680 267 669 245 q 699 315 690 288 l 707 323 q 707 334 708 329 q 707 345 707 339 q 711 360 707 354 q 717 374 715 366 q 720 397 719 385 q 722 422 720 410 q 727 446 724 435 q 739 467 731 458 z "},"1":{"ha":481,"x_min":14,"x_max":399,"o":"m 399 899 q 394 877 399 887 q 390 854 390 866 q 392 836 390 845 q 395 817 395 826 q 392 802 395 809 q 390 786 390 795 q 392 771 390 779 q 395 755 395 764 q 390 740 395 747 q 386 722 386 732 q 390 694 386 707 q 395 665 395 680 q 392 645 395 655 q 390 624 390 634 q 392 606 390 614 q 395 587 395 597 q 390 564 395 576 q 386 541 386 553 q 388 509 386 525 q 390 476 390 493 q 394 446 390 460 q 399 415 399 431 q 396 400 399 408 q 390 387 393 393 q 384 373 387 380 q 380 359 381 366 q 386 347 385 353 q 387 334 387 341 q 384 304 387 319 q 380 275 380 290 q 385 240 380 258 q 390 205 390 223 q 388 196 390 199 q 386 189 386 193 q 387 163 386 176 q 389 136 389 150 q 387 115 389 125 q 380 96 386 105 q 384 83 382 90 q 390 72 385 75 q 383 52 385 65 q 375 25 381 39 q 354 2 369 12 q 306 -8 338 -8 q 291 -5 297 -8 q 279 1 285 -3 q 269 9 274 5 q 256 16 263 14 q 249 26 254 16 q 236 48 243 36 q 225 72 230 60 q 220 86 220 83 q 222 114 220 96 q 227 150 224 131 q 231 186 229 169 q 233 214 233 203 q 231 227 233 220 q 229 239 229 233 q 233 253 229 245 q 237 269 237 261 q 236 276 237 273 q 233 283 235 280 q 237 312 233 298 q 241 342 241 327 q 242 363 243 352 q 241 385 241 374 q 247 408 241 397 q 252 429 252 418 q 250 437 252 433 q 248 444 248 440 q 250 452 248 449 q 252 460 252 456 q 245 481 252 471 q 237 503 239 491 q 237 532 236 517 q 239 562 239 547 q 237 585 239 574 q 235 608 235 597 q 241 633 235 620 q 238 643 239 637 q 238 654 238 648 q 237 665 238 660 q 233 673 237 670 q 241 693 239 682 q 243 714 243 703 q 241 745 243 730 q 239 777 239 761 q 239 790 239 784 q 241 803 240 796 q 235 806 239 806 q 225 801 229 806 q 217 791 220 797 q 210 781 214 786 q 201 772 206 775 q 189 765 195 768 q 178 758 183 762 q 169 749 173 755 q 161 736 164 744 q 145 731 152 735 q 131 721 138 726 q 116 712 123 716 q 97 708 108 708 q 50 725 71 708 q 14 762 28 741 q 22 802 16 781 q 36 839 28 822 q 46 844 39 845 q 58 847 53 844 q 63 857 62 851 q 68 865 64 862 q 85 877 75 873 q 104 888 96 881 q 119 901 112 894 q 135 916 126 909 q 151 929 143 922 q 171 937 159 936 q 193 963 177 947 q 229 995 210 979 q 267 1023 248 1011 q 297 1035 286 1035 q 334 1020 315 1035 q 366 983 352 1004 q 390 938 380 962 q 399 899 399 915 z "},"2":{"ha":821,"x_min":47,"x_max":781,"o":"m 781 711 q 779 683 781 701 q 772 645 777 664 q 763 608 768 625 q 750 583 757 591 q 747 575 748 581 q 745 563 746 569 q 744 550 745 556 q 742 539 743 543 q 734 526 740 533 q 723 512 729 519 q 711 497 717 505 q 701 485 705 490 q 679 450 690 468 q 657 414 667 431 q 652 404 656 412 q 647 396 648 396 q 642 393 645 393 q 635 390 638 393 q 622 378 627 385 q 611 364 616 371 q 598 352 605 357 q 581 346 591 347 q 558 313 572 328 q 530 286 545 299 q 501 258 515 272 q 478 225 487 243 q 459 219 469 221 q 441 211 448 218 q 423 196 433 203 q 404 181 413 189 q 387 164 395 173 q 375 144 379 155 q 407 136 391 138 q 440 134 424 134 q 474 135 457 134 q 507 136 491 136 q 542 132 526 136 q 576 126 559 128 q 598 125 587 125 q 621 126 609 126 q 654 123 637 126 q 688 122 671 121 q 702 107 693 115 q 718 92 710 100 q 731 75 726 83 q 737 56 737 66 q 732 36 737 47 q 720 14 727 25 q 703 -5 712 3 q 688 -17 694 -14 q 664 -23 680 -20 q 631 -26 648 -25 q 598 -28 614 -28 q 572 -29 583 -29 q 478 -25 526 -29 q 383 -21 430 -21 q 352 -22 368 -21 q 321 -22 336 -22 q 279 -23 304 -22 q 229 -23 254 -24 q 179 -20 203 -22 q 142 -12 156 -18 l 138 -3 l 127 -3 q 111 12 118 3 q 97 28 104 20 l 87 28 l 87 37 q 75 55 80 46 q 71 75 71 64 q 74 98 71 89 q 83 118 78 106 q 90 139 87 129 q 102 158 93 149 q 109 167 106 163 q 115 176 111 170 q 129 190 119 184 q 142 207 138 195 q 199 228 172 213 q 244 269 227 243 q 264 275 256 270 q 278 288 272 281 q 291 303 285 295 q 307 315 298 311 q 327 319 317 319 q 347 323 338 319 q 366 340 356 332 q 385 357 376 349 q 402 374 394 365 q 415 396 410 384 l 418 395 q 428 397 424 395 q 436 404 433 400 q 443 411 439 408 q 450 418 446 415 q 457 420 454 420 q 464 422 460 420 l 468 431 q 488 449 476 436 q 511 478 500 463 q 529 510 522 494 q 536 534 537 525 q 567 564 551 546 q 596 604 583 583 q 617 647 609 625 q 625 689 626 669 l 625 696 q 621 711 620 700 q 623 730 623 723 q 617 769 623 755 q 603 795 611 784 q 588 816 595 806 q 576 843 580 827 q 559 860 568 852 q 540 874 550 867 q 521 888 530 881 q 504 905 512 896 q 487 912 498 907 q 465 921 476 916 q 443 928 453 925 q 429 932 433 932 q 387 922 408 932 q 351 897 366 912 q 332 893 340 896 q 315 885 323 890 q 299 877 307 881 q 281 869 291 872 q 263 847 271 859 q 250 822 256 835 q 237 797 243 809 q 222 772 231 784 l 222 766 q 219 742 222 754 q 215 715 215 729 q 217 703 215 709 q 222 690 219 696 q 208 655 213 676 q 200 611 203 634 q 198 565 198 588 q 200 525 199 543 q 185 513 192 519 q 170 501 178 507 q 153 492 162 496 q 134 489 144 489 q 123 490 130 489 q 110 493 117 491 q 96 497 102 495 q 87 503 90 500 q 85 509 84 506 q 83 517 85 513 l 75 521 q 66 536 71 527 q 57 555 61 545 q 50 575 53 566 q 47 591 47 585 q 50 608 47 600 q 52 624 52 615 q 50 651 52 637 q 47 677 49 664 q 57 690 54 683 q 65 704 60 698 q 64 712 65 709 q 64 718 64 715 q 65 736 64 725 q 69 759 66 747 q 74 781 71 770 q 79 799 77 792 q 85 812 80 801 q 96 835 90 823 q 108 858 102 848 q 115 869 114 868 q 124 879 119 875 q 132 888 129 882 q 137 901 136 894 q 140 915 139 908 q 144 929 142 922 q 150 942 146 936 l 150 946 q 153 952 150 950 q 159 955 155 954 q 165 958 163 956 q 168 964 168 960 q 207 1001 188 983 q 254 1026 226 1019 q 267 1029 260 1029 q 281 1032 274 1030 q 298 1040 290 1036 q 317 1048 306 1045 q 336 1052 326 1053 q 357 1054 347 1050 q 372 1062 366 1057 q 387 1068 379 1068 q 395 1065 392 1068 q 401 1063 397 1063 q 408 1067 405 1063 q 415 1072 411 1072 q 428 1069 422 1072 q 441 1067 434 1067 q 465 1068 453 1067 q 488 1069 476 1069 q 526 1064 509 1069 q 558 1053 543 1059 q 590 1038 574 1046 q 625 1026 606 1031 q 643 1004 631 1017 q 669 979 656 991 q 693 957 682 966 q 705 942 703 947 q 706 937 707 939 q 705 932 705 934 l 705 928 l 715 924 q 721 910 720 916 q 728 897 722 903 q 738 886 733 892 q 746 875 742 880 q 752 829 747 852 q 764 784 758 806 q 775 744 770 762 q 781 711 781 725 z "},"3":{"ha":768,"x_min":35,"x_max":717,"o":"m 717 265 q 709 189 717 225 q 689 117 701 153 q 674 89 684 101 q 654 64 665 76 q 633 40 643 52 q 616 14 623 28 q 593 -1 605 6 q 576 -22 582 -9 q 559 -28 567 -24 q 543 -39 551 -33 q 527 -50 534 -45 q 510 -58 519 -56 q 490 -61 500 -62 q 469 -62 479 -60 q 462 -65 464 -64 q 458 -68 460 -67 q 453 -70 456 -69 q 443 -71 450 -71 q 400 -78 422 -71 q 355 -85 378 -85 q 336 -81 345 -85 q 317 -77 327 -78 q 292 -76 304 -75 q 267 -77 279 -78 l 254 -77 q 235 -63 244 -71 q 217 -50 226 -56 q 197 -38 208 -43 q 174 -31 186 -33 q 156 -12 168 -20 q 133 6 145 -3 q 110 25 121 15 q 93 50 99 36 q 80 73 90 58 q 60 104 71 88 q 42 134 50 120 q 35 153 35 147 q 39 175 35 161 q 50 200 43 188 q 66 221 57 212 q 85 229 75 229 q 137 214 117 229 q 172 175 157 198 q 200 128 187 153 q 232 85 213 103 q 240 75 237 81 q 250 68 243 70 q 322 48 283 56 q 397 36 361 40 q 427 51 414 45 q 460 54 441 56 q 477 64 470 58 q 490 79 484 71 q 501 96 496 87 q 514 113 507 105 q 524 119 517 115 q 536 126 530 123 q 548 133 543 130 q 554 139 553 136 q 562 153 558 145 q 572 161 565 160 q 572 167 572 165 q 571 171 571 169 q 576 196 571 184 q 582 221 582 208 q 579 234 582 231 q 572 245 576 238 q 570 258 570 252 q 568 269 570 264 q 553 288 563 281 q 536 304 544 295 q 534 312 534 308 q 532 318 535 316 q 523 320 528 321 q 514 322 518 319 q 512 328 512 324 q 513 334 513 331 q 506 339 513 336 q 489 345 498 342 q 469 354 479 349 q 452 368 458 359 q 367 380 408 368 q 344 374 354 379 q 322 368 334 368 q 306 372 313 368 q 293 380 299 375 q 281 390 287 385 q 268 399 275 395 q 260 424 267 412 q 254 449 254 435 q 257 460 254 455 q 264 471 260 466 q 270 483 267 477 q 272 497 273 489 q 298 504 283 505 q 326 507 313 504 q 344 513 336 509 q 363 519 352 517 q 398 523 380 524 q 433 529 416 523 q 475 561 453 547 q 518 591 497 576 q 535 648 526 620 q 558 703 545 677 q 553 725 558 709 q 541 758 548 741 q 528 791 534 776 q 518 811 521 806 q 496 833 510 825 q 473 856 482 842 q 444 861 459 858 q 415 873 428 864 q 376 868 398 870 q 334 859 355 865 q 296 842 313 853 q 272 811 279 831 q 247 785 256 801 q 233 752 239 769 q 220 719 227 735 q 200 690 214 703 q 178 689 189 690 q 155 688 167 688 q 134 692 142 688 q 120 702 125 696 q 110 712 115 708 q 97 717 104 717 q 86 747 90 731 q 83 779 83 764 q 91 830 83 811 q 111 862 99 848 q 139 889 123 876 q 170 922 154 902 q 189 928 178 923 q 213 939 201 932 q 236 951 225 945 q 254 962 247 958 q 265 972 260 966 q 277 981 270 979 q 284 982 281 983 q 292 981 288 981 l 294 981 l 304 990 q 333 996 318 994 q 363 997 348 997 q 407 995 385 997 q 452 990 430 992 l 456 994 q 482 984 469 986 q 508 981 495 983 q 533 972 520 979 q 558 950 545 966 l 570 950 q 587 948 580 951 q 601 941 595 945 q 615 933 608 937 q 631 928 622 929 q 644 898 637 911 q 657 870 651 884 q 666 841 663 856 q 671 807 670 826 q 685 767 682 788 q 689 725 689 746 q 686 698 689 710 q 681 672 682 686 q 679 649 679 661 q 678 626 679 637 q 675 604 677 615 q 667 582 673 593 q 626 520 648 549 q 582 461 604 492 q 595 445 584 456 q 621 421 607 433 q 648 399 635 409 q 667 385 661 389 q 674 365 666 381 q 691 329 682 349 q 709 290 701 309 q 717 265 717 272 z "},"4":{"ha":726,"x_min":31,"x_max":689,"o":"m 689 307 q 679 279 689 290 q 654 261 669 269 q 623 249 639 254 q 595 237 607 243 q 598 161 597 199 q 600 85 600 123 q 597 13 600 48 q 586 -58 595 -22 q 564 -72 576 -68 q 539 -77 551 -77 q 496 -70 513 -77 q 469 -49 479 -62 q 455 -16 459 -35 q 452 28 452 3 q 452 41 452 34 q 457 54 453 48 l 452 62 q 457 74 454 68 q 461 85 461 79 q 456 111 461 98 q 452 136 452 123 q 453 155 452 140 q 455 185 454 169 q 458 214 457 201 q 461 229 460 227 q 363 241 413 241 q 339 239 351 241 q 315 237 328 237 q 285 242 300 237 q 253 248 270 248 q 242 244 244 248 q 236 241 240 241 q 228 245 234 245 q 208 241 217 245 q 187 237 198 237 q 178 239 182 237 q 170 241 175 241 q 157 241 163 243 q 143 240 151 240 q 127 242 136 240 q 109 247 118 244 q 90 253 99 250 q 75 260 81 256 q 61 274 68 263 q 46 299 53 286 q 35 325 39 312 q 31 346 31 338 q 33 361 31 356 q 37 370 35 367 q 43 376 40 373 q 49 385 47 379 q 54 402 51 390 q 59 429 56 415 q 63 456 62 444 q 65 475 65 469 q 65 488 65 481 q 62 501 64 495 q 86 569 79 531 q 93 639 93 606 q 95 655 93 647 q 100 670 98 663 q 105 685 102 677 q 107 701 107 693 q 105 722 107 712 q 103 742 103 731 q 105 765 103 753 q 107 787 107 776 q 114 832 107 807 q 121 886 121 857 q 124 912 121 897 q 135 939 128 926 q 153 961 142 952 q 176 970 163 970 q 201 966 188 970 q 224 954 214 962 l 228 946 q 251 922 243 939 q 260 889 260 905 q 257 877 260 882 q 254 865 254 871 q 257 852 254 858 q 260 840 260 846 q 251 804 260 823 q 236 771 242 785 q 237 750 236 760 q 239 729 239 740 q 228 703 239 715 q 232 683 231 693 q 233 663 233 673 q 232 642 233 653 q 224 623 230 630 q 232 595 232 609 q 228 575 232 584 q 224 557 224 566 q 226 543 224 549 q 228 530 228 537 q 225 519 228 525 q 218 506 222 513 q 210 492 214 499 q 205 479 206 486 q 204 463 203 471 q 205 446 205 454 q 200 422 205 432 q 195 400 195 412 q 201 386 195 390 q 217 380 208 382 q 236 380 226 379 q 252 380 245 380 q 349 378 300 380 q 447 372 398 376 q 455 386 454 378 q 456 401 456 393 l 457 408 q 452 416 452 410 q 454 431 452 423 q 457 447 457 439 q 461 483 460 465 q 461 519 461 502 l 461 575 q 463 607 460 591 q 468 638 465 623 q 474 669 471 654 q 476 701 476 685 q 471 730 476 716 q 465 757 465 743 q 469 787 465 772 q 473 817 473 801 q 469 851 473 834 q 465 888 465 869 q 470 904 465 896 q 475 921 475 912 q 471 939 475 930 q 468 957 468 947 q 468 962 468 960 q 469 968 468 964 q 483 982 477 975 q 495 995 489 989 q 510 1005 502 1001 q 530 1008 518 1008 q 589 991 568 1008 q 610 935 610 973 q 604 867 610 901 q 599 800 599 833 q 602 746 599 772 q 604 694 604 720 q 601 664 604 679 q 597 633 597 649 q 599 621 597 627 q 604 610 600 615 q 597 594 600 603 q 595 575 595 585 q 595 555 595 565 q 596 538 596 545 q 592 479 596 508 q 589 421 589 450 q 591 396 589 404 q 598 387 593 389 q 611 384 603 385 q 631 380 618 384 q 649 374 640 378 q 667 368 657 370 q 672 356 669 364 q 680 337 676 347 q 686 319 684 328 q 689 307 689 311 z "},"5":{"ha":793,"x_min":40,"x_max":755,"o":"m 755 396 q 753 356 755 380 q 746 307 750 332 q 736 258 741 281 q 725 220 730 234 q 706 175 717 197 q 689 131 694 154 q 675 118 681 125 q 664 102 669 110 q 653 86 659 94 q 640 72 648 78 q 625 64 634 66 q 608 58 616 62 l 604 50 q 582 39 596 46 q 549 22 567 31 q 511 3 531 13 q 474 -14 492 -6 q 443 -27 457 -22 q 422 -32 429 -32 q 413 -29 417 -32 q 403 -26 408 -26 q 356 -28 379 -26 q 310 -31 333 -31 q 287 -30 300 -31 q 261 -28 274 -30 q 235 -25 248 -27 q 214 -18 223 -22 q 203 -11 208 -15 q 192 -4 198 -6 q 170 -2 181 -1 q 147 0 158 -3 l 143 9 q 131 11 137 12 q 119 14 125 10 q 114 20 116 16 q 107 25 113 24 l 103 22 q 91 40 101 33 q 70 59 81 48 q 49 88 58 71 q 40 135 40 106 q 53 173 40 158 q 89 187 65 187 q 120 180 104 187 q 152 164 136 174 q 188 142 169 154 q 228 120 206 130 q 277 104 250 111 q 335 97 303 97 q 363 99 347 97 q 397 104 380 100 q 429 111 414 107 q 456 121 445 115 q 472 130 465 125 q 486 141 479 136 q 500 150 493 146 q 518 157 508 155 q 543 192 528 176 q 576 220 559 207 q 578 231 578 225 q 582 241 578 237 l 590 241 q 599 268 595 253 q 607 298 604 283 q 613 329 611 314 q 615 357 615 345 q 610 390 615 374 q 600 421 606 406 q 560 490 583 465 q 510 528 538 514 q 447 549 481 541 q 371 570 412 557 q 349 562 360 564 q 325 558 337 559 q 301 555 313 556 q 277 551 289 554 l 264 542 q 245 541 254 540 q 228 538 236 541 q 193 523 209 531 q 157 514 178 514 q 140 515 149 514 q 125 519 132 516 q 114 535 119 528 q 107 551 109 542 q 110 558 109 555 q 111 566 111 562 q 107 575 111 573 q 103 582 103 576 q 106 603 103 593 q 111 623 109 613 q 122 730 121 677 q 123 838 123 782 q 126 879 123 859 q 129 921 129 900 q 139 952 129 942 q 165 967 150 963 q 199 970 181 970 q 231 970 216 970 q 263 975 248 970 q 294 979 279 979 q 312 978 304 979 q 330 977 321 977 q 349 979 340 977 q 367 981 357 981 q 385 977 376 981 q 403 972 393 972 q 432 977 418 972 q 461 986 447 981 q 490 996 475 991 q 519 1000 505 1000 q 542 997 531 1000 q 564 990 553 994 q 582 997 572 994 q 602 999 591 999 q 659 978 636 999 q 681 921 681 956 q 677 895 681 907 q 671 869 673 882 q 667 861 670 864 q 659 856 663 858 q 649 852 654 854 q 640 847 644 850 q 622 835 630 838 q 607 831 614 831 q 592 832 600 831 q 572 833 584 833 q 543 830 557 833 q 510 827 530 827 q 500 825 505 827 q 492 819 496 823 q 458 828 478 828 q 433 825 446 828 q 407 819 420 823 q 369 815 387 815 q 329 815 350 815 q 298 812 313 815 q 268 811 283 810 q 257 782 260 798 q 254 751 254 767 q 256 721 254 736 q 258 690 257 706 q 269 689 264 689 q 279 689 274 689 q 340 695 310 689 q 401 701 370 701 q 431 699 416 701 q 456 686 445 696 q 460 688 458 688 q 465 688 463 688 q 479 685 473 688 q 491 680 485 683 q 505 674 498 677 q 519 672 511 672 l 524 672 q 534 668 526 671 q 551 662 542 665 q 567 654 559 658 q 576 650 574 651 q 589 639 584 646 q 600 628 593 632 q 613 620 606 623 q 627 614 621 618 q 631 607 630 610 q 635 600 631 604 q 651 592 642 595 q 667 583 659 588 q 679 570 674 578 q 684 550 684 562 q 688 542 684 547 q 698 531 692 536 q 709 520 703 526 q 715 511 714 515 q 718 498 719 505 q 721 484 718 491 q 732 460 726 469 q 743 444 738 452 q 752 426 749 436 q 755 396 755 415 z "},"6":{"ha":798,"x_min":37,"x_max":765,"o":"m 765 317 q 763 295 765 303 q 757 280 760 287 q 751 267 754 273 q 746 252 747 261 q 746 233 744 242 q 747 214 747 223 q 743 194 747 203 q 733 176 739 185 q 723 159 728 168 q 718 139 719 150 q 702 125 712 136 q 683 100 692 114 q 665 74 673 87 q 656 54 658 61 q 635 39 644 48 q 619 18 626 30 q 592 7 606 14 q 571 -14 578 0 l 568 -12 q 549 -16 558 -12 q 530 -24 539 -20 q 512 -32 521 -28 q 496 -36 504 -36 q 485 -33 490 -36 q 472 -31 479 -31 q 456 -35 464 -31 q 440 -40 449 -40 q 420 -38 431 -40 q 400 -36 410 -36 q 386 -38 393 -36 q 372 -40 380 -40 q 350 -37 361 -40 q 328 -31 339 -35 q 307 -25 317 -28 q 285 -22 296 -22 q 230 4 256 -11 q 180 40 203 19 l 178 40 q 171 41 174 39 q 164 43 168 42 q 158 45 161 45 q 150 45 155 46 q 137 58 145 50 q 122 74 130 66 q 108 87 114 81 q 100 94 102 93 q 94 107 99 95 q 83 133 90 119 q 72 161 77 148 q 65 179 66 174 q 59 205 60 191 q 56 233 59 220 q 45 258 52 246 q 37 283 37 270 q 39 303 37 293 q 41 322 41 313 q 39 339 41 331 q 37 355 37 347 q 41 373 37 365 q 47 390 45 380 q 47 412 49 401 q 46 433 46 422 q 50 450 46 443 q 57 464 53 458 q 66 478 62 471 q 74 493 71 485 q 79 531 80 511 q 82 570 78 551 q 87 587 83 573 q 96 615 92 600 q 104 643 100 630 q 110 659 109 656 q 124 677 114 669 q 140 694 135 684 q 143 701 142 698 q 146 708 144 705 q 152 719 146 711 q 166 738 158 727 q 184 761 174 749 q 202 784 193 773 q 217 802 211 794 q 227 811 224 809 q 237 841 229 828 q 254 863 244 853 q 277 882 264 873 q 301 900 289 891 q 315 918 307 910 q 333 932 323 925 q 351 946 342 939 q 366 962 359 953 q 389 971 378 964 q 410 985 399 978 q 431 999 420 993 q 457 1004 442 1004 q 484 1000 471 1004 q 507 987 497 996 q 524 966 517 979 q 530 939 530 954 q 525 908 530 923 q 517 878 519 893 q 489 859 502 870 q 458 842 475 848 q 439 823 450 831 q 418 807 429 815 l 414 798 l 406 798 q 380 773 392 787 q 351 757 369 760 q 338 738 346 746 q 322 721 330 729 q 307 703 314 713 q 297 681 300 694 q 302 677 299 677 q 310 681 307 677 q 317 689 313 685 q 324 698 320 694 q 334 703 328 702 q 386 708 359 706 q 437 710 412 710 q 469 706 454 710 q 499 697 485 702 q 525 690 513 692 q 545 690 536 687 q 558 677 550 682 q 576 670 567 673 q 596 666 586 667 q 615 663 606 664 q 629 646 619 658 q 652 618 640 633 q 678 585 665 602 q 703 553 692 568 q 723 528 715 538 q 732 515 730 517 q 739 496 734 510 q 748 468 743 483 q 756 440 752 453 q 760 422 760 427 q 757 409 760 415 q 754 395 754 402 q 760 358 754 379 q 765 317 765 338 m 625 319 q 625 340 625 326 q 625 372 625 355 q 623 402 624 388 q 619 421 621 416 q 614 433 618 427 q 607 443 610 439 q 590 475 597 458 q 571 507 583 492 q 535 533 556 524 q 490 546 513 541 q 441 552 466 550 q 396 559 417 555 l 392 555 l 386 555 q 367 553 376 557 q 347 549 357 549 q 340 549 344 549 q 334 551 337 550 q 295 528 316 536 q 253 511 274 519 q 231 481 242 496 q 208 453 220 467 l 208 443 q 207 421 209 432 q 202 400 205 410 q 197 378 199 389 q 195 357 195 368 q 198 325 195 340 q 205 295 201 310 q 214 264 210 279 q 221 233 218 249 q 235 216 228 224 q 249 200 242 208 q 260 183 255 193 q 267 161 264 174 q 291 146 279 156 q 311 125 302 136 q 364 115 338 123 q 416 107 389 107 q 444 109 427 107 q 479 115 461 111 q 512 125 496 119 q 534 139 527 131 q 546 157 542 146 q 557 175 551 167 q 581 194 568 186 q 603 215 594 203 q 620 265 615 236 q 625 319 625 294 z "},"7":{"ha":672,"x_min":24,"x_max":661,"o":"m 661 905 q 655 890 661 899 q 648 873 650 881 q 646 853 645 864 q 643 833 647 843 q 635 818 640 825 q 625 802 631 810 q 615 787 620 794 q 608 771 610 779 q 605 744 604 758 q 603 717 606 730 q 592 694 600 704 q 581 672 585 684 q 576 652 577 662 q 573 632 574 642 q 568 612 571 623 q 558 591 565 602 q 551 583 555 586 q 545 574 547 579 q 543 558 543 566 q 541 542 544 550 q 534 527 536 531 q 529 520 531 524 q 526 510 527 516 q 525 488 525 504 q 522 466 525 475 q 513 449 518 456 q 500 433 507 441 q 486 416 493 426 l 488 410 q 479 380 488 403 q 455 327 469 357 q 422 261 440 296 q 388 196 404 227 q 359 144 372 165 q 343 117 347 122 q 345 106 345 111 q 345 96 345 101 q 341 58 345 77 q 330 21 338 39 q 312 -13 323 3 q 285 -40 300 -28 q 257 -46 271 -42 q 228 -50 243 -50 q 203 -45 211 -50 q 192 -34 196 -41 q 185 -18 188 -26 q 174 -4 182 -10 q 182 42 182 24 q 184 78 183 61 q 193 114 186 95 q 222 161 201 133 q 226 186 222 175 q 235 209 230 198 q 247 230 241 219 q 258 252 253 240 q 269 283 265 267 q 285 314 273 299 q 286 322 286 318 q 285 330 285 326 q 288 336 285 331 q 293 348 290 342 q 299 361 296 355 q 302 368 302 367 l 313 372 q 319 394 318 382 q 325 416 321 406 q 342 445 332 432 q 357 475 351 458 q 372 508 363 492 q 393 538 380 524 l 392 550 q 399 591 392 572 q 419 628 406 610 q 431 676 419 654 q 456 721 442 699 q 462 767 456 746 q 478 811 469 788 q 468 812 473 811 q 458 812 464 812 q 370 805 414 812 q 282 798 326 798 q 247 800 264 798 q 211 803 229 803 q 189 800 199 803 q 167 793 178 797 q 146 786 157 789 q 123 783 135 783 q 93 790 107 783 q 64 798 79 798 l 61 798 l 57 807 q 39 820 47 812 q 25 838 31 828 l 25 867 q 30 903 24 892 q 45 918 35 914 q 70 923 55 922 q 102 928 84 924 q 116 932 109 929 q 132 938 124 935 q 149 944 140 941 q 163 946 157 946 q 177 943 170 946 q 192 940 184 940 q 209 943 200 940 q 227 946 217 946 q 238 943 233 946 q 250 940 243 940 q 261 945 256 940 q 272 950 266 950 q 297 947 285 950 q 323 945 310 945 q 345 947 336 945 q 364 951 354 949 q 386 956 374 954 q 415 958 398 958 q 422 959 418 958 q 429 962 426 960 q 442 960 435 962 q 456 958 448 958 q 484 961 470 958 q 511 966 497 963 q 539 971 525 969 q 567 974 553 974 q 612 967 592 974 q 653 950 631 960 l 652 945 q 656 925 652 934 q 661 905 661 916 z "},"8":{"ha":771,"x_min":33,"x_max":721,"o":"m 721 302 q 718 250 721 279 q 708 189 714 220 q 692 130 701 158 q 673 81 684 101 q 660 60 668 70 q 643 42 651 51 q 627 22 634 33 q 615 0 619 12 q 591 -18 604 -8 q 566 -38 579 -28 q 539 -55 553 -47 q 513 -66 526 -62 q 495 -71 504 -70 q 476 -73 486 -72 q 458 -75 467 -74 q 440 -81 449 -77 q 422 -90 428 -86 q 411 -95 416 -93 q 397 -98 405 -97 q 375 -98 390 -98 q 356 -95 364 -98 q 338 -89 348 -91 q 299 -88 319 -85 q 261 -85 280 -90 q 250 -78 255 -83 q 239 -71 245 -74 q 223 -69 231 -68 q 208 -66 216 -70 q 184 -54 196 -62 q 158 -45 173 -45 q 148 -28 155 -39 q 131 -6 140 -18 q 113 15 122 5 q 100 26 104 24 q 102 35 102 29 q 95 51 102 37 q 81 83 89 65 q 65 118 73 100 q 56 143 58 135 q 46 161 54 153 q 37 179 39 169 q 39 197 37 189 q 40 215 40 205 q 38 227 40 222 q 33 237 37 232 q 40 265 40 251 q 39 284 40 275 q 37 301 37 293 q 39 311 37 307 q 42 320 40 315 q 45 330 43 324 q 46 345 46 336 q 54 359 46 353 q 65 372 61 365 q 69 388 68 380 q 74 403 69 397 q 85 418 79 411 q 99 432 92 425 q 110 448 105 439 q 114 467 114 456 q 132 479 124 471 q 146 497 140 487 q 172 512 159 503 q 195 533 184 522 l 195 539 q 191 550 195 546 q 181 559 186 555 q 172 569 176 563 q 168 585 168 574 l 168 587 l 158 591 q 153 607 155 596 q 150 623 152 617 q 145 632 148 628 q 140 640 142 636 q 138 659 140 644 q 134 693 136 675 q 131 727 132 711 q 129 747 129 743 q 131 762 129 758 q 135 768 132 766 q 139 772 137 770 q 140 778 140 773 q 138 792 140 785 q 135 806 135 798 q 140 816 135 806 q 152 839 145 826 q 165 863 159 851 q 172 882 171 876 l 208 900 q 220 915 212 907 q 237 928 229 922 q 252 941 245 935 q 261 954 259 948 q 277 959 269 958 q 293 962 286 959 q 302 972 299 966 q 311 981 306 977 q 336 992 323 988 q 359 1003 349 996 q 396 994 379 1003 q 427 1004 412 1001 q 458 1013 443 1007 q 475 1006 468 1010 q 488 998 481 1002 q 503 992 495 995 q 522 990 511 989 q 532 980 524 986 q 552 968 541 975 q 574 956 564 962 q 589 946 584 950 q 600 928 595 939 q 611 909 605 917 q 625 896 617 902 q 637 882 633 890 q 645 867 642 875 q 649 852 647 859 q 655 837 652 844 q 665 825 659 830 q 663 819 664 822 q 663 812 663 816 q 670 785 663 798 q 677 760 677 772 q 675 743 677 751 q 673 726 673 734 q 675 704 673 715 q 676 682 676 692 q 671 661 676 671 q 659 640 666 650 q 645 620 652 630 q 633 600 638 610 q 629 589 631 595 q 625 578 627 583 l 615 574 l 615 564 q 596 547 608 554 q 579 529 585 540 q 587 514 582 520 q 600 504 593 509 q 615 496 607 500 q 629 489 623 493 q 653 457 639 471 q 677 425 668 443 q 685 410 679 424 q 699 380 692 396 q 712 350 707 363 q 718 336 718 337 q 721 319 720 328 q 721 302 721 311 m 545 700 q 544 720 545 711 q 545 739 543 730 q 530 765 536 747 q 516 801 523 783 q 504 833 510 819 q 490 847 497 847 q 485 852 489 851 q 475 853 480 854 q 465 852 470 853 q 456 851 459 851 q 444 854 451 851 q 430 860 437 857 q 417 868 423 864 q 406 873 410 871 q 390 870 399 871 q 373 866 381 868 q 356 862 364 864 q 343 856 348 859 q 312 826 323 842 q 294 793 301 810 q 281 758 287 777 q 267 721 276 740 q 274 705 272 713 q 278 688 277 697 q 280 671 279 680 q 285 654 281 663 q 330 593 300 614 q 403 572 360 572 q 439 579 422 572 q 471 598 456 587 q 496 626 485 610 q 513 659 507 642 q 524 667 518 663 q 534 674 530 670 q 542 684 538 678 q 545 700 545 690 m 585 235 q 581 281 585 258 q 579 328 577 304 q 567 345 571 334 q 553 363 562 356 q 535 392 545 381 q 513 416 525 402 q 499 419 506 420 q 486 421 492 418 q 474 434 477 427 q 464 449 470 442 q 460 447 462 448 q 457 446 459 446 q 453 448 456 446 q 446 453 450 450 q 434 457 441 455 q 419 460 428 460 q 384 456 401 460 q 349 453 366 453 q 319 457 334 453 q 314 446 318 451 q 306 437 311 441 q 298 427 302 432 q 293 416 294 422 q 278 411 285 415 q 267 401 272 407 q 256 390 261 396 q 244 380 250 385 q 233 376 239 377 q 221 372 227 376 q 217 359 219 363 q 211 353 214 355 q 204 348 208 350 q 195 340 200 345 q 183 320 185 331 q 176 296 180 309 q 171 280 174 288 q 168 264 168 273 q 172 253 168 260 q 176 241 175 247 q 179 218 180 230 q 179 195 179 206 q 179 182 179 188 q 180 171 179 176 q 191 155 184 163 q 204 139 199 146 q 212 118 210 130 q 221 98 214 107 q 234 85 227 91 q 249 75 241 80 q 263 63 256 69 q 275 50 271 58 q 322 46 298 45 q 370 45 346 47 q 384 42 377 45 q 399 40 391 40 q 418 43 409 40 q 438 49 428 45 q 457 55 448 52 q 476 58 467 58 q 486 71 480 66 q 498 80 492 76 q 511 89 505 84 q 522 98 517 93 q 534 116 529 106 q 544 134 539 125 q 555 151 549 143 q 571 165 562 159 q 569 171 570 169 q 568 176 568 173 q 571 188 568 182 q 576 201 573 194 q 582 216 579 208 q 585 235 585 224 z "},"9":{"ha":790,"x_min":29,"x_max":755,"o":"m 755 615 q 753 604 755 609 q 751 591 751 598 q 753 577 751 584 q 755 564 755 571 q 753 533 755 549 q 746 501 750 516 q 737 479 744 490 q 729 457 730 469 q 728 440 727 448 q 729 422 729 432 q 725 404 729 413 q 715 387 721 395 q 703 370 709 378 q 693 354 697 362 q 686 336 689 346 q 679 318 684 326 l 671 314 l 671 304 q 663 284 665 293 q 660 268 661 275 q 657 253 659 260 q 653 237 656 245 q 646 231 650 233 q 639 224 641 229 q 637 215 637 220 q 635 205 637 210 q 626 197 631 200 q 616 189 620 195 l 616 179 q 598 152 608 165 q 585 121 589 138 q 541 62 555 100 q 517 46 525 58 q 500 22 509 34 q 476 -6 488 7 q 452 -36 463 -20 q 435 -51 444 -44 q 416 -63 426 -58 q 397 -75 406 -69 q 379 -89 387 -81 l 366 -89 q 339 -91 352 -89 q 313 -93 326 -93 q 278 -80 292 -93 q 265 -46 265 -67 q 271 -17 265 -31 q 285 9 276 -3 l 285 12 q 288 18 285 16 q 293 20 290 20 q 299 22 296 21 q 302 26 302 23 q 311 35 308 31 q 317 45 313 40 q 343 61 327 47 q 377 89 360 74 q 409 114 394 103 q 429 125 423 125 q 441 153 432 141 q 459 175 450 164 q 477 199 469 186 q 486 229 485 212 q 499 236 492 235 q 514 241 507 238 q 520 274 515 258 q 526 304 525 289 q 497 298 512 304 q 469 286 483 292 q 442 273 455 279 q 416 268 429 268 q 405 271 410 268 q 393 273 399 273 q 363 270 378 273 q 335 264 349 266 l 330 269 q 308 264 319 268 q 285 260 296 261 q 274 269 280 266 q 262 274 269 272 q 249 278 256 276 q 236 282 242 279 q 213 293 227 288 q 192 304 200 299 q 179 314 184 310 q 169 323 174 319 q 159 331 165 327 q 142 340 153 335 l 142 350 q 126 362 136 353 q 105 382 116 372 q 86 402 95 393 q 75 416 78 412 q 65 441 68 427 q 57 467 62 454 q 41 499 47 488 q 33 522 36 511 q 30 546 31 532 q 29 585 29 559 q 32 633 29 608 q 43 681 35 657 q 43 692 41 686 q 45 703 45 697 q 43 709 45 706 q 39 713 42 711 q 48 734 43 724 q 59 753 54 743 q 69 773 64 762 q 75 798 73 784 q 93 818 85 805 q 109 844 101 831 q 123 867 116 857 q 138 882 130 878 q 174 912 157 892 q 208 946 191 931 q 235 954 223 949 q 258 966 247 960 q 280 980 269 972 q 302 994 290 987 q 310 993 307 993 q 317 993 313 993 q 344 996 330 993 q 371 999 357 999 q 387 994 378 999 q 407 997 398 994 q 425 1000 416 1000 q 450 994 439 1000 q 473 981 462 987 q 480 982 477 982 q 488 982 484 982 q 519 978 505 982 q 550 972 534 974 q 559 956 553 962 q 574 943 566 949 q 591 930 583 937 q 603 914 599 924 q 624 906 614 911 q 643 900 633 901 q 661 875 650 886 q 679 851 671 864 q 701 816 689 836 q 724 775 713 796 q 742 732 734 753 q 749 693 749 711 q 747 675 749 684 q 746 659 746 667 q 751 637 746 647 q 755 615 755 627 m 612 582 q 608 601 612 591 q 603 618 604 610 q 603 634 602 627 q 604 650 604 642 q 601 666 604 658 q 593 682 597 674 q 584 697 588 690 q 576 713 579 705 q 569 736 571 727 q 565 751 567 745 q 557 765 562 758 q 541 783 552 772 q 534 791 537 787 q 527 801 530 796 q 519 808 523 805 q 510 811 515 811 q 505 821 507 816 q 501 830 503 826 q 496 838 499 835 q 486 842 493 841 q 433 849 460 846 q 379 860 405 852 q 345 843 361 850 q 307 833 329 835 q 296 820 304 828 q 277 805 287 812 q 256 790 267 797 q 240 779 246 783 q 227 773 234 775 q 214 766 219 772 q 209 754 211 757 q 205 750 207 751 q 201 748 203 749 q 196 743 199 747 q 190 728 195 741 q 180 701 185 715 q 172 673 176 686 q 168 657 168 660 q 170 633 168 644 q 174 610 172 621 q 173 584 174 596 q 172 558 172 571 q 174 541 172 546 q 177 532 175 535 q 181 526 179 529 q 186 515 184 522 q 188 497 189 507 q 192 479 187 488 q 203 469 199 475 q 211 455 208 463 q 219 441 215 448 q 232 431 224 435 q 255 424 236 428 q 299 414 275 419 q 346 403 323 408 q 379 395 368 398 q 412 405 396 399 q 446 411 428 411 q 458 410 452 411 q 469 408 463 410 q 499 428 484 418 q 522 453 514 437 q 534 460 529 456 q 544 470 539 465 q 552 480 548 475 q 562 489 557 485 q 573 492 567 491 q 581 497 578 494 q 589 515 583 503 q 600 540 594 527 q 609 565 605 553 q 612 582 612 577 z "}," ":{"ha":361,"x_min":0,"x_max":0,"o":""},"¾":{"ha":867,"x_min":41,"x_max":829,"o":"m 668 823 q 660 788 668 802 q 641 762 651 774 q 622 738 631 751 q 614 707 614 726 q 612 693 614 697 q 606 684 610 689 q 597 671 603 680 q 586 643 592 662 q 579 624 586 634 q 565 602 573 613 q 551 579 557 591 q 545 557 545 568 q 542 542 545 549 q 537 529 540 535 q 531 521 534 524 q 529 519 529 518 l 529 504 q 525 491 529 496 q 517 481 522 486 q 509 471 513 477 q 505 457 505 466 q 506 455 505 456 q 507 452 507 454 q 492 441 498 447 q 483 429 486 435 q 475 417 479 422 q 468 407 472 411 l 468 403 q 462 374 468 391 q 446 342 456 357 l 446 328 l 439 322 q 432 310 435 317 q 422 297 428 304 l 422 298 q 412 281 416 290 q 403 260 408 271 q 393 235 399 248 q 376 205 387 221 l 364 187 q 358 179 359 181 q 355 174 356 177 q 350 164 353 171 q 340 140 347 157 l 317 97 q 307 81 311 90 q 298 60 302 73 q 282 53 286 58 q 274 40 277 47 q 265 28 271 33 q 244 22 259 22 q 222 26 233 22 q 203 36 212 29 q 190 52 195 42 q 184 74 184 61 q 189 94 184 85 q 199 109 193 102 l 205 118 q 211 133 210 126 q 222 151 213 139 l 224 153 q 231 165 229 160 q 233 175 232 170 l 240 196 l 253 220 q 280 276 269 250 q 309 322 292 301 l 313 332 q 314 340 313 338 q 315 349 315 342 l 315 353 q 365 421 348 381 q 392 501 382 460 q 411 521 404 510 q 424 544 418 532 q 432 567 429 555 q 441 586 436 578 q 449 603 446 593 q 453 625 453 612 l 453 631 q 465 649 456 635 q 485 681 475 664 q 505 714 496 699 q 518 736 515 730 l 518 747 q 519 753 518 751 q 525 760 521 755 l 525 758 q 531 781 530 768 q 535 810 532 795 q 544 840 537 825 q 566 867 550 854 l 564 867 l 570 871 l 570 869 l 586 893 l 602 900 l 600 900 q 609 904 604 902 q 621 905 613 905 q 636 900 628 905 q 650 888 644 895 q 662 873 657 881 q 668 859 667 865 l 668 823 m 829 248 l 819 237 q 802 222 811 228 q 775 216 792 216 l 775 214 q 774 211 775 212 q 774 208 774 210 q 777 192 774 199 q 779 175 779 184 q 779 164 779 173 q 776 144 778 156 q 770 119 774 132 q 759 94 766 105 q 743 75 753 83 q 720 68 733 68 q 708 69 713 68 q 697 75 703 71 l 685 87 q 680 93 682 90 q 676 99 677 95 q 674 108 675 102 q 673 123 673 113 q 672 139 673 132 q 665 153 671 145 q 672 178 669 165 q 675 204 675 191 l 675 214 q 663 216 669 215 q 648 216 656 216 q 627 215 636 216 q 607 214 617 214 q 585 217 594 214 q 567 224 575 220 q 551 231 559 228 q 532 235 543 235 q 524 277 524 256 q 525 299 524 292 q 530 313 527 307 l 539 330 q 542 341 541 336 q 542 351 542 346 l 550 371 l 550 383 q 549 388 550 385 q 549 393 549 391 q 552 407 549 399 q 558 419 555 414 l 564 431 q 566 441 565 435 q 568 453 567 448 q 570 464 569 459 q 572 471 571 469 l 571 471 q 597 497 579 486 q 633 507 616 507 l 647 507 q 663 480 659 494 q 668 452 668 466 q 664 418 668 435 q 656 387 661 402 q 647 355 652 371 q 640 325 642 340 q 643 322 642 323 q 647 321 644 321 q 662 322 654 321 q 676 323 669 323 q 681 322 677 323 q 682 329 681 326 q 682 336 682 333 q 681 354 682 347 q 679 371 679 362 q 681 389 679 380 q 689 406 684 398 q 687 421 689 414 q 685 440 685 428 q 700 472 685 459 q 734 485 715 485 q 757 477 747 485 q 774 459 767 470 q 784 437 781 449 q 787 418 787 426 q 786 395 787 408 q 783 372 785 383 q 781 353 782 361 q 779 340 779 344 q 783 325 779 330 q 791 320 786 321 q 802 319 796 319 q 812 317 808 319 q 825 292 820 304 q 829 267 829 279 l 829 262 l 829 248 m 346 579 q 343 560 346 568 q 335 543 341 553 q 337 535 336 540 q 338 526 338 530 q 333 506 338 516 q 320 486 328 495 q 307 470 313 477 q 296 460 300 463 l 297 460 q 275 443 283 446 q 256 440 266 440 q 234 441 247 441 q 200 433 221 441 l 183 429 q 145 437 163 429 q 114 458 127 445 q 86 468 100 460 q 63 486 73 475 q 47 511 53 496 q 41 541 41 525 q 89 587 41 587 q 118 583 108 587 q 135 572 128 578 q 148 558 141 566 q 167 546 155 551 l 167 545 l 163 545 q 167 544 163 544 q 176 542 171 543 q 186 540 181 541 q 195 536 192 538 q 218 551 209 542 q 228 575 228 559 l 228 579 q 203 593 221 589 q 166 602 185 597 q 133 616 147 607 q 118 647 118 626 q 126 672 118 663 q 147 689 134 682 q 174 700 159 696 q 200 710 188 705 q 221 722 213 715 q 229 741 229 729 l 224 757 q 209 763 217 757 q 196 768 201 768 q 180 762 187 768 q 167 748 174 755 q 154 734 161 741 q 136 728 146 728 q 117 732 125 728 q 103 742 109 736 q 95 752 98 747 q 92 755 92 756 l 92 756 q 90 758 92 757 l 85 766 l 86 766 q 77 779 81 772 q 74 796 74 785 q 76 801 74 798 q 79 808 77 804 l 85 811 q 100 847 85 834 q 136 868 115 861 q 176 877 156 875 q 204 879 195 879 q 239 872 218 879 q 279 854 260 865 q 311 831 298 844 q 325 807 325 819 q 326 801 325 805 q 328 794 326 798 l 328 796 l 334 785 q 337 777 336 781 q 339 761 339 774 q 333 727 339 743 q 321 697 327 711 l 321 699 q 313 680 317 688 q 310 668 310 671 q 313 655 310 660 q 321 646 317 651 l 321 647 q 331 633 327 641 q 335 612 335 626 l 339 604 q 343 592 341 599 q 346 579 346 585 z "},"³":{"ha":421,"x_min":54,"x_max":358,"o":"m 358 579 q 356 560 358 568 q 347 543 353 553 q 349 535 349 540 q 350 526 350 530 q 345 506 350 516 q 333 486 340 495 q 319 470 326 477 q 309 460 312 463 l 310 460 q 287 443 296 446 q 269 440 278 440 q 246 441 259 441 q 212 433 233 441 l 196 429 q 158 437 176 429 q 126 458 139 445 q 99 468 112 460 q 76 486 85 475 q 60 511 66 496 q 54 541 54 525 q 102 587 54 587 q 131 583 121 587 q 147 572 140 578 q 160 558 153 566 q 179 546 167 551 l 179 545 l 175 545 q 179 544 175 544 q 189 542 183 543 q 199 540 194 541 q 207 536 204 538 q 231 551 222 542 q 240 575 240 559 l 240 579 q 226 590 235 586 q 204 596 216 593 q 179 602 192 599 q 155 610 166 605 q 138 624 144 616 q 131 647 131 633 q 139 672 131 663 q 159 689 147 682 q 186 700 172 696 q 213 710 201 705 q 233 722 225 715 q 241 741 241 729 l 236 757 q 222 763 230 757 q 208 768 214 768 q 193 762 199 768 q 179 748 186 755 q 166 734 173 741 q 149 728 159 728 q 130 732 138 728 q 116 742 121 736 q 107 752 110 747 q 104 755 104 756 l 104 756 q 103 758 104 757 l 97 766 l 98 766 q 90 779 93 772 q 86 796 86 785 q 88 801 86 798 q 92 808 90 804 l 97 811 q 112 847 97 834 q 148 868 127 861 q 188 877 168 875 q 216 879 208 879 q 252 872 231 879 q 292 854 273 865 q 324 831 311 844 q 338 807 338 819 q 338 801 338 805 q 340 794 339 798 l 340 796 l 346 785 q 350 777 348 781 q 351 761 351 774 q 346 727 351 743 q 334 697 340 711 l 334 699 q 326 680 329 688 q 322 668 322 671 q 326 655 322 660 q 334 646 329 651 l 334 647 q 343 633 340 641 q 347 612 347 626 l 351 604 q 356 592 353 599 q 358 579 358 585 z "},"²":{"ha":460,"x_min":69,"x_max":393,"o":"m 79 734 q 78 732 78 733 q 79 734 78 733 m 382 676 l 382 672 q 382 669 382 670 q 383 667 383 668 q 379 653 383 659 q 370 642 375 647 q 361 630 365 636 q 357 616 357 624 q 339 605 346 610 q 328 595 332 600 q 319 583 323 589 q 311 568 316 577 l 304 562 q 293 553 297 557 q 286 543 290 549 q 291 541 288 542 q 297 541 293 541 q 312 543 304 541 q 332 546 319 546 l 343 545 l 343 538 q 366 528 356 538 l 366 529 q 375 507 371 522 q 379 482 379 492 q 366 443 379 454 q 328 432 353 432 q 281 435 304 432 q 236 437 259 437 q 190 434 212 437 q 142 431 167 431 q 118 433 131 431 q 94 441 105 435 q 76 456 83 446 q 69 479 69 465 q 78 504 69 492 l 77 503 q 79 506 77 505 q 81 509 80 507 q 83 513 82 510 q 83 525 83 517 q 104 535 92 526 q 131 557 117 545 q 159 581 145 570 q 183 595 173 591 q 200 613 191 604 q 221 631 210 622 l 241 647 l 240 647 q 251 659 247 654 q 258 668 255 664 q 262 676 260 672 q 267 684 264 680 l 278 701 l 278 724 q 277 736 278 732 q 274 745 277 741 q 266 751 271 748 q 250 760 260 754 q 240 765 245 763 q 232 766 236 766 q 207 755 215 766 q 194 727 199 743 q 185 692 189 710 q 171 660 180 673 q 160 653 165 660 l 149 652 q 123 656 137 652 q 97 668 109 660 q 77 687 85 675 q 69 711 69 698 q 75 747 69 732 q 90 777 81 763 q 112 807 100 791 q 138 844 124 823 q 137 844 136 843 q 136 844 138 844 l 137 845 q 139 848 138 846 l 139 846 q 153 862 139 855 q 184 874 166 869 q 220 881 202 879 q 248 884 238 884 q 275 880 266 884 q 292 871 285 876 q 306 862 299 867 q 326 857 313 858 q 341 834 330 842 q 364 817 353 827 q 385 788 376 806 q 393 732 393 769 q 392 711 393 722 q 389 690 391 701 l 382 676 z "},"¦":{"ha":321,"x_min":68,"x_max":254,"o":"m 225 782 q 228 725 225 753 q 231 668 231 696 q 227 640 231 658 q 217 603 224 621 q 200 572 210 585 q 175 559 189 559 q 138 563 149 559 q 123 572 127 567 q 116 581 118 576 q 104 587 113 586 q 100 613 101 600 q 98 639 98 625 q 100 685 98 662 q 102 730 102 707 q 101 809 102 770 q 100 888 100 848 q 102 910 100 899 q 104 933 104 922 q 94 962 104 951 q 102 984 100 972 q 104 1009 104 996 q 104 1036 104 1023 q 103 1059 103 1048 q 111 1131 103 1096 q 131 1200 119 1165 q 160 1213 146 1207 q 192 1219 174 1219 q 199 1219 196 1219 q 207 1218 203 1219 q 227 1197 218 1210 q 242 1171 236 1185 q 251 1141 248 1156 q 254 1112 254 1126 q 252 1084 254 1098 q 248 1057 250 1071 q 231 919 237 989 q 225 782 225 849 m 221 26 q 217 -70 221 -20 q 203 -165 212 -121 q 198 -188 200 -178 q 192 -207 196 -198 q 181 -222 188 -215 q 163 -237 174 -229 l 134 -237 q 116 -237 125 -237 q 100 -233 107 -237 q 94 -225 98 -226 q 86 -220 90 -224 q 83 -209 83 -214 q 82 -197 84 -203 q 73 -179 79 -188 q 68 -161 68 -171 q 73 -136 68 -148 q 82 -111 79 -125 q 86 -74 85 -94 q 87 -36 87 -55 q 86 -11 87 -24 q 82 14 85 1 q 86 27 84 20 q 87 41 87 34 q 86 52 87 47 q 82 62 84 57 q 89 88 87 75 q 90 114 90 100 q 88 130 90 121 q 86 143 86 138 q 90 157 90 149 q 86 183 90 170 q 82 208 82 196 q 85 243 82 226 q 90 278 89 260 q 90 305 92 292 q 89 332 89 318 q 92 354 89 345 q 99 372 95 363 q 106 388 102 380 q 113 408 111 397 q 139 425 126 416 q 170 433 153 433 q 199 418 189 433 q 215 380 210 402 q 220 336 220 359 q 221 301 221 314 q 218 210 221 255 q 215 118 215 164 q 213 94 215 106 q 211 69 211 82 q 216 48 211 59 q 221 26 221 38 z "},"−":{"ha":766,"x_min":85,"x_max":685,"o":"m 685 493 q 675 466 685 480 q 651 440 665 452 q 621 421 637 429 q 591 414 604 414 q 565 416 578 414 q 538 419 551 419 q 509 417 523 419 q 481 415 495 415 q 470 417 475 415 q 460 419 465 419 q 450 414 452 419 q 443 410 448 410 q 415 415 431 410 q 383 421 399 421 q 347 416 364 421 q 311 411 330 411 q 243 415 277 411 q 175 419 210 419 q 158 418 167 419 q 142 418 150 418 q 114 424 126 418 q 89 437 102 430 q 85 498 85 469 l 85 518 q 139 554 109 545 q 205 562 170 562 q 219 558 213 562 q 233 554 226 554 q 245 556 239 554 q 257 558 251 558 q 279 551 267 558 q 302 545 291 545 q 312 547 308 545 q 322 550 317 550 q 334 548 328 550 q 345 546 339 546 q 360 549 353 546 q 375 551 367 551 q 420 545 399 551 q 465 539 442 539 q 483 541 477 539 q 497 550 489 542 q 504 547 501 550 q 511 545 507 545 q 539 547 525 545 q 568 550 553 550 q 599 546 585 550 q 631 542 614 542 l 636 541 l 644 532 q 659 526 652 528 q 672 519 666 523 q 681 509 677 515 q 685 493 685 503 z "},"!":{"ha":323,"x_min":61,"x_max":260,"o":"m 260 940 q 253 919 252 930 q 250 896 254 907 q 243 876 248 885 q 236 856 238 866 q 234 797 233 826 q 236 739 236 768 q 234 730 236 734 q 232 721 232 726 q 235 702 232 711 q 237 684 237 693 q 234 667 237 675 q 228 651 231 659 q 221 633 224 642 q 218 612 218 623 q 225 562 218 587 q 232 511 232 537 q 227 475 232 492 q 224 439 222 458 q 224 428 224 433 q 225 418 225 423 q 219 387 225 404 q 205 358 214 369 q 210 329 210 344 q 207 296 210 317 q 200 253 205 275 q 188 212 195 231 q 170 189 180 194 q 148 194 159 190 q 130 206 138 199 q 116 223 121 214 q 111 245 111 233 q 113 264 111 255 q 115 282 115 273 q 111 343 115 313 q 107 404 107 373 q 109 439 107 422 q 111 475 111 457 q 108 493 111 484 q 103 511 104 502 q 106 518 104 515 q 107 525 107 522 l 107 529 l 97 542 l 97 545 q 100 563 97 554 q 103 582 103 572 q 97 591 103 589 q 102 622 100 600 q 103 671 103 645 q 103 722 104 697 q 103 758 103 746 q 98 803 103 781 q 93 847 93 825 q 103 882 93 866 q 98 905 98 893 q 97 928 97 916 q 97 976 97 954 q 104 1016 97 999 q 128 1043 111 1033 q 179 1053 145 1053 q 213 1041 200 1053 q 233 1011 225 1029 q 247 975 241 994 q 260 940 253 955 m 237 60 q 234 45 237 52 q 228 32 230 38 q 225 17 226 24 q 223 4 224 10 q 217 -7 221 -1 q 205 -18 214 -12 q 173 -31 191 -28 q 139 -35 156 -35 q 103 -31 119 -35 q 83 -9 92 -19 q 71 18 74 1 q 64 27 66 22 q 61 39 61 33 q 70 69 61 54 q 91 95 78 83 q 120 113 104 106 q 150 119 136 119 q 177 116 162 119 q 205 104 192 112 q 228 85 219 96 q 237 60 237 74 z "},"#":{"ha":815,"x_min":39,"x_max":774,"o":"m 774 639 q 769 616 774 626 q 758 600 765 607 q 742 585 751 592 q 724 571 732 578 q 717 573 720 572 q 710 574 714 574 q 684 568 696 574 q 659 562 672 562 q 640 565 649 562 q 619 567 630 567 q 602 564 607 567 q 595 555 597 561 q 595 542 594 550 q 595 525 595 534 l 595 522 q 583 509 589 516 q 576 493 576 503 q 581 482 576 486 q 604 477 592 477 q 627 476 615 476 q 652 477 637 476 q 675 486 667 479 q 700 478 687 482 q 722 468 712 475 q 737 452 731 462 q 743 427 743 442 q 738 404 743 416 q 723 381 732 391 q 702 363 713 370 q 679 357 690 357 q 670 359 673 357 q 661 361 667 361 q 644 357 653 361 q 622 350 634 354 q 595 344 610 347 q 558 343 579 342 q 548 320 551 334 q 545 289 546 305 q 544 258 544 273 q 541 231 543 242 q 536 220 539 225 q 532 208 533 214 q 532 194 530 201 q 533 179 533 186 q 527 158 533 170 q 513 136 522 146 q 493 117 504 125 q 473 110 483 110 q 454 114 463 110 q 436 123 444 117 q 419 135 427 129 q 401 146 410 141 q 410 237 406 192 q 419 329 414 283 l 410 330 q 384 330 397 331 q 358 327 371 328 q 333 324 346 325 q 307 325 320 323 q 299 318 302 323 q 295 308 296 313 q 294 296 294 302 q 294 285 294 290 q 280 244 284 267 q 271 199 275 222 q 260 156 267 176 q 240 123 254 136 l 236 123 q 233 122 235 123 q 232 119 232 121 q 223 117 228 118 q 214 117 218 117 q 192 120 203 117 q 172 130 181 123 q 156 145 162 136 q 150 165 150 154 q 154 185 150 175 q 160 204 159 195 q 164 240 163 222 q 165 278 165 259 l 164 302 q 150 306 157 306 q 117 300 133 306 q 83 293 101 294 q 51 333 62 310 q 39 383 40 356 q 70 409 51 398 q 111 427 90 420 q 155 437 133 433 q 196 441 177 440 q 199 463 198 452 q 202 485 200 473 q 206 507 203 496 q 214 526 208 517 q 187 528 201 528 q 159 530 173 528 q 132 537 144 532 q 111 553 119 543 q 107 578 107 565 q 113 612 107 595 q 134 639 119 629 l 142 637 q 162 640 153 637 q 180 648 172 644 q 197 656 189 652 q 215 660 205 660 q 224 659 220 660 q 232 657 228 659 q 249 686 244 669 q 255 720 253 702 q 258 756 256 738 q 267 790 260 774 q 265 801 265 795 q 265 811 265 806 q 273 845 265 829 q 290 876 280 862 q 301 878 296 878 q 311 878 306 878 q 364 863 340 878 q 401 822 388 848 q 387 748 395 785 q 375 675 379 711 q 393 672 385 673 q 411 672 401 672 q 443 672 426 672 q 473 675 460 671 q 483 684 479 675 q 490 706 487 693 q 495 735 493 720 q 498 765 497 750 q 499 791 499 779 q 500 808 500 803 q 508 846 500 827 q 522 880 516 864 q 544 888 533 886 q 567 890 555 890 q 586 888 576 890 q 606 882 597 886 q 624 871 616 878 q 635 854 631 864 q 630 806 629 830 q 625 760 631 783 q 621 749 624 755 q 613 737 617 743 q 606 725 609 731 q 603 715 603 720 q 606 704 603 709 q 608 696 608 700 q 603 688 608 690 q 642 687 623 686 q 681 688 661 688 q 725 684 703 688 q 764 665 747 680 q 769 651 764 657 q 774 639 774 645 m 456 558 l 353 545 q 345 525 347 535 q 341 505 342 515 q 339 484 340 494 q 335 464 338 474 q 331 455 334 458 q 326 447 328 452 l 330 441 q 441 460 388 448 q 447 484 446 472 q 449 509 448 496 q 451 533 450 521 q 456 558 452 546 z "},"$":{"ha":504,"x_min":43,"x_max":461,"o":"m 407 511 q 369 524 386 511 q 336 547 351 536 l 336 551 q 330 587 337 570 q 309 619 322 605 q 279 641 296 633 q 241 650 261 650 q 215 640 226 650 q 196 615 203 629 q 185 584 189 600 q 182 555 182 568 q 195 522 182 534 q 225 500 208 509 q 263 485 243 491 q 296 471 282 478 q 316 455 307 465 q 336 439 325 446 q 360 427 348 431 q 385 416 372 422 q 397 400 388 407 q 412 385 407 394 q 419 368 414 381 q 428 341 423 355 q 435 313 432 326 q 439 296 439 300 q 435 269 439 283 q 425 238 431 254 q 411 209 418 223 q 399 183 404 195 q 381 177 389 182 q 368 166 374 172 q 353 156 361 160 q 332 153 345 152 q 310 136 320 145 q 288 121 300 127 l 288 36 q 287 -63 288 -14 q 282 -161 286 -112 q 231 -180 260 -180 q 191 -170 210 -180 q 165 -139 173 -159 q 171 -85 170 -113 q 173 -28 172 -57 q 177 27 174 0 q 193 77 181 54 q 189 84 190 80 q 187 93 187 89 q 190 110 187 102 q 197 125 193 117 q 183 135 196 127 q 153 151 170 142 q 122 165 137 159 q 103 171 107 171 q 94 188 101 181 q 80 201 87 194 q 68 219 73 208 q 62 248 62 229 q 63 264 62 256 q 68 282 64 273 q 93 300 79 294 q 123 306 108 306 q 161 297 144 306 q 193 279 178 289 q 221 260 208 269 q 245 252 234 252 q 278 263 265 252 q 292 293 292 274 q 287 319 292 310 q 275 333 282 328 q 261 343 269 338 q 248 358 253 348 q 224 364 235 360 q 201 368 214 368 q 193 376 195 372 q 189 382 191 380 q 182 387 186 385 q 170 389 178 389 q 162 391 167 389 q 151 398 157 394 q 138 405 145 401 q 125 408 131 408 q 103 435 117 424 q 77 457 89 446 l 77 461 q 72 485 77 474 q 61 506 67 495 q 48 529 54 517 q 43 559 43 542 q 47 601 43 581 q 54 640 52 621 q 59 656 55 650 q 67 668 62 663 q 74 681 71 674 q 77 699 77 688 q 108 722 96 709 q 132 747 120 736 q 161 766 144 759 q 205 771 178 774 q 211 785 211 777 q 211 802 211 793 q 213 877 211 839 q 215 954 215 916 q 212 997 215 975 q 210 1039 210 1018 q 225 1087 210 1067 q 271 1107 240 1107 q 309 1100 298 1107 q 325 1082 320 1093 q 332 1057 329 1071 q 345 1031 334 1044 q 337 984 337 1007 q 336 936 338 962 q 334 923 336 930 q 332 909 332 916 q 334 896 332 902 q 336 882 336 889 q 333 869 336 876 q 328 856 329 862 q 325 815 324 836 q 322 775 326 795 q 334 765 325 771 q 356 752 344 759 q 378 740 368 746 q 395 730 389 734 q 401 724 397 728 q 408 713 404 719 q 415 703 411 708 q 421 694 418 697 q 442 668 434 679 q 454 647 450 658 q 460 623 458 637 q 461 587 461 609 q 460 562 461 574 q 453 538 458 549 q 445 534 452 535 q 435 529 438 532 q 429 522 431 525 q 426 516 428 518 q 420 513 425 514 q 407 511 416 511 z "},"%":{"ha":974,"x_min":40,"x_max":935,"o":"m 332 446 q 305 433 319 439 q 276 420 290 426 q 248 411 261 414 q 224 407 234 407 q 175 417 198 407 q 134 440 153 427 q 101 466 115 453 q 79 486 87 479 l 74 492 q 45 550 63 527 l 45 566 q 42 606 45 585 q 40 648 40 627 q 41 664 40 657 q 44 677 43 671 q 48 689 46 683 q 52 703 50 695 l 52 736 q 60 760 52 750 q 78 780 68 770 q 99 799 89 789 q 114 822 109 808 q 131 828 123 824 q 144 836 138 831 q 156 843 150 840 q 170 846 162 846 q 189 849 182 846 q 202 856 195 852 q 216 863 208 860 q 236 867 223 867 q 253 866 245 867 q 271 860 261 865 l 269 861 q 283 860 275 859 q 301 860 292 861 q 322 853 311 859 q 346 832 333 848 q 384 788 366 809 q 411 746 401 768 q 413 736 411 745 q 416 716 414 728 q 421 691 418 705 q 425 665 423 677 q 428 644 427 653 q 429 633 429 635 q 427 611 429 629 q 420 575 424 594 q 413 538 416 555 q 407 517 409 522 q 398 505 404 511 q 388 492 393 498 q 377 480 382 486 q 370 465 372 473 l 332 446 m 713 823 q 704 788 713 802 q 686 762 696 774 q 667 738 675 751 q 659 707 659 726 q 656 693 659 697 q 651 684 654 689 q 642 671 647 680 q 631 643 637 662 q 624 624 631 634 q 610 602 618 613 q 595 579 602 591 q 589 557 589 568 q 586 542 589 549 q 581 529 584 535 q 576 521 578 524 q 574 519 574 518 l 574 504 q 570 491 574 496 q 562 481 566 486 q 554 471 557 477 q 550 457 550 466 q 551 455 550 456 q 551 452 551 454 q 536 441 542 447 q 527 429 530 435 q 520 417 523 422 q 513 407 517 411 l 513 403 q 507 374 513 391 q 490 342 500 357 l 490 328 l 484 322 q 476 310 480 317 q 467 297 472 304 l 467 298 q 456 281 460 290 q 448 260 452 271 q 437 235 444 248 q 421 205 431 221 l 408 187 q 402 179 404 181 q 399 174 401 177 q 395 164 397 171 q 385 140 392 157 l 361 97 q 351 81 355 90 q 343 60 347 73 q 327 53 331 58 q 318 40 322 47 q 309 28 315 33 q 289 22 303 22 q 267 26 278 22 q 248 36 256 29 q 234 52 239 42 q 229 74 229 61 q 233 94 229 85 q 243 109 237 102 l 250 118 q 253 125 252 122 q 256 133 254 129 q 259 141 257 136 q 267 151 262 145 l 268 153 q 275 165 273 160 q 278 175 277 170 l 285 196 l 297 220 q 324 276 313 250 q 353 322 336 301 l 357 332 q 358 340 357 338 q 359 349 359 342 l 359 353 q 409 420 392 380 q 436 501 427 460 q 455 521 448 510 q 468 544 463 532 q 477 567 473 555 q 486 586 481 578 q 494 603 490 593 q 497 625 497 612 l 497 631 q 509 649 500 635 q 529 681 519 664 q 549 714 540 699 q 562 736 559 730 l 562 747 q 564 753 562 751 q 570 760 565 755 l 570 758 q 576 781 574 768 q 579 810 577 795 q 588 840 582 825 q 610 867 594 854 l 608 867 l 614 871 l 614 869 l 631 893 l 646 900 l 644 900 q 653 904 648 902 q 665 905 658 905 q 681 900 673 905 q 695 888 688 895 q 707 873 702 881 q 713 859 711 865 l 713 823 m 214 746 q 213 745 213 746 q 212 743 212 745 q 201 735 209 743 q 185 714 193 726 q 169 691 176 703 q 157 672 161 679 l 157 640 q 156 632 157 636 q 155 624 155 628 q 161 591 155 603 q 180 567 166 578 l 180 568 q 184 565 182 567 q 187 561 185 562 l 201 546 q 207 541 205 544 q 212 534 209 537 l 211 536 q 235 533 226 533 q 264 542 252 533 q 289 562 276 551 l 304 576 q 307 589 306 582 q 309 604 308 597 q 310 619 309 612 q 310 631 310 626 q 308 667 310 647 q 299 705 307 688 q 277 734 292 722 q 235 746 262 746 l 214 746 m 838 107 q 811 94 825 101 q 781 81 796 87 q 753 72 766 75 q 729 68 739 68 q 681 78 703 68 q 639 101 658 87 q 607 127 621 114 q 585 147 593 140 l 579 153 q 550 211 569 187 l 550 227 q 548 268 550 246 q 546 310 546 289 q 550 338 546 328 q 557 364 553 349 l 557 397 q 565 421 557 412 q 584 440 573 431 q 604 460 594 450 q 619 484 614 470 q 636 489 629 485 q 649 497 643 493 q 662 504 656 501 q 675 507 667 507 q 694 510 687 507 q 707 517 701 513 q 721 525 713 522 q 742 528 728 528 q 759 527 750 528 q 777 521 767 526 l 775 522 q 789 521 781 520 q 806 521 797 522 q 827 514 816 520 q 851 493 838 509 q 889 449 871 470 q 917 407 907 429 q 919 397 917 406 q 922 377 920 389 q 926 352 924 366 q 930 326 928 338 q 933 305 932 314 q 935 294 935 296 q 932 273 935 290 q 926 236 929 256 q 919 200 922 217 q 913 178 915 182 q 893 154 906 165 q 875 126 880 142 l 838 107 m 720 407 q 719 406 719 407 q 718 404 718 406 q 706 396 714 404 q 690 376 699 387 q 674 352 682 364 q 663 334 666 340 l 663 301 q 662 293 663 297 q 661 285 661 289 q 666 252 661 264 q 686 228 671 239 l 686 229 q 690 226 688 228 q 693 222 691 224 l 707 207 q 712 201 710 205 q 718 196 715 198 l 717 197 q 729 195 723 196 q 741 195 735 195 q 770 203 758 195 q 794 224 782 212 l 810 237 q 812 251 811 243 q 814 266 813 258 q 815 280 814 273 q 815 292 815 287 q 813 329 815 309 q 805 366 812 349 q 783 395 798 383 q 741 407 768 407 l 720 407 z "},"&":{"ha":854,"x_min":24,"x_max":817,"o":"m 817 33 q 810 13 817 23 q 793 -4 803 3 q 771 -17 783 -12 q 749 -21 759 -21 q 721 -16 734 -21 q 696 -1 707 -10 q 676 21 685 8 q 664 47 668 33 q 627 62 645 53 q 597 87 609 71 q 582 82 589 87 q 570 72 576 78 q 559 59 565 65 q 547 47 554 52 q 532 40 540 42 q 517 33 524 39 q 493 11 503 24 q 467 -11 482 -3 q 452 -16 463 -13 q 427 -23 440 -20 q 400 -29 413 -26 q 382 -33 388 -32 l 378 -29 l 374 -33 q 351 -34 362 -35 q 328 -33 339 -33 q 303 -35 315 -33 q 277 -37 290 -37 q 252 -33 264 -37 q 247 -27 250 -29 q 240 -22 243 -24 q 235 -16 237 -20 q 235 -7 233 -13 q 217 -2 225 -5 q 201 6 209 2 q 185 13 193 10 q 167 17 177 16 q 118 61 151 46 q 86 103 101 81 q 50 142 71 125 l 52 147 q 50 164 52 158 q 44 175 47 170 q 38 184 41 180 q 32 195 35 188 q 31 207 31 201 q 31 220 31 214 q 29 233 31 227 q 24 244 28 239 q 34 275 34 258 q 33 309 33 293 q 35 329 33 319 q 41 347 36 339 q 36 368 40 357 q 32 389 32 378 l 32 392 q 42 406 39 398 q 41 424 45 414 q 77 456 63 436 q 100 500 90 477 q 123 520 113 509 q 140 545 133 531 q 158 551 151 546 q 174 561 166 555 q 188 573 181 567 q 203 585 195 579 q 221 593 211 590 q 239 603 231 597 q 252 615 246 608 q 265 625 257 622 q 250 660 256 640 q 239 701 243 680 q 234 743 235 722 q 232 782 232 764 q 232 805 232 790 q 232 838 232 821 q 233 869 232 854 q 235 889 233 883 q 240 903 236 897 q 248 917 244 909 q 250 925 250 921 q 252 935 250 929 q 260 951 254 943 q 270 968 265 960 q 279 985 275 977 q 283 1002 283 994 q 310 1022 297 1011 q 334 1046 323 1032 q 341 1048 338 1046 q 346 1055 345 1050 l 354 1054 q 381 1055 368 1053 q 407 1059 394 1057 q 433 1063 420 1061 q 460 1065 446 1065 q 561 1050 510 1065 q 586 1022 572 1036 q 610 993 600 1008 q 641 929 629 962 q 653 861 653 897 q 650 839 653 850 q 643 817 647 827 q 637 796 640 806 q 637 778 635 786 q 627 764 632 770 q 618 752 622 758 q 611 739 614 746 q 610 720 609 731 q 592 696 600 709 q 579 669 585 683 q 541 643 559 657 q 506 613 523 629 q 471 583 488 598 q 436 553 454 567 q 443 536 437 543 q 454 523 448 529 q 467 511 460 517 q 476 496 473 505 q 499 469 489 484 q 525 446 509 454 q 533 422 525 435 q 551 398 541 410 q 570 380 561 387 q 583 374 580 372 l 583 371 q 587 359 583 367 q 596 343 591 351 q 606 328 601 335 q 615 321 612 321 q 633 350 626 334 q 642 383 640 366 q 648 387 646 384 q 653 392 650 389 q 658 398 655 395 q 664 401 661 400 q 667 420 664 412 q 675 435 671 428 q 683 450 680 443 q 686 468 686 458 q 715 490 701 479 q 749 500 730 500 q 762 497 756 500 q 774 491 768 494 q 786 483 780 487 q 799 478 792 479 q 802 445 800 461 q 804 414 804 429 q 798 375 804 394 q 783 339 792 357 q 765 303 774 321 q 749 267 755 285 q 739 251 745 258 q 725 237 732 243 q 713 222 718 230 q 708 204 708 214 q 714 182 708 192 q 728 164 720 172 q 745 148 736 155 q 762 132 755 140 q 774 107 766 118 q 793 85 783 96 q 809 62 802 74 q 817 33 817 50 m 517 893 q 510 911 517 903 q 492 924 503 918 q 471 932 482 929 q 453 935 460 935 l 449 935 q 413 895 431 915 q 374 859 395 875 q 368 813 372 836 q 364 768 364 791 q 368 750 364 758 q 374 732 372 743 q 374 717 375 724 q 372 703 372 710 q 378 684 372 691 q 391 686 386 683 q 400 693 396 689 q 410 701 405 697 q 422 705 415 705 q 435 732 426 720 q 458 750 444 744 q 466 771 460 762 q 477 787 471 779 q 491 802 484 794 q 504 821 498 810 q 513 850 509 833 q 517 893 517 867 m 521 215 q 514 231 521 224 q 503 244 508 237 q 489 266 494 255 q 476 289 483 277 q 471 294 474 292 q 467 298 469 295 q 463 312 463 304 q 458 325 463 319 q 445 335 453 332 q 431 343 437 338 q 427 350 429 347 q 422 357 425 353 q 405 375 414 366 q 388 393 396 384 q 373 414 379 403 q 364 437 366 425 q 351 448 356 441 q 341 461 346 454 q 330 473 336 468 q 314 478 324 478 q 279 468 294 478 q 272 453 277 460 q 261 441 267 447 q 250 431 256 436 q 239 419 244 425 q 226 396 231 410 q 215 370 221 383 q 202 345 210 356 q 184 329 195 334 q 187 325 186 327 q 187 321 187 323 q 184 307 187 313 q 180 293 180 300 q 182 282 180 288 q 184 271 184 277 q 184 250 184 260 q 183 229 183 239 q 191 184 183 199 q 210 160 199 170 q 230 143 220 151 q 243 119 239 135 q 256 113 248 117 q 275 103 265 108 q 293 95 284 99 q 306 92 302 92 q 320 99 314 92 q 334 106 327 106 q 342 102 338 106 q 348 104 345 102 q 355 106 351 106 q 381 109 371 107 q 400 113 391 111 q 417 120 408 116 q 440 132 426 125 q 450 137 442 134 q 458 142 457 140 q 460 147 460 144 q 463 154 460 151 q 470 163 465 159 q 480 171 475 167 q 487 180 484 175 q 489 191 490 184 q 507 198 501 192 q 521 212 513 205 l 521 215 z "},"'":{"ha":306,"x_min":66,"x_max":245,"o":"m 245 888 q 239 867 243 877 q 232 847 234 858 q 236 840 234 844 q 237 833 237 837 q 235 827 237 829 q 232 819 232 824 q 235 807 232 813 q 237 794 237 801 q 234 779 237 791 q 225 753 230 768 q 217 723 221 738 q 214 699 214 708 q 216 679 214 689 q 218 660 218 669 q 217 648 218 656 q 212 633 215 641 q 207 618 210 625 q 201 610 204 612 q 204 602 203 606 q 204 593 204 597 q 199 566 204 579 q 187 542 195 552 q 166 536 177 538 q 143 534 155 534 q 127 536 135 534 q 111 542 119 538 q 105 563 108 547 q 100 595 102 578 q 96 629 97 613 q 94 653 94 646 q 90 683 94 667 q 85 720 85 698 q 82 736 85 728 q 76 753 79 745 q 69 769 72 761 q 66 786 66 777 q 68 801 66 793 q 71 815 71 808 q 68 838 71 827 q 66 860 66 849 q 68 883 66 871 q 71 905 69 894 q 72 927 72 916 q 71 950 73 939 q 80 959 77 954 q 87 971 84 965 q 93 984 90 978 q 103 994 97 990 q 110 997 107 997 q 114 997 112 997 q 120 1000 117 998 q 129 1008 123 1002 q 139 1010 134 1010 q 150 1011 144 1011 q 173 1009 161 1011 q 197 1003 184 1006 q 214 981 205 991 q 232 958 222 970 q 233 941 233 950 q 235 922 234 931 q 238 903 236 912 q 245 888 241 895 z "},"(":{"ha":468,"x_min":43,"x_max":468,"o":"m 406 1031 q 389 1021 398 1023 q 370 1013 379 1018 q 359 995 369 1008 q 337 967 349 982 q 314 941 325 953 q 298 928 302 929 q 301 920 301 922 q 295 910 301 914 q 285 900 288 905 q 281 885 281 892 q 277 869 280 877 q 262 846 269 856 q 251 826 256 836 q 242 805 245 817 q 240 775 239 793 q 213 731 221 751 q 202 692 205 711 q 199 652 199 673 q 196 604 199 631 q 190 579 194 591 q 186 553 186 568 q 189 516 186 534 q 192 479 192 498 q 186 439 192 458 q 180 399 180 420 q 185 372 180 384 q 191 345 189 359 q 193 296 194 321 q 196 245 192 271 q 200 224 197 238 q 207 196 203 211 q 215 169 211 182 q 222 149 219 155 q 227 142 224 144 q 232 135 230 139 q 238 111 236 123 q 244 85 240 98 q 250 78 247 81 q 254 72 252 75 q 256 63 256 68 q 258 54 256 58 q 280 14 267 33 q 302 -26 293 -5 q 316 -41 307 -31 q 338 -66 326 -52 q 363 -97 350 -81 q 388 -128 376 -113 q 408 -154 399 -142 q 419 -170 416 -165 q 400 -213 411 -191 q 370 -250 389 -235 q 327 -243 344 -246 q 298 -237 310 -241 q 279 -229 287 -234 q 263 -213 271 -223 q 247 -188 256 -203 q 227 -147 239 -172 q 213 -119 220 -135 q 196 -94 206 -104 q 195 -88 195 -91 q 196 -83 196 -85 l 196 -81 l 186 -71 q 186 -66 186 -68 q 187 -61 187 -63 q 183 -54 187 -56 q 178 -49 180 -52 q 169 -31 172 -41 q 160 -14 165 -21 q 143 6 153 -2 q 127 26 133 15 q 124 47 124 37 q 123 68 123 58 q 109 95 118 75 q 90 137 99 115 q 74 180 81 159 q 65 211 66 201 q 62 240 63 226 q 57 269 61 255 q 53 278 55 275 q 50 284 52 281 q 48 290 49 287 q 47 300 47 294 q 50 329 47 315 q 53 358 53 344 q 48 386 53 373 q 43 412 43 399 q 45 435 43 424 q 47 457 47 446 q 47 491 49 475 q 46 525 46 508 q 50 553 46 540 q 57 577 53 566 q 67 602 62 589 q 75 628 72 614 q 79 663 79 646 q 79 696 79 680 q 84 728 80 712 q 102 761 89 745 l 102 768 q 103 786 101 774 q 107 812 104 799 q 113 838 110 826 q 119 856 117 850 q 129 871 123 865 q 139 881 134 876 q 147 892 144 886 q 150 911 150 899 q 154 916 150 911 q 162 926 157 920 q 172 939 167 932 q 178 950 176 945 q 182 977 182 962 q 191 1003 183 991 q 202 1020 199 1016 q 207 1025 205 1024 q 211 1025 209 1025 q 218 1031 213 1025 q 222 1043 222 1034 q 227 1057 222 1052 q 240 1070 232 1065 q 254 1084 248 1076 q 266 1103 259 1091 q 280 1126 273 1114 q 296 1149 288 1138 q 313 1165 304 1160 q 321 1166 316 1167 q 329 1169 326 1166 q 334 1176 334 1172 q 339 1182 335 1180 q 351 1185 342 1184 q 366 1187 360 1185 q 383 1195 376 1191 q 401 1198 390 1198 q 424 1193 412 1198 q 445 1180 435 1188 q 461 1161 455 1172 q 468 1139 468 1150 q 459 1114 468 1126 q 440 1088 451 1101 q 418 1060 429 1074 q 406 1031 408 1046 z "},"*":{"ha":730,"x_min":54,"x_max":689,"o":"m 689 758 q 682 727 689 737 q 667 710 675 717 q 649 695 658 703 q 637 672 641 687 q 602 654 621 666 q 564 629 583 642 q 526 608 545 617 q 493 599 508 599 q 478 601 484 599 q 467 607 472 604 q 459 612 463 610 q 450 614 455 614 q 443 635 449 625 q 436 657 436 646 q 443 672 436 662 q 460 696 450 683 q 483 725 471 710 q 508 753 496 740 q 529 778 519 767 q 543 793 539 788 q 550 797 547 796 q 557 802 553 798 q 567 821 562 810 q 579 838 571 832 q 592 844 583 841 q 606 847 602 847 q 617 845 610 847 q 629 842 625 844 l 633 833 q 638 833 635 832 q 644 833 641 833 q 654 827 648 833 q 667 811 661 820 q 678 794 673 802 q 686 783 684 786 q 689 771 688 778 q 689 758 689 764 m 441 899 q 440 870 441 888 q 435 832 438 851 q 426 795 431 812 q 414 771 421 779 q 416 743 415 758 q 418 715 418 729 q 414 686 418 699 q 407 679 412 683 q 400 672 402 675 q 383 652 391 660 q 358 644 376 644 q 352 644 355 644 q 346 646 349 644 q 334 661 338 652 q 327 680 330 669 q 321 700 324 690 q 311 717 318 709 q 310 752 309 734 q 311 787 311 770 q 308 820 311 805 q 301 851 304 835 q 300 878 300 865 q 301 905 301 892 q 300 927 301 916 q 298 950 298 939 q 303 970 298 960 q 311 990 308 980 q 319 994 312 991 q 335 1002 326 998 l 358 1013 q 389 1002 375 1013 q 418 986 404 992 q 428 964 424 974 q 436 944 433 954 q 440 923 439 934 q 441 899 441 912 m 579 363 q 575 343 579 352 q 565 326 571 334 q 552 310 559 317 q 539 296 545 303 l 525 294 q 479 303 496 293 q 452 329 462 313 q 436 364 441 345 q 427 402 431 384 q 417 436 422 421 q 400 457 411 451 l 400 463 q 401 469 400 466 q 404 475 403 471 q 393 488 398 477 q 385 511 389 498 q 380 536 382 524 q 378 555 378 549 q 392 562 386 557 q 403 571 397 566 q 415 579 409 576 q 431 583 421 583 l 436 582 q 459 562 448 572 q 485 547 470 551 q 493 527 487 536 q 505 509 498 517 q 518 491 512 500 q 525 471 524 482 q 539 461 531 465 q 553 453 547 458 q 558 430 553 441 q 567 408 562 419 q 575 386 572 397 q 579 363 579 375 m 306 659 q 300 626 301 644 q 293 596 300 608 q 281 592 287 593 q 268 593 275 592 q 255 593 262 593 q 243 591 249 593 q 201 614 224 606 q 153 630 177 623 q 108 648 130 637 q 74 676 87 658 q 69 687 71 681 q 64 699 67 693 q 57 717 60 708 q 54 736 54 726 q 57 753 54 747 q 68 766 60 759 q 70 780 70 771 q 74 793 71 789 q 79 795 76 795 q 86 798 83 795 q 95 806 92 801 q 106 811 98 811 q 127 809 115 811 q 150 803 138 807 q 172 794 161 800 q 191 783 182 789 l 195 775 l 203 775 l 207 766 l 216 766 q 219 760 219 763 q 221 753 219 756 q 231 742 223 749 q 247 726 238 734 q 263 710 255 718 q 275 703 271 703 q 288 679 279 688 q 306 659 297 670 m 342 528 q 341 509 342 515 q 338 500 340 503 q 332 494 336 497 q 323 484 328 491 q 322 475 321 479 q 319 467 323 470 q 300 446 312 454 q 279 425 288 437 q 274 416 276 420 q 271 408 273 412 q 235 362 253 385 q 199 318 216 340 q 190 314 197 316 q 176 309 184 311 q 161 306 168 307 q 150 304 154 304 q 135 311 144 304 q 117 327 126 318 q 102 346 109 336 q 96 361 96 355 q 98 367 96 364 q 100 372 100 369 q 97 376 98 374 q 96 380 96 378 q 100 392 96 387 q 110 402 104 397 q 121 415 116 408 q 126 431 125 421 q 137 437 132 432 q 146 448 142 442 q 155 460 151 454 q 163 471 159 467 q 172 475 167 474 q 180 479 176 476 q 209 505 195 491 q 239 529 222 519 q 248 533 243 531 q 257 538 253 534 q 268 547 263 543 q 277 556 273 552 q 288 563 282 560 q 302 566 294 566 q 321 560 313 566 q 338 551 329 555 l 338 549 q 342 542 338 544 l 342 528 z "},"+":{"ha":766,"x_min":39,"x_max":728,"o":"m 728 497 q 718 465 728 478 q 697 437 709 451 q 644 423 670 432 q 590 414 618 414 q 557 419 572 414 q 525 424 542 424 q 500 422 513 424 q 475 418 488 420 q 450 415 463 416 q 425 415 437 414 q 419 401 419 409 q 422 385 419 393 q 425 370 425 378 q 423 365 425 368 q 421 357 421 362 q 425 338 421 347 q 429 318 429 328 q 427 292 429 304 q 425 267 425 279 q 427 244 425 255 q 429 222 429 234 q 414 166 429 191 q 375 123 399 142 q 338 135 357 129 q 304 154 318 140 q 297 192 296 172 q 298 229 298 212 q 294 279 298 254 q 290 329 290 304 q 292 353 290 342 q 294 378 294 365 q 290 401 294 391 q 267 408 279 407 q 241 410 254 410 q 199 408 220 410 q 157 406 178 406 q 103 412 128 406 q 53 432 78 419 q 43 462 47 447 q 39 493 39 477 q 40 508 39 498 q 45 522 41 517 q 60 534 47 527 q 86 549 72 542 q 115 562 101 556 q 134 567 128 567 q 149 565 141 567 q 163 560 156 562 q 179 555 171 557 q 195 553 186 553 q 240 557 218 553 q 286 558 263 562 q 294 578 292 567 q 296 600 296 589 q 295 623 296 611 q 294 644 294 634 q 296 671 294 658 q 298 699 298 685 q 294 723 298 711 q 290 747 290 734 q 298 784 290 764 q 313 818 305 804 q 329 824 321 820 q 346 832 337 828 q 362 839 354 836 q 378 842 370 842 q 386 842 382 842 q 393 840 390 842 l 397 831 q 404 831 401 831 q 408 832 406 832 q 419 821 412 832 q 434 795 427 810 q 446 768 441 781 q 452 750 452 755 q 446 723 452 736 q 437 697 439 710 q 437 681 436 689 q 439 664 439 672 q 433 622 439 643 q 428 579 428 601 q 428 571 428 575 q 429 562 428 567 q 445 559 437 560 q 460 558 452 558 q 501 562 481 558 q 510 567 506 564 q 518 571 515 571 q 530 569 524 571 q 542 567 535 567 q 590 568 566 567 q 640 568 615 568 q 677 564 659 568 q 711 549 696 560 q 723 524 718 536 q 728 497 728 513 z "},",":{"ha":380,"x_min":83,"x_max":285,"o":"m 285 -5 q 265 -88 285 -50 q 215 -157 245 -125 q 185 -182 201 -170 q 158 -210 170 -194 l 154 -210 q 136 -212 144 -210 q 119 -214 128 -214 q 104 -210 111 -214 q 90 -187 97 -199 q 83 -161 83 -175 q 92 -130 83 -142 q 112 -108 101 -118 q 132 -86 123 -98 q 140 -57 140 -75 q 137 -38 140 -45 q 129 -25 134 -31 q 119 -14 124 -20 q 109 0 113 -9 l 109 14 q 114 50 107 35 q 126 85 120 66 q 164 102 147 95 q 204 109 180 109 q 219 105 211 109 q 236 96 228 101 q 251 84 244 90 q 261 72 258 77 q 266 57 264 66 q 269 40 267 47 q 276 28 273 32 q 281 20 279 24 q 284 11 283 16 q 285 -5 285 5 z "},"-":{"ha":761,"x_min":82,"x_max":682,"o":"m 682 493 q 672 466 682 480 q 648 440 663 452 q 618 421 634 429 q 589 414 602 414 q 562 416 575 414 q 534 419 548 419 q 506 417 520 419 q 478 415 492 415 q 468 417 473 415 q 457 419 463 419 q 447 414 450 419 q 440 410 444 410 q 412 415 429 410 q 380 421 396 421 q 345 416 361 421 q 309 411 328 411 q 241 415 275 411 q 172 419 207 419 q 156 418 164 419 q 139 418 147 418 q 111 424 123 418 q 86 437 99 430 q 82 498 82 469 l 82 518 q 136 554 106 545 q 203 562 167 562 q 217 558 210 562 q 231 554 223 554 q 242 556 237 554 q 254 558 248 558 q 276 551 264 558 q 300 545 288 545 q 310 547 305 545 q 319 550 314 550 q 331 548 326 550 q 342 546 336 546 q 357 549 350 546 q 372 551 363 551 q 418 545 396 551 q 463 539 439 539 q 480 541 474 539 q 494 550 486 542 q 501 547 498 550 q 509 545 504 545 q 536 547 522 545 q 566 550 551 550 q 596 546 582 550 q 628 542 611 542 l 633 541 l 642 532 q 656 526 649 528 q 669 519 663 523 q 679 509 675 515 q 682 493 682 503 z "},".":{"ha":326,"x_min":79,"x_max":248,"o":"m 248 32 q 240 -6 248 12 q 232 -45 233 -25 q 201 -62 218 -57 q 165 -66 183 -66 q 127 -62 146 -66 q 110 -43 118 -54 q 95 -18 101 -31 q 84 9 88 -5 q 79 36 80 23 q 82 37 81 36 q 83 39 83 37 q 82 43 83 42 q 81 49 81 43 q 90 78 81 66 q 113 98 99 90 q 142 109 126 105 q 171 113 157 113 q 199 105 185 113 q 223 86 212 98 q 241 60 234 74 q 248 32 248 45 z "},"/":{"ha":664,"x_min":33,"x_max":627,"o":"m 625 956 q 618 917 625 932 q 600 889 610 901 q 579 864 590 876 q 562 836 568 852 q 557 812 557 825 q 553 786 557 799 q 537 759 547 771 q 522 732 528 747 q 519 721 520 726 q 517 710 519 715 q 497 675 509 692 q 472 643 485 658 q 468 619 469 631 q 464 595 468 606 q 457 585 462 588 q 450 576 452 582 q 449 565 448 571 q 450 555 450 559 q 446 541 450 547 q 436 527 441 534 q 427 513 431 520 q 424 496 422 505 q 409 484 415 491 q 397 469 402 477 q 386 452 391 460 q 374 437 380 444 l 374 429 q 369 396 375 414 q 355 366 363 378 q 351 361 353 362 q 347 357 349 360 q 347 349 346 353 q 347 342 347 345 l 347 339 l 338 334 q 330 317 334 325 q 319 302 326 310 q 303 275 310 290 q 289 245 296 260 q 276 215 283 231 q 261 186 269 200 q 246 164 255 174 q 231 142 237 153 q 215 105 221 124 q 199 69 208 87 q 179 39 190 54 q 164 7 168 24 q 146 -3 152 5 q 136 -18 141 -10 q 125 -32 132 -26 q 102 -39 118 -39 q 77 -35 90 -39 q 55 -24 65 -31 q 39 -6 45 -17 q 33 18 33 5 q 37 36 33 28 q 44 50 40 44 q 53 60 49 56 q 60 69 58 64 q 62 80 63 75 q 65 92 62 86 q 76 108 69 101 q 87 123 82 115 q 94 141 92 132 q 100 160 96 151 q 135 229 117 195 q 168 298 153 263 q 180 318 174 311 q 195 334 186 324 l 195 340 q 198 352 195 348 q 199 366 201 357 q 234 405 218 383 q 260 450 249 426 q 279 498 271 473 q 293 549 288 524 q 311 565 304 557 q 322 583 318 574 q 330 602 327 592 q 338 625 334 612 q 348 647 342 637 q 358 665 353 656 q 367 684 363 673 q 370 710 370 694 q 378 723 372 713 q 393 748 385 734 q 412 778 402 762 q 430 808 421 793 q 444 832 438 822 q 450 844 450 842 q 451 852 452 848 q 450 860 450 856 q 453 866 450 864 q 458 871 456 867 q 467 898 465 883 q 470 927 469 912 q 475 957 472 942 q 486 983 478 971 q 499 998 492 991 q 513 1010 506 1004 q 524 1024 519 1017 q 534 1038 528 1031 q 553 1045 545 1040 q 572 1051 562 1051 q 588 1045 580 1051 q 605 1031 597 1040 q 618 1014 612 1023 q 625 997 623 1004 q 626 976 627 987 q 625 956 625 965 z "},"<":{"ha":578,"x_min":39,"x_max":519,"o":"m 519 125 q 514 115 519 122 q 500 100 508 108 q 486 85 493 92 q 475 77 478 78 q 465 75 471 75 q 453 72 458 75 q 446 65 448 68 q 436 62 444 62 q 415 67 425 62 q 396 80 405 73 q 377 95 387 87 q 359 109 368 102 q 348 127 357 115 q 326 156 339 140 q 296 190 312 172 q 265 223 280 208 q 238 252 250 239 q 221 269 227 264 q 206 282 214 276 q 193 296 199 288 q 186 310 189 302 q 181 326 183 318 q 175 340 178 333 q 167 354 172 348 q 145 379 157 365 q 118 406 132 393 q 90 431 104 420 q 64 449 76 443 q 48 494 58 472 q 39 541 39 517 q 42 562 39 554 q 51 576 45 570 q 63 589 56 583 q 77 604 70 595 q 81 612 80 608 q 86 618 83 616 q 95 621 90 621 q 104 623 100 620 q 111 629 109 625 q 117 636 114 633 q 124 642 120 640 q 135 646 128 645 q 151 660 143 656 q 166 668 158 664 q 183 683 174 673 q 203 717 192 693 q 222 732 214 723 q 239 750 231 741 q 256 768 247 760 q 279 779 266 776 q 286 795 283 787 q 292 811 288 803 q 319 832 307 819 q 346 856 331 845 q 355 860 350 859 q 364 865 359 861 q 369 871 368 867 q 372 878 370 874 q 384 888 378 884 q 397 895 391 892 q 410 902 404 899 q 422 909 416 905 q 427 914 425 912 q 431 918 429 916 q 436 919 434 920 q 441 918 438 918 q 450 923 447 918 q 461 928 453 928 l 467 928 q 481 909 475 917 q 492 892 488 901 q 500 874 497 884 q 503 848 503 863 q 497 837 503 848 q 484 813 491 826 q 470 788 476 800 q 463 775 463 777 q 448 763 460 772 q 422 742 436 753 q 395 722 408 730 q 382 713 383 713 q 373 696 379 703 q 359 684 366 690 q 345 671 351 678 q 336 654 338 665 q 299 625 315 642 q 266 591 282 608 q 232 556 250 573 q 193 529 215 540 q 208 498 198 511 q 229 472 217 484 q 253 449 240 460 q 279 425 267 437 q 285 412 279 422 q 298 391 291 402 q 313 370 306 380 q 323 358 320 361 q 334 350 328 353 q 347 343 340 347 q 358 336 353 340 q 368 328 364 332 q 373 319 372 323 q 376 310 374 314 q 389 293 378 307 q 412 261 399 278 q 436 231 425 245 q 449 215 447 217 q 469 202 457 207 q 489 189 481 197 q 493 180 492 184 q 498 171 494 175 q 513 151 507 159 q 519 125 519 142 z "},"=":{"ha":766,"x_min":85,"x_max":685,"o":"m 685 354 q 675 327 685 341 q 651 302 665 313 q 621 283 637 290 q 591 275 604 275 q 565 278 578 275 q 538 281 551 281 q 509 279 523 281 q 481 277 495 277 q 470 279 475 277 q 460 281 465 281 q 450 276 452 281 q 443 271 448 271 q 415 276 431 271 q 383 282 399 282 q 347 277 364 282 q 311 272 330 272 q 243 276 277 272 q 175 281 210 281 q 158 280 167 281 q 142 279 150 279 q 114 285 126 279 q 89 298 102 291 q 85 359 85 330 l 85 379 q 139 415 109 406 q 205 424 170 424 q 219 419 213 424 q 233 415 226 415 q 245 417 239 415 q 257 419 251 419 q 279 412 267 419 q 302 406 291 406 q 312 408 308 406 q 322 411 317 411 q 334 409 328 411 q 345 407 339 407 q 360 410 353 407 q 375 412 367 412 q 420 406 399 412 q 465 400 442 400 q 483 401 477 400 q 497 411 489 403 q 504 408 501 411 q 511 406 507 406 q 539 408 525 406 q 568 411 553 411 q 599 407 585 411 q 631 403 614 403 l 636 401 l 644 393 q 659 387 652 390 q 672 380 666 384 q 681 370 677 376 q 685 354 685 363 m 685 632 q 675 605 685 619 q 651 579 665 591 q 621 560 637 568 q 591 553 604 553 q 565 555 578 553 q 538 558 551 558 q 509 556 523 558 q 481 554 495 554 q 470 556 475 554 q 460 558 465 558 q 450 553 452 558 q 443 549 448 549 q 415 554 431 549 q 383 559 399 559 q 347 555 364 559 q 311 550 330 550 q 243 554 277 550 q 175 558 210 558 q 158 557 167 558 q 142 557 150 557 q 114 563 126 557 q 89 576 102 569 q 85 637 85 608 l 85 657 q 139 693 109 684 q 205 701 170 701 q 219 697 213 701 q 233 693 226 693 q 245 695 239 693 q 257 697 251 697 q 279 690 267 697 q 302 684 291 684 q 312 686 308 684 q 322 689 317 689 q 334 687 328 689 q 345 685 339 685 q 360 688 353 685 q 375 690 367 690 q 420 684 399 690 q 465 677 442 677 q 483 679 477 677 q 497 689 489 680 q 504 686 501 689 q 511 684 507 684 q 539 686 525 684 q 568 689 553 689 q 599 685 585 689 q 631 681 614 681 l 636 679 l 644 671 q 659 665 652 667 q 672 658 666 662 q 681 648 677 654 q 685 632 685 642 z "},"?":{"ha":758,"x_min":39,"x_max":718,"o":"m 718 765 q 715 736 718 753 q 708 701 711 718 q 701 669 704 683 q 697 650 697 654 q 701 636 701 644 q 700 633 701 634 q 697 628 699 631 q 694 620 696 625 q 693 606 693 615 l 693 600 q 683 585 691 593 q 671 570 675 576 q 661 553 665 561 q 653 538 656 546 q 650 527 650 532 q 648 515 651 521 q 642 509 646 511 q 635 501 637 506 q 628 484 629 493 q 621 467 626 474 q 600 444 613 455 q 576 425 587 433 q 563 419 570 420 q 550 412 555 418 q 547 407 549 411 q 544 400 546 404 q 537 395 541 397 q 528 395 534 393 q 504 365 517 382 q 478 340 490 349 q 471 338 475 338 q 464 336 467 338 l 460 328 q 443 315 450 323 q 427 298 435 307 q 413 280 420 289 q 397 264 406 271 q 391 213 396 239 q 371 165 387 187 q 360 165 366 165 q 349 164 354 164 q 304 174 323 164 q 267 201 286 184 q 268 210 268 204 q 263 227 268 219 q 258 244 258 235 q 261 264 258 255 q 267 284 264 274 q 272 304 270 294 q 272 328 274 315 q 283 342 279 334 q 293 359 288 351 q 302 375 297 367 q 313 390 307 382 q 331 407 321 399 q 352 420 341 414 q 373 434 363 427 q 393 449 384 441 q 402 461 399 454 q 411 475 405 469 q 429 480 422 475 q 446 489 436 486 q 454 493 451 490 q 459 499 457 496 q 461 507 460 503 q 464 515 463 511 q 478 521 472 517 q 490 530 484 525 q 501 539 496 534 q 514 547 507 544 q 519 564 515 557 q 527 577 523 571 q 534 592 532 584 q 536 614 537 601 q 548 629 544 621 q 558 646 553 637 l 558 654 q 561 677 557 667 q 572 699 566 687 q 572 718 571 708 q 572 737 572 728 q 571 753 572 743 q 569 775 570 764 q 566 796 568 786 q 562 811 564 806 q 549 837 559 821 q 527 868 539 852 q 501 897 514 884 q 478 914 488 909 q 460 920 470 918 q 440 923 450 922 q 420 925 430 924 q 401 928 410 926 q 378 932 390 929 q 354 936 367 936 q 331 931 344 936 q 307 922 319 926 q 281 914 294 918 q 259 904 269 910 q 241 889 249 898 q 227 865 233 880 q 211 847 216 855 q 202 831 205 840 q 198 813 199 823 q 196 789 197 803 q 194 777 196 783 q 192 766 192 772 q 197 742 192 758 q 201 703 201 726 q 214 659 201 680 q 242 620 227 639 q 270 582 257 600 q 282 545 282 564 q 274 516 282 528 q 254 493 267 504 q 218 494 237 495 q 182 497 199 493 q 168 504 174 499 q 156 512 162 508 q 142 520 149 517 q 127 524 136 524 q 103 561 118 545 q 71 591 87 577 l 71 600 q 67 633 72 616 q 56 668 62 650 q 44 703 50 685 q 39 739 39 721 q 42 762 39 751 q 47 783 46 773 q 50 805 49 793 q 52 827 50 816 q 58 848 54 838 q 71 865 62 858 q 67 881 69 873 q 65 896 65 888 l 65 905 q 80 920 75 911 q 93 936 85 928 q 107 950 100 944 q 120 962 114 956 q 131 975 126 968 q 138 994 136 983 q 150 999 142 995 q 164 1007 157 1002 q 177 1017 171 1012 q 186 1026 183 1023 q 192 1025 189 1026 q 197 1025 195 1025 q 208 1031 203 1025 q 218 1039 213 1037 q 240 1044 229 1043 q 262 1048 252 1044 q 282 1060 274 1053 q 302 1071 291 1067 q 347 1077 322 1076 q 393 1079 372 1078 q 399 1076 397 1078 q 406 1075 402 1075 q 421 1078 414 1075 q 436 1080 429 1080 q 452 1077 445 1080 q 467 1071 460 1074 q 483 1066 475 1068 q 500 1067 490 1064 q 513 1056 506 1060 q 528 1050 520 1053 q 544 1045 536 1048 q 558 1039 551 1043 q 582 1020 572 1031 q 608 1003 593 1008 q 612 990 609 995 q 621 982 616 986 q 630 976 625 979 q 639 968 635 972 q 641 961 641 964 q 643 954 641 958 q 665 932 652 943 q 689 914 677 922 q 693 889 689 901 q 707 869 696 878 q 705 861 705 865 q 705 851 705 856 q 712 808 705 829 q 718 765 718 787 m 397 68 l 397 37 q 397 12 397 25 q 393 -14 397 -1 q 356 -35 376 -25 q 314 -45 336 -45 q 289 -40 302 -45 q 264 -27 275 -36 q 247 -7 254 -19 q 240 18 240 4 q 249 52 240 36 q 262 85 258 68 q 295 99 278 94 q 330 104 313 104 q 369 96 350 104 q 397 68 388 87 z "},"@":{"ha":1019,"x_min":58,"x_max":977,"o":"m 977 456 q 972 422 977 444 q 962 379 968 401 q 949 337 956 357 q 936 307 942 317 q 919 280 928 294 q 904 253 909 267 q 868 224 886 238 q 833 195 850 210 q 827 195 830 195 q 822 196 825 196 q 802 193 812 196 q 784 186 793 190 q 766 179 775 182 q 749 176 758 176 q 732 180 739 176 q 717 184 725 183 q 699 187 708 186 q 681 191 689 187 q 654 204 669 195 q 628 221 638 214 q 619 228 623 224 q 610 231 615 232 q 600 251 606 242 q 587 271 594 260 q 565 268 574 269 q 547 264 555 266 q 528 262 538 263 q 503 261 517 261 q 483 260 493 261 q 465 253 473 259 q 430 263 446 259 q 400 273 414 267 q 372 287 385 278 q 345 311 358 296 q 336 319 341 315 q 326 329 330 323 q 320 343 322 336 q 316 359 318 351 q 311 374 314 367 q 300 387 307 382 q 302 394 301 391 q 302 401 302 397 q 300 418 302 410 q 297 436 297 427 q 299 448 297 442 q 304 458 302 453 l 304 461 q 302 470 304 467 q 300 479 300 474 l 300 481 l 310 490 q 314 504 311 493 q 321 528 317 515 q 327 550 324 540 q 332 561 330 559 q 341 572 334 568 q 345 583 347 576 q 360 591 352 587 q 377 598 369 595 q 392 607 385 602 q 403 619 399 612 q 432 624 418 620 q 461 634 447 629 q 491 643 476 639 q 522 647 506 647 q 545 644 534 647 q 564 633 555 641 q 573 644 570 637 q 579 656 576 650 q 584 670 582 663 q 591 682 587 677 q 603 689 598 685 q 612 695 607 692 q 622 701 616 699 q 637 703 628 703 q 660 695 648 703 q 682 676 672 687 q 697 652 691 665 q 704 629 704 640 q 699 606 704 618 q 694 582 694 595 q 696 567 694 574 q 699 553 699 560 q 696 539 699 545 q 694 526 694 532 q 699 504 694 515 q 703 481 703 492 q 701 462 703 471 q 699 443 699 452 q 702 426 699 433 q 708 410 706 418 q 708 395 709 402 q 707 380 707 388 q 709 365 707 374 q 714 348 711 357 q 721 331 718 339 q 726 315 724 322 q 733 314 730 314 q 739 314 736 314 q 776 325 760 314 q 803 354 791 336 q 822 395 814 372 q 834 441 829 418 q 840 486 838 465 q 842 524 842 508 q 839 545 842 533 q 833 568 837 556 q 824 592 829 581 q 815 611 819 603 q 799 635 809 624 q 783 660 789 646 q 770 671 776 665 q 760 684 765 677 q 751 698 755 691 q 739 710 746 705 q 728 714 734 713 q 717 718 722 715 q 710 725 713 722 q 703 732 707 728 q 693 737 696 736 q 688 740 690 739 q 682 744 686 741 q 668 754 677 747 q 662 752 665 753 q 656 751 659 751 q 635 754 644 751 q 614 754 627 757 q 597 763 607 760 q 575 767 587 766 q 552 768 564 768 q 533 768 541 768 q 527 770 530 768 q 519 772 525 772 q 507 768 515 772 q 493 762 499 764 q 473 764 483 762 q 454 765 464 765 q 435 760 450 765 q 399 746 420 754 q 355 727 378 737 q 311 706 332 716 q 277 689 291 696 q 260 677 262 681 q 255 667 256 673 q 252 656 254 661 l 241 652 q 241 645 240 648 q 243 640 243 642 q 238 633 243 637 q 229 624 234 629 q 219 615 224 619 q 215 607 215 610 l 215 571 q 203 548 208 558 q 194 527 197 537 q 188 506 190 517 q 186 479 186 494 q 192 431 186 456 q 211 387 197 406 q 220 327 211 354 q 252 275 229 300 q 263 263 257 269 q 273 249 270 257 q 305 234 294 241 q 325 223 317 228 q 340 215 333 218 q 357 210 347 212 q 384 207 368 208 q 428 205 400 205 q 458 211 445 205 q 482 216 471 216 q 510 214 496 216 q 541 212 525 212 l 547 212 q 564 178 555 196 q 574 140 574 159 q 568 120 574 130 q 554 102 563 110 q 536 90 546 95 q 515 82 526 84 q 484 81 500 79 q 454 83 469 83 q 435 81 444 83 q 417 76 427 79 q 399 70 408 73 q 380 68 391 68 q 370 69 376 68 q 358 71 364 70 q 346 75 351 73 q 336 78 340 77 l 332 87 q 300 97 315 95 q 271 100 286 98 q 242 106 257 102 q 211 122 228 110 q 197 129 205 127 q 183 136 190 131 q 174 150 177 142 q 165 163 171 157 q 159 168 163 166 q 153 172 155 169 q 150 181 149 176 q 147 191 151 186 l 139 195 q 130 213 134 207 q 122 222 125 219 q 115 229 118 226 q 107 239 111 232 q 102 252 104 244 q 97 270 99 260 q 93 287 95 279 q 90 301 91 296 q 84 313 88 308 q 81 323 81 318 l 85 329 q 79 356 81 345 q 73 376 76 366 q 69 397 71 385 q 68 427 68 408 q 63 448 68 438 q 58 468 58 458 q 61 487 58 478 q 65 503 63 495 q 69 520 68 511 q 66 539 70 529 q 81 566 77 551 q 86 596 85 581 q 89 626 88 611 q 94 656 90 642 q 103 675 97 666 q 115 695 109 684 q 126 718 121 705 q 135 746 132 730 q 154 764 144 753 q 175 785 164 774 q 196 806 186 796 q 215 821 206 815 q 241 833 227 829 q 269 842 255 838 q 297 851 283 846 q 322 867 311 857 q 365 880 345 870 q 403 901 384 889 q 465 912 434 907 q 528 917 496 917 q 555 913 543 917 q 582 907 567 909 q 600 906 591 905 q 618 907 608 907 q 633 904 626 907 q 648 898 641 901 q 662 891 654 895 q 676 885 669 887 q 696 881 686 882 q 717 879 706 881 q 734 875 727 878 q 753 875 741 873 q 787 844 770 859 q 819 812 804 829 q 834 795 827 804 q 848 778 841 787 q 863 762 855 769 q 882 750 871 755 q 909 710 889 724 q 912 697 909 706 q 918 676 914 688 q 926 652 922 665 q 935 629 930 640 q 943 610 939 618 q 950 602 947 603 q 954 565 950 583 q 963 529 958 547 q 972 492 968 511 q 977 456 977 474 m 574 382 q 570 432 568 407 q 572 482 572 457 q 572 499 572 490 q 570 517 571 508 q 551 520 560 520 q 532 521 541 521 q 510 519 522 521 q 489 513 498 518 q 480 497 487 503 q 465 486 473 492 q 452 473 458 481 q 446 449 446 465 q 455 407 446 427 q 475 370 465 387 q 497 366 486 366 q 535 373 517 366 q 574 382 554 380 z "},"A":{"ha":770,"x_min":-16,"x_max":741,"o":"m 741 39 q 737 17 741 26 q 729 1 734 8 q 719 -14 724 -7 q 708 -32 713 -22 l 699 -31 q 671 -33 685 -31 q 644 -35 658 -35 q 622 -31 632 -35 q 606 -14 611 -26 q 587 -6 596 -8 q 570 4 577 -3 l 570 11 q 564 28 570 20 q 555 45 557 35 q 552 83 551 63 q 553 122 553 103 q 549 155 553 139 q 542 188 546 172 q 535 219 538 203 q 533 252 532 235 q 476 257 504 255 q 418 260 448 260 q 367 257 393 260 q 318 245 342 255 q 291 256 305 253 q 261 260 276 260 q 233 256 245 260 q 228 229 228 242 q 224 201 228 215 q 219 193 222 195 q 215 187 216 191 q 214 180 214 184 q 215 172 215 176 q 209 159 215 168 q 201 143 203 151 q 198 105 198 125 q 197 66 197 85 q 200 59 197 62 q 203 53 203 56 q 193 35 203 50 q 170 4 182 20 q 146 -26 157 -13 q 135 -40 136 -39 q 126 -41 130 -41 q 118 -41 122 -41 q 72 -30 94 -41 q 32 -4 50 -19 l 32 5 q 29 41 32 23 q 22 77 26 59 q 35 102 32 89 q 36 129 37 115 q 46 140 42 136 q 54 148 51 144 q 57 157 56 152 q 58 172 58 163 l 58 175 l 68 183 q 68 197 69 191 q 66 211 66 203 q 68 220 66 216 l 77 228 q 77 236 78 232 q 77 243 77 239 q 79 249 77 246 q 83 254 81 251 q 88 259 86 256 q 90 265 90 262 l 90 268 q 36 268 62 272 q 18 281 27 274 q 1 295 9 288 q -11 312 -6 302 q -16 334 -16 321 q -7 368 -16 356 q 15 387 2 379 q 42 401 27 395 q 68 421 56 408 l 103 421 q 124 448 115 433 q 139 479 134 463 q 141 492 141 486 q 143 505 141 499 q 159 530 149 519 q 175 555 170 541 q 177 578 178 566 q 179 600 176 589 q 193 633 185 618 q 207 662 200 647 q 219 694 214 676 q 224 739 224 713 q 222 746 224 743 q 220 753 220 749 q 225 765 220 757 q 233 779 231 773 q 234 794 235 787 q 232 808 232 801 q 239 830 232 813 q 257 865 247 846 q 278 900 267 884 q 296 922 289 917 q 301 948 296 937 q 312 970 306 960 q 325 990 318 980 q 336 1013 332 1000 q 350 1021 346 1013 q 354 1022 351 1022 q 378 1020 365 1022 q 410 1018 392 1018 q 440 1011 425 1018 q 467 994 454 1004 q 489 964 478 985 q 509 916 499 943 q 527 857 518 888 q 543 797 535 826 q 557 742 550 767 q 570 703 564 718 q 578 685 573 693 q 587 667 584 677 q 589 647 589 657 q 591 627 588 637 q 598 611 594 618 q 606 596 602 604 q 612 553 611 575 q 623 511 614 531 q 651 430 640 471 q 663 346 663 389 q 668 326 663 336 q 671 315 668 321 q 679 302 675 309 q 688 290 684 296 q 694 278 692 283 q 700 256 696 274 q 709 213 704 238 q 720 159 714 188 q 730 105 725 130 q 738 61 734 79 q 741 39 741 43 m 493 407 q 488 433 492 420 q 479 459 484 446 q 469 485 474 471 q 461 511 464 498 q 460 542 459 526 q 457 574 461 558 q 453 585 455 582 q 449 592 450 589 q 446 600 447 595 q 444 616 444 605 q 441 628 444 623 q 435 639 438 633 q 428 652 431 644 q 425 669 425 659 q 427 682 425 675 q 431 694 429 688 q 409 720 418 706 q 390 747 401 734 q 384 739 385 745 q 382 725 382 732 q 382 711 382 718 q 380 699 382 703 q 373 689 378 692 q 363 681 367 686 q 358 669 359 675 q 350 659 356 662 l 350 618 q 325 575 334 600 q 308 524 315 551 q 298 471 302 498 q 292 421 294 444 q 296 419 294 420 q 301 419 299 419 q 323 422 313 419 q 346 425 334 425 q 403 421 375 425 q 416 416 410 420 q 429 412 422 412 q 435 414 433 412 q 443 416 437 416 q 463 410 454 416 q 484 404 473 404 q 493 407 488 404 z "},"B":{"ha":781,"x_min":74,"x_max":746,"o":"m 746 271 q 739 231 746 253 q 718 197 732 209 q 720 189 720 195 q 716 170 720 178 q 710 153 712 161 q 689 102 703 127 q 657 57 675 78 q 617 19 639 36 q 571 -9 595 2 q 564 -15 566 -12 q 558 -23 561 -19 q 552 -31 555 -27 q 545 -36 549 -34 q 490 -54 517 -45 q 436 -72 463 -62 q 427 -74 432 -73 q 418 -77 422 -75 q 414 -82 416 -79 q 408 -86 412 -86 q 362 -85 389 -86 q 307 -81 336 -83 q 252 -74 279 -78 q 208 -66 226 -71 l 199 -58 l 191 -62 q 160 -56 172 -60 q 139 -46 148 -52 q 124 -28 130 -39 q 114 0 119 -18 q 112 13 112 6 q 110 26 112 20 q 104 42 106 37 q 102 54 102 48 q 102 65 102 59 q 102 82 102 72 q 97 111 102 97 q 92 139 92 124 q 97 174 92 157 q 102 210 102 191 q 97 231 102 221 q 92 252 92 241 q 94 267 92 260 q 96 283 96 275 q 91 312 96 297 q 82 340 86 328 q 92 371 90 355 q 94 404 94 387 q 88 475 94 440 q 82 546 82 510 q 87 580 82 564 q 92 614 92 596 q 85 675 92 646 q 74 734 79 703 q 85 758 78 746 q 92 783 92 770 q 90 790 92 787 q 87 798 89 794 q 90 805 87 802 q 92 812 92 808 q 85 843 92 828 q 78 875 78 857 q 80 896 78 884 q 84 922 81 909 q 89 946 86 935 q 96 966 92 958 q 106 980 100 976 q 118 990 112 984 l 122 999 q 146 1007 132 1004 q 177 1013 161 1010 q 208 1016 193 1015 q 235 1021 223 1018 q 261 1030 248 1024 q 289 1039 274 1037 q 309 1040 298 1040 q 329 1039 319 1039 q 341 1039 336 1039 q 351 1043 347 1039 q 365 1041 353 1043 q 394 1037 377 1040 q 429 1030 410 1034 q 465 1023 448 1026 q 494 1016 482 1019 q 509 1013 506 1013 q 538 991 525 1004 q 567 966 551 977 q 591 952 578 959 q 616 936 604 945 q 635 915 627 926 q 643 886 643 903 q 655 874 646 878 q 669 864 663 870 q 675 853 673 859 q 684 842 678 847 q 693 799 690 820 q 697 755 697 779 q 695 730 697 747 q 690 695 694 714 q 683 654 687 675 q 673 615 678 633 q 663 581 668 596 q 652 559 657 566 q 645 555 649 556 q 637 551 641 555 q 619 532 625 537 q 610 524 614 526 q 600 518 606 521 q 579 505 593 515 q 591 488 581 493 q 611 479 601 484 q 616 469 612 473 q 626 464 621 466 q 637 461 631 463 q 647 457 643 460 q 653 444 648 448 q 663 437 658 439 q 671 431 668 434 q 673 421 675 428 q 684 416 680 420 q 692 408 688 412 q 700 400 696 404 q 710 395 704 396 l 710 387 q 712 370 709 377 q 719 356 715 363 q 727 341 723 349 q 730 319 730 332 q 730 314 730 316 q 732 309 730 312 q 743 291 741 301 q 746 271 746 280 m 553 701 q 549 710 553 705 q 545 721 546 715 q 544 733 543 727 q 545 747 545 740 q 541 755 545 748 q 532 770 536 762 q 522 785 527 779 q 517 793 517 792 l 518 799 q 513 816 518 806 q 500 836 507 826 q 484 853 492 846 q 468 864 475 861 q 453 867 460 868 q 437 867 445 867 q 417 870 427 867 q 398 877 408 873 q 379 883 389 880 q 359 886 370 886 q 347 882 352 886 q 332 878 342 878 q 317 880 324 878 q 301 882 310 882 q 288 875 296 877 q 272 872 280 873 q 255 869 263 871 q 239 864 246 867 q 234 781 235 822 q 232 697 232 739 q 233 611 232 654 q 235 524 235 568 q 241 522 238 522 q 248 522 244 522 q 281 527 264 522 q 321 532 297 532 q 329 533 326 532 q 353 546 342 536 q 378 559 365 555 q 403 564 391 564 q 428 568 415 564 q 439 575 434 571 q 449 584 444 579 q 460 591 454 588 q 472 596 465 595 q 492 613 481 606 q 517 623 503 620 q 523 638 523 630 q 526 654 522 647 q 535 659 528 659 q 545 663 543 659 q 545 669 546 666 q 543 673 543 671 q 548 685 543 679 q 553 701 553 692 m 597 256 q 589 267 591 260 q 587 279 587 273 q 587 291 587 286 q 585 300 587 296 q 575 311 578 307 q 567 322 571 315 q 558 327 566 323 q 549 332 551 330 q 539 339 545 334 q 526 350 533 345 q 513 360 519 355 q 504 367 507 366 q 487 370 498 371 q 468 372 477 369 q 451 384 462 379 q 428 392 440 389 q 404 397 416 395 q 382 399 391 399 q 356 398 374 399 q 316 395 337 397 q 277 392 295 394 q 253 389 258 391 q 245 340 248 365 q 243 292 243 315 q 247 210 243 251 q 257 129 252 170 q 252 118 254 123 q 250 106 250 113 q 251 93 250 99 q 253 81 252 87 q 277 74 264 75 q 302 72 290 72 q 336 74 319 72 q 370 78 353 76 q 403 81 387 80 q 436 81 420 82 q 444 88 439 85 q 453 92 448 90 q 463 94 458 93 q 472 98 468 96 q 487 111 481 104 q 498 125 492 119 l 530 125 q 552 151 540 138 q 575 175 564 163 q 581 195 581 184 q 585 215 581 205 q 593 235 588 226 q 597 256 597 244 z "},"C":{"ha":850,"x_min":49,"x_max":823,"o":"m 823 214 q 818 182 823 199 q 804 150 813 165 q 783 122 795 135 q 757 103 771 110 q 735 68 749 84 q 711 36 722 53 q 684 20 696 30 q 659 0 671 10 q 635 -21 647 -11 q 608 -36 623 -31 q 591 -39 600 -39 q 572 -40 582 -38 q 553 -47 563 -43 q 534 -56 544 -52 q 515 -63 525 -60 q 496 -66 506 -66 q 476 -62 486 -66 q 456 -58 467 -58 q 437 -60 446 -58 q 418 -62 429 -62 q 399 -60 410 -62 q 378 -54 389 -58 q 359 -44 368 -50 q 345 -32 350 -38 l 336 -32 q 307 -26 319 -33 q 283 -12 294 -20 q 260 4 272 -3 q 232 14 249 12 q 215 39 228 31 q 187 54 202 47 q 181 67 184 60 q 179 81 179 73 q 161 90 169 83 q 147 104 153 96 q 134 120 140 112 q 121 135 128 128 q 121 141 121 138 q 122 149 122 144 q 118 164 122 158 q 109 176 114 171 q 97 188 103 182 q 89 201 92 193 q 84 219 85 209 q 83 239 83 229 q 82 259 83 249 q 81 278 82 270 q 71 298 77 288 q 62 318 64 308 q 58 342 59 329 q 58 370 58 356 q 59 398 58 384 q 60 424 60 412 q 54 463 60 444 q 49 501 49 482 q 53 538 49 517 q 62 574 57 559 q 66 582 64 578 q 71 591 69 586 q 73 620 74 605 q 75 650 73 635 q 82 674 77 663 q 89 699 87 686 q 91 735 91 716 q 97 771 91 753 q 116 797 104 785 q 134 819 129 809 q 151 854 141 837 q 161 892 160 872 q 196 918 175 904 q 238 945 217 931 q 278 974 260 959 q 304 1003 296 988 l 310 1003 q 327 1008 312 1003 q 359 1020 342 1013 q 392 1032 377 1026 q 411 1039 408 1038 q 412 1042 411 1041 q 415 1043 414 1043 q 449 1042 427 1043 q 495 1041 471 1042 q 541 1038 519 1040 q 572 1035 562 1036 q 590 1029 581 1034 q 606 1022 598 1025 q 623 1015 614 1018 q 640 1013 631 1012 q 663 994 651 999 q 689 981 674 989 q 704 966 694 977 q 721 950 713 956 q 740 939 728 944 q 757 926 751 935 q 765 910 761 920 q 773 889 770 900 q 779 867 777 878 q 781 848 781 857 q 775 818 781 833 q 761 790 770 802 q 738 769 751 777 q 707 761 724 761 q 679 766 690 761 q 660 780 668 772 q 646 800 652 789 q 631 823 639 811 q 618 836 625 832 q 604 846 610 840 q 594 859 598 852 q 582 869 589 865 q 565 874 576 872 q 541 877 553 876 q 516 879 528 878 q 496 882 504 880 q 481 887 488 884 q 467 889 474 889 q 459 888 463 889 q 452 886 456 888 q 443 882 446 881 q 435 884 440 884 q 419 879 427 884 q 396 873 411 873 l 393 873 q 377 858 387 864 q 356 846 367 852 q 334 835 345 841 q 317 819 323 829 q 313 808 313 814 q 309 798 312 803 q 288 769 299 783 q 268 739 277 755 q 252 709 260 724 q 232 681 243 694 q 233 672 233 676 q 233 664 233 668 q 231 638 233 650 q 224 616 228 627 q 218 590 220 604 q 215 557 215 576 q 210 538 215 545 q 205 522 205 530 q 207 496 205 514 q 210 459 208 478 q 214 422 212 439 q 220 399 217 406 q 224 390 221 393 q 228 380 227 386 q 231 349 231 365 q 236 318 230 334 l 245 309 q 249 289 249 299 q 250 268 248 279 q 258 260 258 264 q 258 250 258 256 q 264 237 258 244 q 276 221 269 229 q 288 203 282 212 q 294 183 294 193 q 327 155 315 168 q 351 133 339 142 q 379 117 363 123 q 425 107 395 111 q 436 105 431 107 q 447 103 441 103 q 463 106 456 103 q 478 114 469 110 q 498 121 486 118 q 530 125 511 125 q 539 130 538 125 q 546 139 541 136 q 556 142 549 140 q 572 147 563 144 q 591 154 581 150 q 608 161 601 157 q 640 186 626 172 q 671 210 654 200 q 689 249 677 231 q 711 286 702 267 l 715 286 q 727 289 722 286 q 739 295 733 292 q 750 302 744 299 q 761 304 755 304 q 771 302 767 304 q 781 298 776 300 q 790 294 785 296 q 802 292 795 292 q 817 254 811 274 q 823 214 823 235 z "},"D":{"ha":781,"x_min":77,"x_max":734,"o":"m 734 490 q 732 480 734 485 q 730 471 730 476 q 732 459 730 465 q 734 447 734 454 q 731 421 734 435 q 726 395 728 408 q 726 376 725 385 q 726 357 726 366 q 724 338 726 347 q 713 322 721 328 q 717 304 717 314 q 714 288 717 296 q 709 272 712 280 q 705 256 707 264 q 704 237 703 248 q 689 220 694 230 q 676 201 684 210 l 676 193 l 668 193 q 656 175 662 184 q 646 157 651 165 q 642 145 644 148 q 637 142 640 142 q 633 141 635 141 q 628 139 631 142 q 608 120 616 130 q 592 101 600 110 q 572 88 584 93 q 542 85 561 83 q 521 68 529 79 q 507 45 513 57 q 492 41 500 44 q 475 34 484 38 q 458 25 466 30 q 444 18 450 21 l 439 8 q 434 8 437 7 q 428 9 431 9 l 427 8 q 397 -6 411 3 q 368 -22 382 -16 q 341 -30 355 -28 q 314 -36 328 -33 q 294 -41 303 -38 q 273 -45 284 -45 q 255 -42 264 -45 q 237 -40 247 -40 q 219 -44 228 -40 q 201 -47 211 -47 q 195 -47 198 -47 q 189 -45 191 -47 l 183 -36 q 156 -32 165 -31 q 139 -33 146 -33 q 125 -25 132 -32 q 109 4 119 -18 q 102 17 104 12 q 97 28 99 22 q 94 39 95 33 q 93 54 93 45 q 96 90 93 72 q 98 126 98 108 q 96 147 98 137 q 93 168 93 157 q 94 179 93 174 q 94 189 94 184 q 92 200 94 195 q 90 210 90 204 q 94 223 90 217 q 98 237 97 230 q 99 255 100 246 q 98 272 98 264 q 101 290 98 281 q 103 309 103 299 q 97 337 103 323 q 90 366 90 351 q 92 391 90 378 q 94 418 94 404 q 97 447 94 433 q 100 476 100 462 q 86 515 100 499 q 88 522 87 519 q 89 529 89 526 q 87 546 89 538 q 85 562 85 554 q 90 584 85 574 q 98 604 94 593 q 96 625 95 614 q 94 644 96 635 q 90 661 93 653 q 86 676 86 668 l 85 677 q 87 693 85 686 q 90 707 90 699 q 85 732 90 720 q 81 758 81 745 q 83 770 81 766 q 90 779 85 774 l 90 782 q 87 796 90 789 q 86 811 85 803 q 87 826 86 819 q 87 840 87 833 q 82 882 87 862 q 77 916 77 903 q 81 939 77 928 q 90 962 86 951 q 89 971 89 965 q 95 988 89 982 q 103 1003 100 994 q 126 1011 113 1010 q 150 1013 138 1013 q 196 1010 173 1013 q 241 1008 218 1008 q 254 1010 248 1008 q 265 1013 259 1013 q 319 1007 295 1013 q 372 994 344 1001 q 395 992 384 992 q 416 990 406 992 q 433 983 425 988 q 449 977 440 979 q 468 975 456 975 q 485 972 479 975 q 496 962 491 969 q 507 950 500 954 q 520 941 513 944 q 533 932 527 937 q 537 924 536 928 q 542 918 538 920 q 551 916 546 915 q 559 914 556 918 q 569 901 567 909 q 578 886 572 892 q 602 873 588 878 q 628 860 616 869 q 643 831 634 845 q 659 802 652 817 q 661 794 661 798 q 664 789 662 791 l 672 783 q 675 770 675 777 q 676 757 674 763 q 689 733 681 747 q 706 705 698 720 q 722 678 715 691 q 730 654 728 665 q 731 633 732 644 q 730 611 730 622 q 732 591 730 601 q 734 571 734 581 q 730 549 734 559 q 726 528 726 539 q 730 509 726 518 q 734 490 734 500 m 591 457 q 587 491 591 474 q 578 525 583 508 q 567 558 572 541 q 559 591 562 575 q 559 607 558 599 q 561 623 561 615 q 558 635 561 625 q 550 659 555 645 q 538 690 545 673 q 527 722 532 707 q 517 749 522 737 q 511 765 513 760 q 491 778 501 770 q 471 795 481 787 q 450 809 460 803 q 429 815 440 815 l 427 815 q 422 820 425 817 q 416 823 420 822 q 402 828 411 827 q 385 831 394 830 q 366 832 375 831 q 350 833 356 832 q 330 838 340 834 q 310 844 319 841 q 290 849 300 847 q 269 851 279 852 l 265 851 q 264 845 264 847 q 263 842 264 844 q 263 836 263 840 q 262 825 262 833 q 257 800 262 812 q 252 775 252 787 q 254 763 252 768 q 256 753 256 758 q 252 744 256 747 q 248 734 248 740 q 250 723 248 728 q 252 713 252 718 q 250 682 252 697 q 249 653 249 667 q 252 585 249 619 q 254 518 254 551 q 253 503 254 511 q 248 488 252 495 q 258 443 256 466 q 260 396 260 419 q 258 368 260 381 q 256 340 256 354 q 260 332 256 334 q 255 306 258 317 q 252 281 252 295 q 254 238 252 259 q 257 196 257 218 q 254 156 257 176 q 252 117 252 136 q 258 115 255 115 q 264 115 260 115 q 286 119 276 115 q 306 127 296 122 q 325 138 315 132 q 346 147 335 143 q 364 154 349 149 q 397 164 380 159 q 429 175 414 170 q 444 179 443 179 q 481 231 461 206 q 525 278 502 255 l 533 278 l 533 286 q 540 288 536 288 q 547 292 544 288 q 549 297 549 294 q 551 304 549 301 q 558 309 553 308 q 566 314 562 310 q 573 334 570 320 q 577 365 575 349 q 579 397 578 381 q 582 421 581 412 q 588 439 584 431 q 591 457 591 448 z "},"E":{"ha":750,"x_min":30,"x_max":734,"o":"m 730 147 q 734 119 734 133 q 729 87 734 102 q 717 57 723 73 q 700 47 709 51 q 682 39 690 44 q 658 27 668 31 q 639 23 648 24 q 618 23 629 22 q 591 24 608 24 q 546 18 566 24 q 507 12 525 12 q 470 15 490 12 q 432 18 451 18 q 410 16 420 18 q 389 8 399 14 q 370 15 378 8 q 350 21 361 21 q 339 19 344 21 q 328 17 334 17 q 306 22 316 17 q 285 26 296 26 q 250 19 268 26 q 212 12 231 12 q 193 17 201 12 q 177 29 184 22 q 162 43 169 36 q 147 57 155 51 q 141 83 146 65 q 130 119 136 100 q 121 155 125 138 q 117 176 117 171 q 119 191 117 184 q 121 205 121 198 q 117 223 121 215 q 114 241 114 232 q 114 254 114 243 q 115 278 115 265 q 116 301 115 290 q 117 314 116 312 q 112 332 115 323 q 104 350 108 340 q 112 421 111 387 q 113 493 113 454 q 109 498 113 496 q 101 500 106 500 q 93 501 97 501 q 86 501 88 501 q 77 502 82 501 q 69 507 73 503 q 48 520 57 511 q 31 538 40 529 l 31 546 q 33 568 30 557 q 40 589 36 578 q 47 610 43 600 q 52 632 50 621 q 64 638 58 636 q 69 650 71 640 q 87 655 76 655 q 106 654 98 654 l 109 654 q 111 669 111 662 q 111 684 111 676 q 105 753 111 719 q 98 823 98 788 q 102 852 98 833 q 110 891 105 871 q 120 929 115 911 q 129 958 125 948 q 164 969 148 962 q 199 977 181 977 q 220 975 209 977 q 240 972 231 972 q 257 975 250 972 q 273 979 264 977 q 291 983 281 981 q 315 985 301 985 q 426 990 370 985 q 536 1004 481 995 q 543 1006 540 1004 q 550 1007 546 1007 q 554 1004 552 1007 q 558 999 557 1001 q 568 1001 562 1001 q 579 1002 574 1002 q 618 996 599 1002 q 657 986 638 990 q 664 960 661 972 q 667 933 667 947 q 660 899 667 910 q 643 881 653 888 q 621 869 633 875 q 600 851 610 863 l 590 851 q 540 850 565 854 q 489 847 515 847 q 471 845 479 847 q 457 841 463 844 q 444 835 450 838 q 428 829 437 832 q 408 832 417 831 q 387 833 398 833 q 319 825 352 833 q 252 815 286 817 q 245 798 245 807 q 250 773 245 785 q 256 749 254 761 q 256 723 256 736 q 256 697 256 710 q 259 672 256 684 q 268 650 261 660 q 277 648 272 648 q 288 647 282 647 q 322 651 304 647 q 355 654 339 654 q 409 647 382 654 q 463 640 435 640 q 475 643 469 640 q 489 646 481 646 q 496 643 492 646 q 505 640 499 640 q 523 645 515 640 q 542 650 531 650 q 558 646 551 650 q 574 637 566 642 q 589 628 581 632 q 604 623 596 623 q 611 597 604 609 q 618 571 618 585 q 610 548 618 560 q 590 526 602 536 q 566 508 578 516 q 545 497 553 500 q 534 496 539 496 q 525 497 529 497 q 507 494 516 497 q 490 488 498 492 q 472 482 481 485 q 453 479 463 479 q 424 481 438 479 q 393 484 409 484 q 377 481 385 484 q 361 479 370 479 q 343 483 353 479 q 323 490 333 486 q 304 498 313 494 q 290 501 295 501 q 286 499 288 501 q 282 496 284 498 q 278 493 281 494 q 272 493 276 492 q 268 480 269 487 q 267 468 267 474 q 269 442 267 454 q 272 416 272 429 q 269 397 272 407 q 267 378 267 387 q 269 353 267 369 q 276 319 272 337 q 282 284 279 302 q 285 253 285 266 q 283 211 285 232 q 281 170 281 191 q 318 163 300 164 q 355 161 336 161 q 446 167 400 161 q 536 174 491 172 q 565 173 551 174 q 593 172 578 172 q 625 180 610 172 q 654 187 640 187 q 692 164 680 187 l 697 165 q 707 164 703 166 q 715 159 711 162 q 722 153 719 157 q 730 147 726 150 z "},"F":{"ha":782,"x_min":43,"x_max":777,"o":"m 777 909 q 771 877 777 893 q 756 848 766 861 q 731 827 746 835 q 697 819 716 819 q 679 821 688 819 q 660 823 669 823 q 591 819 625 823 q 522 815 557 815 q 496 817 509 815 q 469 819 483 819 q 443 817 456 819 q 416 815 430 815 q 388 819 402 815 q 359 823 374 823 q 320 819 340 823 q 282 815 301 814 q 275 779 279 798 q 272 742 272 760 q 274 702 272 722 q 277 663 277 682 q 274 629 277 646 q 272 595 272 612 q 274 580 272 587 q 277 564 277 572 q 272 542 277 552 q 268 519 268 531 q 271 505 268 512 q 282 497 273 497 q 290 499 286 497 q 297 504 293 502 q 304 509 300 507 q 313 511 308 511 q 353 493 332 497 q 374 498 364 494 q 393 505 384 501 q 405 503 399 504 q 416 503 410 503 q 461 509 439 503 q 507 515 484 515 q 557 507 533 515 q 604 488 581 499 q 610 455 604 471 q 616 421 616 439 q 596 396 609 406 q 572 372 583 386 l 567 372 q 549 368 557 372 q 532 363 541 364 q 503 362 517 360 q 472 364 488 364 q 439 361 456 364 q 407 354 423 358 q 375 348 391 351 q 343 345 359 345 q 323 347 332 345 q 302 349 313 349 q 279 342 287 349 q 271 319 271 335 q 270 276 271 298 q 272 233 270 253 q 275 221 273 228 q 279 207 277 214 q 284 194 282 200 q 286 183 286 187 q 284 173 286 178 q 282 161 282 168 q 286 152 282 156 q 290 143 290 149 q 288 132 290 138 q 286 121 286 127 q 287 101 286 111 q 288 82 288 92 q 283 45 288 64 q 269 9 279 26 q 244 -17 260 -7 q 208 -28 229 -28 q 177 -21 191 -28 q 147 -9 163 -14 q 139 14 144 3 q 130 35 135 24 q 122 56 125 45 q 119 81 119 67 q 122 99 119 90 q 125 118 125 109 q 120 139 125 129 q 115 160 115 149 q 117 177 115 168 q 118 196 118 186 q 113 220 118 210 q 107 243 107 231 q 111 270 107 256 q 114 297 114 283 q 110 317 114 309 q 100 329 106 324 q 86 338 94 334 q 73 348 79 342 q 62 362 66 354 q 58 386 58 371 q 61 408 58 395 q 69 432 64 420 q 80 454 74 444 q 93 471 86 465 q 100 475 96 473 q 107 479 104 477 q 114 485 111 481 q 115 493 116 488 q 124 584 125 538 q 125 676 123 630 q 119 685 119 680 q 122 692 119 686 q 125 703 125 697 q 120 731 125 718 q 115 760 115 744 q 117 787 115 773 q 125 815 119 802 q 110 829 123 823 q 82 843 97 835 q 55 865 67 851 q 43 904 43 879 q 46 938 43 921 q 53 972 50 956 q 79 985 64 981 q 109 990 94 989 q 140 991 125 991 q 170 990 156 990 q 180 992 176 990 q 192 994 185 994 q 203 992 198 994 q 214 990 208 990 q 225 991 219 990 q 236 991 231 991 q 264 981 251 991 q 301 986 279 986 q 330 981 316 986 q 357 977 343 977 q 386 982 372 977 q 415 986 399 987 l 425 985 l 427 981 q 433 983 430 981 q 443 986 435 986 q 472 981 458 986 q 500 977 486 977 q 527 979 514 977 q 553 985 541 982 q 575 991 565 989 q 595 994 586 994 q 615 990 605 994 q 635 985 625 987 l 640 990 q 661 981 646 983 q 694 977 676 978 q 728 973 711 975 q 751 966 744 971 q 756 962 754 965 q 761 955 759 958 q 767 948 764 951 q 774 945 770 945 q 776 927 775 936 q 777 909 777 919 z "},"G":{"ha":942,"x_min":39,"x_max":930,"o":"m 930 456 l 930 437 q 929 420 930 429 q 921 407 928 411 q 915 386 918 397 q 903 367 911 374 q 879 360 891 363 q 854 357 867 357 q 848 324 852 345 q 837 282 843 304 q 824 242 831 261 q 810 214 817 224 q 800 205 806 208 q 791 196 795 201 q 787 180 787 189 q 782 164 786 172 l 774 160 q 772 149 772 155 q 770 138 772 143 q 721 108 742 127 q 689 61 699 90 q 646 48 668 51 q 603 39 625 46 q 586 30 593 35 q 568 21 578 25 q 551 16 562 19 q 527 8 539 12 q 503 2 514 5 q 488 0 492 0 q 473 2 476 0 q 468 5 470 3 q 459 9 465 7 q 435 11 452 11 q 425 13 429 11 q 414 19 420 16 q 400 24 408 22 q 382 26 393 26 q 363 24 372 26 q 349 12 354 21 q 332 20 342 20 q 314 20 322 20 q 303 21 306 20 q 299 25 300 23 q 297 30 298 27 q 294 35 297 33 q 287 37 290 37 q 279 38 283 37 q 270 46 275 39 q 258 71 265 53 q 213 97 233 80 q 186 142 193 115 q 144 178 166 161 q 102 214 122 195 q 95 241 99 227 q 79 262 91 255 q 81 268 81 266 q 81 273 81 270 q 78 292 81 283 q 71 309 75 300 q 63 326 67 317 q 57 343 59 334 q 54 377 54 360 q 53 411 55 394 q 45 436 51 422 q 39 460 39 449 q 41 477 39 469 q 46 494 43 486 q 50 510 49 502 q 47 528 50 519 q 59 545 52 532 q 72 574 66 559 q 82 605 77 590 q 87 627 86 620 q 90 648 90 637 q 93 671 90 659 q 102 692 96 682 q 114 713 108 703 q 125 733 121 723 q 129 755 130 744 q 151 783 142 767 q 164 814 159 798 q 196 833 182 821 q 218 864 211 845 q 237 868 229 863 q 252 879 245 872 q 266 892 259 886 q 281 904 273 899 q 325 920 304 917 q 367 927 346 924 q 410 937 388 930 q 456 966 431 945 l 464 966 q 486 957 477 966 q 499 965 492 962 q 514 971 507 968 q 599 961 557 966 q 684 949 642 956 q 709 925 696 936 q 733 899 723 913 q 754 895 744 897 q 774 886 765 892 q 779 867 778 877 q 781 846 781 857 q 779 821 781 833 q 774 796 777 808 q 725 767 753 777 q 668 758 696 758 q 651 760 658 758 q 637 763 644 762 q 624 767 631 765 q 607 768 617 768 q 600 774 601 768 q 595 783 599 780 q 588 785 591 785 q 581 787 584 785 q 572 798 575 791 q 562 806 570 804 q 528 795 546 797 q 492 787 509 794 q 467 773 478 782 q 441 760 455 765 q 419 756 431 756 q 397 751 408 757 q 378 736 387 745 q 361 720 370 728 q 342 708 353 712 q 317 707 332 703 q 309 702 312 705 q 302 697 306 699 q 295 694 299 695 q 285 693 291 692 q 271 661 277 678 q 258 628 265 644 q 241 597 250 612 q 218 572 232 583 q 220 566 220 569 q 220 558 220 562 q 217 540 220 549 q 210 523 214 532 q 203 506 206 515 q 200 488 200 498 q 206 460 200 473 q 218 434 212 447 q 230 408 224 421 q 236 380 236 395 q 232 357 236 368 q 240 339 239 351 q 243 314 241 328 q 253 285 245 300 q 281 258 260 271 q 285 240 285 250 q 290 222 285 231 q 303 208 296 214 q 320 196 311 201 q 337 186 328 191 q 353 174 345 181 l 355 174 q 374 171 366 174 q 393 170 382 168 q 426 154 409 160 q 461 149 442 149 q 512 155 491 149 q 548 170 532 161 q 575 184 563 178 q 599 192 587 191 q 624 240 612 216 q 653 286 636 264 q 674 295 663 290 q 693 309 685 300 q 689 323 692 317 q 683 335 686 329 q 678 348 680 340 q 679 367 676 355 q 545 373 612 373 q 411 379 478 374 q 400 396 404 385 q 393 415 397 408 q 387 423 390 420 q 380 430 383 427 q 374 437 377 433 q 371 447 372 441 q 370 452 370 450 q 370 458 370 455 q 371 479 370 469 q 375 500 373 490 q 389 509 382 506 q 405 513 397 512 q 421 516 412 515 q 437 518 429 517 q 447 524 441 519 q 456 528 452 528 q 484 526 469 528 q 513 524 498 524 q 533 519 523 524 q 554 514 544 515 q 583 512 569 512 q 611 513 596 513 q 637 511 627 513 q 657 506 648 509 q 675 499 666 503 q 697 492 684 495 q 746 500 721 497 q 796 503 770 503 q 832 500 813 503 q 869 493 851 498 q 903 479 887 488 q 930 456 919 470 z "},"H":{"ha":882,"x_min":-8,"x_max":800,"o":"m 800 79 q 799 44 800 63 q 793 8 798 26 q 779 -24 788 -9 q 754 -49 770 -39 l 739 -49 q 694 -44 715 -50 q 652 -31 672 -39 q 634 4 639 -15 q 629 41 629 23 q 631 58 629 50 q 633 75 633 66 q 629 96 633 85 q 625 118 625 106 q 630 143 625 131 q 635 171 635 156 q 630 215 635 193 q 629 261 625 238 q 575 265 602 261 q 521 269 548 269 q 485 265 502 269 q 450 261 468 261 q 410 265 429 261 q 370 269 391 269 q 365 266 369 267 q 354 266 360 266 q 343 267 349 267 q 336 268 338 268 q 313 267 325 268 q 289 261 300 265 l 289 257 q 290 243 288 250 q 295 229 292 236 q 300 216 298 222 q 302 201 302 209 q 296 183 302 190 q 289 167 290 177 q 292 150 290 163 q 296 122 294 137 q 300 94 298 107 q 301 78 301 81 q 298 64 301 71 q 293 50 294 56 q 291 34 292 43 q 289 20 291 25 q 279 8 286 14 q 265 -2 273 3 q 249 -9 257 -7 q 235 -12 241 -12 q 192 0 210 -12 q 161 30 174 12 q 142 71 149 48 q 136 114 136 93 q 143 169 136 142 q 150 222 150 195 q 146 252 150 238 q 131 257 138 256 q 115 259 123 258 q 98 259 106 259 q 82 261 90 260 q 66 266 74 262 q 52 274 59 270 q 36 280 44 277 q 20 283 28 283 q 12 298 17 293 q 3 307 7 302 q -5 318 -1 312 q -8 336 -8 324 q -1 366 -8 351 q 17 393 5 380 q 41 414 28 405 q 69 427 55 423 q 86 428 78 429 q 103 427 94 427 q 114 429 110 427 q 121 434 118 431 q 127 437 124 436 q 136 436 130 439 q 135 443 135 439 q 135 450 135 447 q 140 483 135 467 q 146 517 146 500 q 141 534 146 526 q 136 551 136 542 q 138 559 136 555 q 140 568 140 563 q 139 603 140 586 q 138 636 138 619 q 142 662 138 649 q 146 685 146 674 q 140 701 146 693 q 132 718 134 709 q 131 733 130 726 q 132 747 132 740 q 130 763 132 755 q 127 778 127 770 q 134 797 127 788 q 140 812 140 806 q 139 842 140 827 q 138 871 138 856 q 141 905 138 890 q 152 929 144 920 q 173 943 159 939 q 207 947 186 947 q 231 945 224 947 q 243 938 239 942 q 253 928 248 933 q 271 920 258 924 q 280 899 277 910 q 283 875 282 887 q 286 851 285 863 q 293 829 288 840 q 284 805 287 818 q 282 779 282 793 q 286 741 282 760 q 289 704 289 722 q 287 695 289 700 q 285 684 285 690 q 280 637 285 661 q 275 590 275 614 q 280 556 275 572 q 285 521 285 540 q 282 476 285 498 q 275 431 279 454 q 294 424 279 426 q 327 421 309 422 q 361 421 345 420 q 386 421 378 421 q 474 425 430 421 q 564 428 519 428 q 598 427 581 428 q 633 422 616 426 q 637 437 637 429 q 635 453 637 446 q 631 469 633 461 q 626 485 628 477 q 624 501 624 492 q 627 534 624 518 q 633 565 630 550 q 640 595 637 581 q 643 625 643 610 q 638 650 643 641 q 629 673 633 660 q 625 707 625 688 q 624 741 624 725 q 625 749 624 747 q 628 753 627 752 q 631 756 630 755 q 633 762 633 758 q 629 781 629 771 q 631 804 629 792 q 633 827 633 815 q 631 836 633 832 q 629 843 629 840 q 633 852 633 847 q 629 877 633 864 q 625 901 625 889 q 632 951 625 927 q 647 1000 639 976 l 650 1000 q 660 1002 655 1000 q 669 1006 665 1004 q 679 1011 674 1009 q 690 1014 684 1014 q 709 1009 700 1014 q 728 1000 718 1004 q 763 977 751 989 q 780 950 775 965 q 785 917 785 935 q 786 875 785 899 q 788 856 786 865 q 790 838 790 847 q 783 795 790 816 q 777 754 777 775 q 782 718 777 736 q 787 677 787 699 q 784 628 787 652 q 781 579 781 604 q 783 565 781 572 q 786 553 786 559 q 783 539 786 545 q 781 525 781 532 q 785 494 781 509 q 790 463 789 478 q 791 431 791 447 q 790 400 790 416 q 794 347 790 373 q 799 292 799 320 q 800 185 799 239 q 800 79 800 132 z "},"I":{"ha":353,"x_min":40,"x_max":273,"o":"m 256 1116 q 250 1090 256 1102 q 241 1065 243 1078 q 219 1055 231 1060 q 201 1038 208 1049 q 195 1039 198 1039 q 189 1039 193 1039 q 161 1033 174 1039 q 135 1025 149 1027 q 101 1040 119 1034 q 66 1055 83 1046 q 62 1078 65 1068 q 58 1100 58 1087 q 50 1118 58 1109 q 40 1136 42 1126 q 48 1147 45 1141 q 54 1162 52 1154 q 56 1177 56 1169 q 58 1190 57 1184 q 66 1194 63 1191 q 71 1201 69 1197 q 75 1210 73 1206 q 81 1217 77 1214 q 100 1224 91 1219 q 117 1232 109 1228 q 135 1239 125 1236 q 155 1242 144 1242 q 174 1237 164 1242 q 194 1225 184 1232 q 212 1210 203 1218 q 224 1194 220 1202 q 227 1185 227 1190 q 228 1177 226 1181 q 237 1162 232 1168 q 246 1148 241 1155 q 253 1134 250 1142 q 256 1116 256 1126 m 273 599 q 267 557 273 578 q 260 514 260 536 q 262 499 260 507 q 264 485 264 492 q 260 455 264 470 q 256 424 256 439 q 264 389 256 406 q 258 374 260 381 q 257 358 257 367 q 258 299 257 329 q 258 239 258 269 q 260 207 258 223 q 268 178 262 191 q 263 149 262 164 q 264 119 264 134 q 262 109 264 114 q 260 97 260 104 q 261 77 260 87 q 262 57 262 67 q 257 38 262 47 q 243 24 252 30 q 224 14 234 18 q 204 11 214 11 q 183 17 197 11 q 155 31 170 22 q 128 47 140 39 q 113 61 116 56 q 107 71 111 64 q 101 87 104 79 q 96 104 98 96 q 94 115 94 112 q 96 123 94 119 q 98 131 98 126 q 94 149 98 140 q 89 164 89 157 q 92 178 89 172 q 94 192 94 184 q 92 203 94 198 q 89 216 89 209 q 93 242 89 229 q 101 269 96 256 q 109 297 105 283 q 113 325 113 311 q 112 357 113 340 q 107 389 111 373 q 102 406 106 398 q 98 425 98 414 q 101 444 98 435 q 103 463 103 453 q 94 492 103 478 q 106 523 103 505 q 109 555 109 540 q 104 597 109 574 q 89 635 100 619 q 92 676 94 656 q 90 718 90 697 q 94 747 90 732 q 84 764 91 757 q 77 783 77 772 q 79 791 77 785 q 83 804 81 796 q 88 819 86 811 q 90 835 90 827 q 85 858 90 847 q 81 880 81 869 q 87 914 81 899 q 103 945 94 929 q 165 960 133 960 q 188 958 177 960 q 211 953 199 956 q 222 937 214 951 q 240 907 231 924 q 257 877 250 891 q 264 860 264 863 q 262 825 264 842 q 260 790 260 808 q 255 763 260 776 q 250 736 250 749 q 251 712 250 726 q 253 683 252 699 q 256 654 254 668 q 260 631 258 640 q 262 623 260 627 q 267 614 264 618 q 271 605 269 609 q 273 599 273 601 z "},"J":{"ha":800,"x_min":22,"x_max":724,"o":"m 722 433 q 720 340 722 387 q 705 248 717 292 q 694 217 701 234 q 680 183 686 200 q 668 149 673 165 q 665 118 664 132 q 650 97 656 109 q 642 72 645 85 q 621 54 630 64 q 602 32 612 43 q 553 18 576 28 q 513 -12 529 7 l 507 -12 q 488 -15 497 -12 q 471 -23 479 -18 q 454 -32 463 -28 q 436 -39 446 -37 q 401 -45 421 -43 q 366 -46 381 -46 q 348 -45 359 -46 q 323 -42 336 -44 q 299 -39 311 -41 q 283 -35 288 -37 q 275 -30 279 -33 q 267 -25 271 -27 q 228 -21 248 -21 q 191 -17 209 -20 q 165 5 177 -6 q 140 28 153 17 l 136 37 q 125 41 131 41 q 114 46 119 41 q 95 75 108 60 q 74 104 82 89 q 61 133 69 113 q 46 175 54 153 q 33 217 39 197 q 28 245 28 237 q 31 270 28 258 q 33 293 33 281 q 28 325 33 309 q 22 357 22 340 q 24 368 22 359 q 29 388 26 377 q 34 407 31 398 q 37 418 36 416 q 51 437 41 426 q 73 457 61 448 q 96 474 84 467 q 118 481 109 481 q 146 473 135 481 q 166 453 158 465 q 182 428 175 441 q 199 404 189 414 q 197 392 197 398 q 196 379 196 385 q 208 338 196 356 q 204 302 204 318 q 208 273 204 293 q 217 232 212 254 q 230 192 223 211 q 243 167 237 174 l 253 167 l 253 158 q 290 122 267 138 q 338 107 313 107 q 392 116 363 107 q 446 131 420 124 q 453 136 450 132 q 457 142 455 139 q 461 149 459 146 q 468 154 463 153 q 471 162 467 159 q 478 166 474 164 q 484 171 481 168 q 486 180 487 174 q 504 204 492 195 q 526 225 517 212 q 537 249 530 231 q 550 289 544 268 q 562 329 557 310 q 567 353 567 347 q 564 372 567 363 q 561 390 561 380 q 564 404 561 397 q 567 418 567 410 q 564 429 567 423 q 561 440 561 434 q 568 471 561 456 q 575 503 575 486 q 570 535 575 519 q 557 566 564 551 q 561 588 560 577 q 562 610 562 600 q 559 655 562 633 q 557 700 557 677 q 559 711 557 706 q 561 722 561 716 q 559 730 561 726 q 557 741 557 734 q 562 759 557 750 q 567 777 567 767 q 566 794 567 783 q 564 817 566 805 q 561 840 563 829 q 557 857 559 851 q 554 863 555 861 q 551 867 552 865 q 549 872 550 869 q 549 880 549 875 q 555 925 549 903 q 561 968 561 946 q 575 975 569 970 q 589 986 582 981 q 603 996 595 992 q 621 1000 610 1000 q 635 998 625 1000 q 655 991 645 995 q 674 984 665 988 q 688 978 684 981 q 690 961 690 972 q 692 941 691 951 q 696 922 694 930 q 705 909 699 913 q 705 903 707 906 q 704 896 704 899 q 706 877 704 888 q 711 853 709 865 q 716 828 713 841 q 718 803 718 815 q 716 779 718 790 q 714 754 714 767 q 719 734 714 744 q 724 715 724 725 q 721 691 724 703 q 718 667 718 680 q 720 607 718 636 q 722 547 722 578 l 722 433 z "},"K":{"ha":800,"x_min":81,"x_max":766,"o":"m 761 86 q 765 71 763 79 q 766 56 766 63 q 759 26 766 41 q 740 0 752 12 q 714 -19 728 -12 q 685 -26 699 -26 q 624 -13 653 -26 q 570 16 595 0 q 564 34 568 26 q 552 46 559 41 q 538 57 545 52 q 528 72 532 63 q 505 80 515 74 q 483 92 494 85 q 462 104 473 98 q 439 113 451 110 q 418 139 429 127 q 395 163 406 150 l 390 163 q 367 169 381 162 q 338 183 353 175 q 309 198 323 191 q 286 207 295 205 q 274 225 281 216 q 260 243 267 235 q 255 230 256 237 q 254 216 254 223 q 257 190 254 203 q 260 163 260 176 q 256 136 260 149 q 252 109 252 122 q 254 103 252 105 q 256 96 256 101 q 253 66 256 77 q 247 45 251 54 q 237 25 243 35 q 224 1 231 16 q 197 -4 209 -5 q 170 -3 185 -3 q 155 -5 162 -3 q 140 -8 148 -8 l 139 -8 q 110 5 121 -5 q 93 29 99 15 q 86 59 87 43 q 85 92 85 75 q 87 125 86 109 q 89 154 89 141 q 87 188 89 171 q 81 221 86 205 q 87 234 83 226 q 93 250 90 241 q 97 266 95 258 q 98 279 98 273 q 96 290 98 285 q 94 301 94 295 q 96 313 94 308 q 98 323 98 317 q 94 344 98 334 q 89 364 89 353 q 92 378 89 372 q 94 390 94 384 q 92 416 94 404 q 89 441 89 429 q 94 469 89 455 q 98 497 98 483 q 96 543 98 520 q 93 589 93 566 q 96 611 93 600 q 98 633 98 623 q 96 642 98 638 q 91 648 94 645 q 86 654 88 651 q 85 664 84 658 q 93 675 92 668 q 93 689 93 682 q 98 708 93 699 q 103 726 103 717 q 98 741 103 734 q 99 772 98 756 q 103 803 100 787 q 93 829 96 815 q 89 857 89 842 q 95 881 89 866 q 109 909 100 895 q 128 932 117 922 q 149 942 138 942 q 240 907 208 942 q 273 815 273 873 q 271 784 273 800 q 264 753 268 768 q 258 722 261 737 q 256 690 256 706 q 260 655 256 673 q 265 618 265 637 q 261 570 265 594 q 257 522 257 546 q 258 510 257 516 q 260 498 258 504 l 264 498 q 285 501 277 498 q 300 510 294 505 q 314 520 307 515 q 332 529 321 526 q 354 555 340 544 q 380 575 367 566 q 388 592 384 583 q 395 610 393 600 q 415 626 406 616 q 431 645 424 635 q 446 666 439 655 q 461 686 453 676 q 470 695 465 692 q 479 704 475 699 q 490 721 485 712 q 499 738 494 730 q 511 752 505 746 q 528 762 517 759 q 570 829 541 803 l 568 835 q 571 848 568 842 q 577 859 574 853 q 583 872 581 865 q 586 889 586 879 q 592 899 586 892 q 606 915 599 906 q 620 932 614 924 q 627 946 627 941 l 631 946 q 646 949 639 946 q 660 955 653 951 q 673 961 667 958 q 688 964 680 964 q 709 957 698 964 q 730 939 720 949 q 745 917 739 929 q 751 896 751 905 q 748 867 751 882 q 740 840 745 853 q 731 812 736 826 q 725 785 727 799 q 712 773 717 781 q 703 755 707 765 q 697 735 700 745 q 690 718 694 725 q 677 705 686 711 q 660 691 669 698 q 645 679 652 684 q 636 668 638 673 q 609 621 624 640 q 580 585 595 602 q 551 551 565 568 q 528 511 538 534 q 510 505 517 510 q 498 492 503 499 q 487 477 492 485 q 475 463 482 469 q 466 458 471 459 q 457 454 460 458 q 449 445 454 451 q 441 432 445 439 q 434 419 437 425 q 431 408 431 412 q 413 401 420 407 q 400 390 406 396 q 388 377 394 383 q 372 368 381 371 q 379 354 373 360 q 393 342 385 347 q 410 332 401 336 q 425 323 419 328 q 438 312 433 318 q 453 301 444 306 q 471 294 461 296 q 488 288 480 293 q 506 270 498 281 q 524 252 513 258 q 549 241 535 245 q 574 229 562 237 q 582 220 579 226 q 591 211 585 215 q 607 203 597 208 q 626 192 616 198 q 643 180 635 186 q 654 167 650 174 l 657 167 q 672 164 665 168 q 684 158 678 161 q 697 151 690 154 q 713 149 704 148 q 734 116 720 130 q 761 86 749 102 z "},"L":{"ha":677,"x_min":82,"x_max":681,"o":"m 681 75 q 674 45 681 60 q 664 16 668 29 q 649 11 655 14 q 638 7 644 9 q 626 3 633 5 q 608 1 619 1 q 600 0 602 1 q 596 -3 598 -1 q 591 -7 594 -5 q 582 -8 589 -8 q 565 -6 574 -8 q 547 -3 557 -4 q 547 -4 547 -3 q 547 -6 547 -5 q 546 -8 546 -7 q 536 -5 542 -8 q 525 -3 531 -3 l 450 -3 q 413 -7 431 -3 q 376 -12 395 -12 q 350 -10 363 -12 q 323 -8 337 -8 q 268 -15 295 -8 q 212 -21 241 -21 q 160 -13 186 -21 q 114 9 134 -5 q 95 59 104 35 q 86 110 86 83 q 93 142 86 127 q 100 174 100 157 q 97 189 100 182 q 91 203 94 196 q 85 216 87 210 q 82 229 82 223 q 85 250 82 239 q 91 271 87 260 q 97 291 94 281 q 100 313 100 302 q 93 368 100 340 q 86 424 86 395 q 89 482 86 453 q 92 542 92 511 l 90 650 q 88 671 90 661 q 86 693 86 682 q 91 720 86 707 q 96 747 96 734 q 93 766 96 757 q 90 785 90 775 q 93 803 90 794 q 96 822 96 812 q 91 855 96 839 q 86 888 86 871 q 90 917 86 902 q 101 945 94 932 q 121 967 109 958 q 149 975 132 975 q 172 974 158 975 q 195 968 186 972 q 211 954 203 964 q 227 931 220 943 q 240 905 235 918 q 248 884 245 892 q 253 841 252 863 q 254 796 254 819 q 253 750 254 773 q 252 707 252 728 q 254 650 252 678 q 257 591 257 621 q 251 550 257 570 q 245 509 245 530 q 251 480 245 493 q 257 453 257 467 q 255 395 257 423 q 253 338 253 367 q 254 282 253 309 q 256 228 256 255 q 255 202 256 214 q 253 176 254 189 q 279 158 257 163 q 330 152 302 153 q 384 152 357 151 q 422 154 410 154 q 441 151 432 154 q 460 149 450 149 q 488 153 475 149 q 517 158 502 158 q 535 156 526 158 q 553 154 543 154 q 592 150 576 153 q 622 142 608 148 q 647 125 635 136 q 673 96 659 114 q 681 75 681 86 z "},"M":{"ha":1086,"x_min":16,"x_max":1064,"o":"m 1064 93 q 1061 73 1064 83 q 1056 53 1059 63 q 1053 33 1054 43 q 1054 12 1051 22 q 1027 -2 1040 6 q 1000 -20 1014 -10 q 984 -17 992 -19 q 967 -12 975 -14 q 950 -8 959 -9 q 933 -9 942 -7 q 913 6 923 -1 q 889 17 903 14 q 885 79 889 47 q 876 106 882 93 q 871 134 871 119 q 873 156 871 145 q 876 178 876 166 q 872 199 876 189 q 861 218 867 209 q 861 250 860 234 q 863 282 863 267 q 860 313 863 296 q 844 339 858 330 l 844 347 q 842 361 844 355 q 839 375 839 368 q 830 392 836 379 q 820 419 825 404 q 809 447 814 433 q 804 465 805 460 q 801 495 801 480 q 802 526 802 511 q 799 553 802 541 q 791 579 795 566 q 783 604 787 591 q 777 631 779 617 q 766 622 768 629 q 762 607 763 615 q 759 591 761 599 q 750 581 758 583 l 749 576 q 751 569 749 572 q 754 561 754 566 q 751 549 754 553 q 744 542 748 545 q 735 536 740 539 q 728 528 730 533 q 728 523 728 526 q 729 519 729 521 q 724 503 729 510 q 718 485 718 495 q 721 470 718 477 q 724 456 724 463 q 717 431 724 450 q 701 392 710 413 q 683 353 692 371 q 669 330 673 335 q 666 297 665 314 q 665 262 667 279 q 659 242 663 252 q 652 222 655 233 q 648 202 648 213 q 642 182 647 191 q 633 171 638 176 q 622 162 628 167 q 611 153 616 158 q 602 142 605 149 q 568 135 585 140 q 533 131 551 131 q 521 132 527 131 q 509 134 515 132 q 494 153 500 142 q 476 170 488 163 q 463 219 473 195 q 432 258 454 243 q 436 271 436 264 q 428 292 436 282 q 418 313 420 301 q 417 329 416 321 q 418 345 418 336 q 416 353 418 350 q 414 361 414 357 q 418 371 418 366 q 410 386 418 372 q 392 419 401 400 q 374 459 382 439 q 366 492 366 479 l 370 494 q 368 498 370 496 q 366 504 366 500 q 369 516 366 509 q 374 528 372 522 q 369 545 372 537 q 363 560 366 553 q 357 576 359 568 q 355 595 355 585 q 343 578 352 591 q 325 551 334 566 q 308 525 315 537 q 301 509 301 513 q 304 498 301 503 q 307 488 307 493 q 305 476 307 481 q 300 464 302 470 q 295 452 298 458 q 293 439 293 446 q 296 408 293 423 q 298 376 298 392 q 294 346 298 355 q 284 332 290 336 q 270 325 277 328 q 257 313 263 322 q 252 261 253 287 q 249 210 251 235 q 246 201 248 203 q 240 196 243 198 q 233 193 237 195 q 227 187 229 191 q 229 180 228 183 q 229 172 229 176 q 224 155 229 163 q 212 142 219 148 q 214 131 214 136 q 215 119 215 125 q 212 105 215 112 q 203 93 209 98 l 203 87 q 205 70 203 79 q 208 53 208 61 q 201 45 208 47 q 191 39 194 43 q 185 28 186 35 q 180 17 184 22 q 164 0 174 7 q 146 -16 154 -7 l 132 -16 q 103 -14 117 -16 q 74 -16 88 -13 q 56 -1 64 -9 q 42 17 49 8 q 30 36 36 26 q 16 53 23 45 q 17 83 18 67 q 17 114 17 98 q 20 140 17 132 q 28 155 23 149 q 38 168 33 161 q 47 187 43 174 q 49 198 49 193 q 49 208 49 203 q 50 218 49 213 q 56 228 52 223 q 62 241 56 237 q 75 250 68 246 q 88 257 82 253 q 96 268 94 260 q 99 300 100 283 q 98 334 98 318 q 100 353 98 345 q 103 369 101 361 q 109 384 106 376 q 114 401 111 392 q 117 422 117 416 q 118 432 117 428 q 121 444 119 437 q 132 465 124 450 q 136 473 135 471 q 138 476 137 475 q 140 477 138 477 q 146 482 141 478 q 151 490 149 485 q 155 502 153 496 q 160 513 157 507 q 168 522 163 519 q 164 543 164 532 q 172 574 164 560 q 186 604 180 589 q 178 647 178 625 q 182 681 178 667 q 194 706 187 694 q 208 729 201 718 q 221 755 216 741 q 226 781 225 768 q 228 806 227 793 q 230 831 229 819 q 235 854 231 844 q 245 864 237 861 q 257 872 253 867 q 262 877 260 873 q 265 884 264 881 q 269 891 267 888 q 275 895 271 894 q 274 903 274 899 q 273 911 273 907 q 279 938 273 926 q 295 958 285 950 q 317 971 304 966 q 345 975 330 975 q 369 971 359 975 q 388 960 379 966 q 407 948 397 954 q 428 939 416 942 q 432 904 432 922 q 436 868 433 886 q 445 841 439 854 q 450 814 450 827 q 447 798 450 806 q 444 783 444 791 q 449 763 444 772 q 459 744 453 753 q 471 725 465 734 q 481 707 477 716 q 478 685 481 695 q 476 664 476 674 q 479 640 476 652 q 487 617 483 628 q 495 594 492 606 q 498 570 498 582 q 496 553 498 561 q 494 538 494 546 q 498 523 494 531 q 507 508 502 515 q 518 492 513 500 q 526 478 523 485 q 533 459 530 469 q 539 440 536 450 q 546 422 542 431 q 557 407 549 414 q 569 423 564 411 q 580 452 575 435 q 590 486 585 468 q 598 520 594 504 q 607 547 603 536 q 615 562 611 559 q 614 568 615 566 q 614 572 614 570 q 622 602 614 588 q 633 631 629 616 q 640 666 639 648 q 647 701 641 684 q 658 720 650 712 q 669 737 665 728 q 680 770 675 752 q 684 806 684 789 q 681 818 684 812 q 677 832 677 825 q 684 855 677 840 q 699 886 690 870 q 716 916 707 902 q 732 935 726 929 q 757 938 745 937 q 782 940 769 940 q 790 940 786 940 q 799 939 794 940 q 815 931 808 937 q 831 921 822 925 q 848 916 838 918 q 861 908 857 915 l 861 899 q 868 868 861 882 q 885 840 876 854 l 884 828 q 889 793 882 809 q 903 760 895 777 q 909 733 907 747 q 911 705 911 719 q 912 676 911 690 q 916 648 913 662 q 924 618 919 630 q 929 586 929 606 q 931 570 929 577 q 936 556 934 563 q 939 541 938 549 q 937 522 940 533 q 945 508 940 514 q 956 496 950 502 q 966 484 961 490 q 974 469 971 477 q 977 451 977 460 q 978 433 976 441 q 986 415 981 424 q 991 397 991 407 l 991 382 q 994 363 991 372 q 1001 345 997 354 q 1007 328 1004 336 q 1010 310 1010 319 q 1007 290 1010 299 q 1004 269 1004 280 q 1014 232 1004 255 q 1034 183 1023 208 q 1055 133 1045 157 q 1064 93 1064 109 z "},"N":{"ha":889,"x_min":74,"x_max":827,"o":"m 827 142 q 820 127 827 134 q 808 115 812 121 q 806 106 805 111 q 804 97 806 102 q 797 93 801 94 q 790 89 792 92 q 783 76 786 83 q 775 61 779 68 q 767 48 772 54 q 754 39 762 42 q 745 36 750 37 q 734 36 740 36 q 704 41 720 36 q 677 57 687 45 q 665 62 673 59 q 647 68 656 65 q 630 74 638 71 q 619 79 622 77 q 613 90 616 83 q 607 102 610 97 q 597 111 603 107 q 589 119 592 114 q 584 133 585 125 q 579 147 583 141 q 557 181 571 165 q 530 214 544 198 q 509 234 523 222 q 490 254 496 245 q 488 263 488 258 q 486 272 488 268 q 476 289 482 281 q 468 309 470 297 q 448 330 460 321 q 428 353 436 339 q 407 380 418 368 q 384 405 395 393 q 363 432 372 418 q 351 465 355 446 q 315 499 334 483 q 285 536 295 515 q 276 553 279 546 q 268 566 273 560 q 257 576 263 571 q 239 586 250 581 q 236 563 237 574 q 236 539 236 551 q 240 467 236 503 q 244 395 244 431 q 241 370 244 382 q 239 347 239 359 q 243 310 239 328 q 248 273 248 292 q 249 264 248 268 q 252 259 250 261 q 256 254 254 256 q 257 248 257 252 q 255 227 257 237 q 253 205 253 216 q 255 191 253 200 q 261 171 258 181 q 268 152 264 161 q 275 138 272 142 q 266 116 270 126 q 259 97 262 106 q 256 76 257 87 q 257 53 256 66 q 241 38 254 47 q 214 20 229 29 q 186 5 199 12 q 167 -1 172 -1 q 157 0 161 -1 q 152 3 154 1 q 148 7 150 5 q 140 12 145 9 q 129 17 136 16 q 118 21 122 18 q 105 40 112 26 q 92 68 98 53 q 82 97 86 83 q 78 119 78 111 q 84 140 78 130 q 92 160 90 151 q 97 199 95 178 q 100 240 100 221 q 92 277 100 259 q 97 302 96 289 q 98 328 98 315 q 93 384 98 354 q 74 437 87 414 q 78 459 75 449 q 86 480 82 470 q 94 501 90 490 q 100 522 98 511 q 101 555 103 539 q 100 587 100 572 q 101 603 100 596 q 106 616 102 609 q 101 635 104 626 q 96 653 97 644 q 95 674 94 663 q 96 696 96 684 q 94 720 96 709 q 92 745 92 732 q 96 764 92 755 q 100 783 100 773 q 95 831 100 807 q 90 879 90 855 q 103 910 90 896 q 127 935 115 925 q 208 906 174 929 q 253 836 241 883 q 256 830 254 831 q 260 828 258 828 q 265 827 262 827 q 271 823 268 826 q 276 812 275 818 q 279 800 276 806 q 295 785 290 787 q 302 781 299 783 q 310 771 305 779 q 325 742 314 764 q 343 720 335 732 q 360 696 352 708 q 378 672 369 684 q 400 653 388 661 q 405 637 401 644 q 410 621 408 629 q 422 605 412 616 q 443 582 432 593 q 461 560 453 570 q 469 549 469 550 q 472 546 469 546 q 489 535 481 542 q 504 522 496 528 q 533 469 513 492 q 579 429 553 447 q 583 416 580 422 q 591 405 587 410 q 600 395 595 400 q 607 383 604 389 q 609 375 609 379 q 611 367 609 371 q 617 359 613 362 q 625 353 622 357 q 630 341 628 348 q 634 329 631 335 q 640 318 636 322 q 652 313 644 313 q 656 336 656 323 q 652 364 656 351 q 645 392 649 378 q 637 419 640 406 q 633 447 633 433 q 638 465 633 456 q 643 482 643 473 q 639 501 643 492 q 633 518 635 510 q 631 553 631 534 q 631 592 631 572 q 627 630 630 612 q 615 661 624 648 q 616 669 616 665 q 616 677 616 673 q 614 714 616 695 q 611 751 611 732 q 614 779 611 765 q 625 806 616 793 q 616 829 623 819 q 603 850 609 838 q 604 856 603 853 q 604 863 604 859 q 602 877 604 869 q 598 891 600 884 q 594 906 595 899 q 593 921 592 913 l 593 930 l 597 935 q 597 947 597 941 q 596 958 596 952 q 606 981 596 970 q 629 1001 616 992 q 657 1016 643 1010 q 682 1022 672 1022 q 696 1019 689 1022 q 709 1011 703 1015 q 722 1003 715 1007 q 736 997 728 999 q 754 970 743 981 q 772 945 766 959 q 775 929 775 938 q 776 912 776 921 q 777 893 776 903 q 782 876 778 884 q 777 863 778 871 q 775 846 775 855 q 776 829 775 838 q 777 814 777 821 q 774 805 777 808 q 772 796 772 802 q 774 789 772 791 q 777 783 777 787 q 773 769 777 777 q 768 755 770 762 q 765 733 766 744 q 765 711 765 722 q 772 650 765 679 q 782 590 779 621 q 783 548 783 569 q 783 507 783 528 q 783 466 783 486 q 786 425 783 446 q 792 386 789 401 q 800 357 796 371 q 806 326 803 343 q 808 281 808 309 q 812 244 808 262 q 817 207 817 226 q 822 183 817 195 q 827 160 827 172 l 827 155 l 822 147 q 827 142 827 147 z "},"O":{"ha":926,"x_min":56,"x_max":876,"o":"m 875 581 q 871 550 876 565 q 867 519 867 535 q 869 469 867 494 q 872 418 872 444 q 869 399 872 412 q 862 368 867 385 q 853 330 858 350 q 843 291 848 309 q 833 259 838 273 q 827 239 829 245 q 806 196 817 217 q 790 154 795 176 q 751 119 770 136 q 714 82 732 101 q 705 68 709 76 q 698 53 701 61 q 692 38 695 45 q 684 24 688 30 q 657 3 673 10 q 629 -12 642 -3 q 622 -19 625 -15 q 615 -25 619 -23 q 595 -34 606 -31 q 575 -40 585 -37 q 554 -46 564 -43 q 534 -57 544 -50 q 519 -51 527 -54 q 504 -43 511 -48 q 483 -52 494 -48 q 457 -58 471 -56 q 431 -61 444 -60 q 408 -62 418 -62 q 396 -62 403 -62 q 382 -60 389 -61 q 367 -57 374 -59 q 355 -53 360 -56 q 352 -51 354 -52 q 349 -47 351 -49 q 345 -45 347 -45 q 342 -49 342 -45 q 299 -31 321 -39 q 257 -12 278 -23 q 231 5 243 -5 q 207 27 219 16 q 183 48 195 38 q 158 68 172 59 q 151 95 156 81 q 136 118 146 108 q 131 132 135 126 q 122 142 127 137 q 114 152 117 146 q 110 168 110 158 l 110 171 l 100 176 q 96 196 96 186 q 92 216 95 206 q 84 231 88 224 q 78 248 80 239 q 75 274 75 260 q 74 302 75 288 q 71 330 74 317 q 60 355 68 343 q 64 376 64 366 q 60 407 64 392 q 56 437 56 422 q 58 464 56 451 q 60 489 60 476 q 59 519 60 505 q 58 550 58 534 q 59 580 58 570 q 62 597 60 590 q 67 612 64 604 q 74 637 70 621 q 76 655 76 646 q 78 673 76 664 q 96 726 85 699 q 114 781 106 753 q 120 792 115 785 q 130 805 125 798 q 141 820 136 812 q 150 835 146 827 q 152 846 152 840 q 154 857 152 852 q 160 863 156 861 q 168 869 165 865 q 178 889 174 880 q 191 905 182 897 q 202 917 195 911 q 217 927 210 922 q 230 938 224 932 q 239 951 235 944 q 251 956 241 951 q 275 966 261 960 q 303 980 288 972 q 331 995 318 987 q 354 1007 345 1002 q 366 1014 363 1012 q 372 1013 369 1013 q 378 1013 374 1013 q 398 1014 389 1013 q 416 1015 407 1015 q 444 1010 431 1015 q 471 1004 457 1004 q 491 1007 481 1004 q 511 1010 500 1010 q 537 1002 525 1010 q 561 991 549 995 q 574 988 567 989 q 590 987 582 987 q 604 985 597 986 q 615 982 611 984 q 622 976 619 980 q 629 968 625 971 q 638 966 633 966 q 647 964 643 967 q 656 956 654 959 q 660 949 657 953 q 668 941 662 946 q 692 928 674 936 q 702 923 697 926 q 714 920 707 920 q 745 888 728 903 q 777 857 761 873 l 790 852 q 803 831 794 848 q 821 794 812 814 q 837 758 830 775 q 844 736 844 741 q 843 716 844 726 q 842 696 842 707 q 842 682 842 688 q 843 667 843 675 q 845 662 843 665 q 851 655 848 659 q 858 648 854 652 q 863 642 861 644 q 865 626 865 634 q 867 610 865 618 q 871 596 868 604 q 875 583 875 589 l 875 581 m 736 440 q 731 465 736 454 q 724 489 726 476 q 725 495 725 492 q 725 503 725 498 q 720 526 725 515 q 714 550 714 537 q 716 574 714 563 q 718 599 718 586 l 718 637 q 701 669 710 650 q 683 710 692 688 q 661 754 673 732 q 635 792 650 776 q 605 819 621 809 q 567 825 588 828 q 528 854 549 842 q 482 867 506 867 q 444 863 465 867 q 403 852 423 859 q 365 837 383 846 q 334 817 347 827 q 324 812 329 813 q 315 807 319 811 q 313 798 312 804 q 311 789 313 793 q 305 784 310 789 q 295 774 300 780 q 284 764 289 769 q 279 758 280 759 q 279 753 278 755 q 281 747 281 751 q 278 741 281 746 q 272 730 275 736 q 265 718 269 724 q 261 708 262 712 q 261 689 260 699 q 262 671 262 680 q 257 641 262 656 q 247 611 252 626 q 236 579 241 595 q 231 547 231 564 q 233 529 231 538 q 235 510 235 519 q 229 486 235 497 q 221 463 223 475 q 228 445 227 454 q 229 427 229 436 q 228 400 229 413 q 227 374 227 387 q 228 349 227 359 q 231 328 229 338 q 238 309 234 318 q 249 288 243 299 q 256 277 252 282 q 261 265 259 271 q 268 234 267 250 q 275 203 270 218 q 280 195 277 198 q 287 188 283 191 q 292 180 290 184 q 293 171 294 176 q 308 164 302 168 q 325 163 313 161 q 341 138 329 150 q 370 118 354 127 q 403 105 387 110 q 432 100 420 100 q 443 103 439 100 q 451 112 447 107 q 459 120 454 117 q 472 122 463 123 q 481 126 476 126 q 491 124 487 126 q 501 122 496 122 q 513 125 507 122 q 526 134 519 129 q 540 143 533 138 q 553 149 547 147 q 566 150 559 151 q 579 149 573 149 l 585 149 l 593 158 q 616 164 604 161 q 637 176 629 167 q 654 221 647 197 q 673 265 662 245 q 692 291 684 284 q 705 303 700 298 q 712 320 709 309 q 714 361 714 332 q 716 371 714 367 q 721 379 719 375 q 725 388 724 383 q 724 400 726 393 q 733 418 731 408 q 736 440 736 429 z "},"P":{"ha":747,"x_min":77,"x_max":717,"o":"m 717 656 q 714 644 714 652 q 714 627 713 636 q 715 608 714 617 q 715 595 715 600 q 715 580 715 587 q 713 566 715 573 l 704 553 q 703 545 703 549 q 704 538 704 541 l 704 534 l 694 529 q 685 505 689 517 q 676 479 681 492 q 664 455 671 467 q 646 436 656 444 q 639 434 642 434 q 632 431 635 434 q 612 412 621 422 q 587 400 603 402 q 568 377 582 392 q 538 347 554 363 q 507 318 522 332 q 485 301 492 305 q 475 298 480 298 q 464 297 469 298 q 453 296 458 297 q 444 292 448 295 q 421 277 434 283 q 395 269 409 271 q 378 256 388 260 q 357 247 368 251 q 336 238 347 243 q 318 225 326 233 q 290 221 304 221 q 260 216 275 221 q 252 169 254 193 q 250 122 250 146 q 251 75 250 98 q 252 28 252 51 l 252 16 q 237 -2 244 7 q 223 -17 231 -10 q 206 -27 216 -23 q 183 -31 196 -31 q 150 -24 165 -31 q 117 -12 134 -18 q 110 5 111 -6 q 104 24 108 16 q 90 33 93 29 q 86 47 86 36 q 81 58 86 54 q 77 74 77 63 q 82 111 77 92 q 90 149 87 131 q 91 172 92 161 q 90 195 90 182 q 94 211 90 203 q 93 264 93 237 q 93 317 94 291 q 90 370 92 344 q 81 422 87 396 q 85 435 82 429 q 91 447 88 441 q 96 458 94 452 q 98 472 98 465 q 92 504 98 489 q 86 534 86 518 q 89 557 86 548 q 94 572 91 566 q 100 585 98 579 q 104 597 103 590 q 100 604 102 601 q 98 610 98 606 q 100 615 98 613 q 104 619 102 617 q 99 635 103 628 q 94 650 96 642 q 85 702 90 674 q 81 754 81 730 q 85 795 81 775 q 89 838 89 816 q 81 879 89 859 q 92 898 89 887 q 100 922 95 909 q 114 947 104 934 q 144 974 123 960 q 168 988 155 980 q 193 1000 180 997 q 221 1006 207 1004 q 249 1009 235 1008 q 277 1011 263 1010 q 306 1018 292 1013 q 334 1030 320 1023 q 364 1036 347 1036 q 384 1033 374 1036 q 404 1026 394 1030 q 422 1020 413 1023 q 441 1017 431 1017 q 460 1019 451 1017 q 479 1022 470 1021 q 518 1002 499 1013 q 555 982 536 991 q 565 980 559 980 q 574 978 570 979 q 611 952 597 968 q 642 920 625 937 q 647 909 644 916 q 653 894 650 902 q 658 878 655 886 q 664 865 661 870 q 670 859 666 861 q 676 852 674 857 q 679 844 680 848 q 682 835 679 839 q 692 821 686 827 q 704 807 699 814 q 709 731 704 769 q 717 656 715 693 m 551 714 q 548 738 551 726 q 542 760 545 749 q 535 783 538 771 q 533 807 532 795 q 514 821 525 815 q 493 835 503 826 q 475 853 487 848 q 449 859 463 858 q 420 859 435 860 q 393 857 406 857 q 362 861 378 857 q 330 865 346 865 q 279 851 303 865 q 243 812 254 836 q 243 796 243 804 q 244 781 244 788 q 242 762 244 771 q 237 745 241 753 q 246 719 243 732 q 249 692 249 705 q 246 663 249 677 q 239 633 243 648 q 232 605 235 618 q 229 579 229 591 q 235 550 229 564 q 243 521 241 536 q 243 474 245 498 q 241 428 241 451 q 243 399 241 413 q 248 374 244 386 q 279 377 264 373 q 308 386 294 380 q 335 399 321 392 q 364 414 349 406 q 384 421 374 418 q 404 431 395 425 q 421 444 410 434 q 444 467 432 454 q 466 490 456 479 q 479 507 476 501 q 481 514 481 511 q 485 521 481 517 q 491 523 487 523 q 497 525 495 523 q 504 533 499 527 q 515 545 509 538 q 524 557 520 551 q 529 566 528 564 q 531 586 532 575 q 529 607 529 596 q 531 625 529 617 q 535 642 533 633 q 540 661 538 650 q 542 685 542 671 q 547 701 542 695 q 551 714 551 707 z "},"Q":{"ha":900,"x_min":52,"x_max":848,"o":"m 848 494 q 841 457 841 477 q 842 419 842 438 q 839 386 842 403 q 822 355 836 368 q 823 346 823 350 q 823 336 823 342 q 819 298 823 315 q 808 266 815 281 q 794 236 802 251 q 778 203 786 221 q 775 194 778 197 q 769 189 772 191 q 762 185 766 187 q 755 180 758 184 q 746 134 754 153 q 724 101 738 115 q 693 73 711 86 q 657 46 676 60 q 675 7 663 25 q 702 -28 687 -11 q 731 -61 716 -45 q 759 -97 747 -78 q 779 -137 771 -115 q 787 -184 787 -158 q 787 -197 787 -191 q 786 -210 787 -203 q 754 -226 770 -217 q 720 -235 739 -235 q 705 -233 711 -235 q 695 -230 700 -232 q 686 -225 690 -228 q 675 -218 682 -222 q 663 -214 669 -215 q 653 -210 657 -213 q 644 -202 649 -207 q 634 -191 639 -197 q 624 -179 629 -184 q 616 -170 619 -173 q 609 -156 611 -163 q 603 -142 607 -148 q 586 -121 595 -131 q 567 -102 576 -112 q 555 -86 561 -95 q 545 -68 550 -77 q 533 -51 539 -59 q 518 -39 526 -43 q 457 -55 489 -48 q 395 -62 425 -62 q 376 -61 387 -62 q 354 -59 366 -60 q 333 -56 343 -58 q 317 -53 323 -54 q 306 -47 311 -51 q 295 -41 300 -44 q 284 -36 290 -38 q 271 -35 279 -34 q 259 -19 268 -29 q 237 5 250 -8 q 210 31 224 18 q 182 56 195 45 q 158 76 169 68 q 142 86 147 84 l 142 89 q 140 99 142 95 q 135 107 138 103 q 129 114 132 111 q 123 122 125 117 q 119 136 120 129 q 115 149 119 142 q 102 164 110 158 q 92 180 95 170 q 89 206 89 193 q 88 232 88 219 q 87 258 88 245 q 83 283 86 271 q 76 299 81 292 q 69 315 71 306 q 67 337 67 326 q 65 359 67 348 q 60 378 64 369 q 57 396 57 387 l 57 399 q 58 410 56 404 q 61 422 61 416 q 56 453 61 438 q 52 485 52 468 q 54 524 52 512 q 60 544 56 536 q 69 559 64 551 q 79 583 74 566 q 80 596 81 589 q 78 610 78 604 q 82 622 78 616 q 87 633 85 627 q 95 660 93 646 q 102 686 96 673 q 109 694 104 692 q 115 700 113 696 q 121 727 120 711 q 127 754 122 743 l 127 762 l 138 762 q 147 773 143 768 q 155 785 151 779 q 160 808 156 798 q 169 825 163 817 q 182 839 174 832 q 200 852 190 845 q 213 865 207 858 q 231 869 220 872 q 255 897 237 882 q 293 922 272 911 q 334 941 313 934 q 370 946 355 947 q 388 957 379 952 q 406 968 397 962 q 429 972 418 968 q 451 980 439 976 q 473 988 462 985 q 496 991 484 991 q 507 990 503 991 q 514 988 511 989 q 522 985 518 987 q 532 982 526 983 q 550 981 541 980 q 567 978 559 981 q 576 971 572 976 q 585 964 579 966 q 596 962 590 962 q 607 960 602 963 q 624 947 616 956 q 639 933 631 939 q 660 924 648 927 q 679 916 671 922 q 694 900 684 911 q 716 873 704 888 q 742 840 728 857 q 766 806 755 822 q 786 777 778 789 q 796 758 794 764 q 801 733 800 746 q 804 708 801 721 q 819 675 810 690 q 832 642 828 661 q 833 613 834 627 q 836 583 832 598 q 839 577 837 578 q 841 573 840 575 q 843 568 842 571 q 844 558 844 565 q 843 539 844 549 q 842 521 842 530 q 848 494 842 506 m 693 545 q 691 561 693 553 q 686 575 688 568 q 681 587 684 581 q 679 597 679 592 q 682 607 679 603 q 685 618 685 612 q 683 627 685 623 q 677 634 680 631 q 672 642 675 638 q 669 650 670 645 q 663 691 668 674 q 649 723 657 709 q 630 751 641 737 q 607 785 619 766 q 589 790 597 786 q 572 799 581 794 q 539 812 553 808 q 511 819 525 817 q 482 821 497 821 q 447 821 467 821 q 435 823 441 821 q 424 825 430 825 q 395 818 413 825 q 359 800 377 810 q 325 778 340 789 q 302 758 309 766 q 298 749 299 754 q 294 741 296 745 q 271 710 283 725 q 249 677 258 695 q 241 659 244 668 q 231 642 239 649 l 231 639 q 233 628 231 633 q 236 616 236 623 l 236 610 q 227 594 227 602 q 227 575 227 585 q 225 568 227 570 q 222 561 224 566 q 221 534 219 547 q 222 507 222 521 q 217 447 222 477 q 212 386 212 416 q 217 365 212 374 q 222 346 222 356 q 220 334 222 340 q 218 322 218 328 q 222 311 218 316 q 227 301 225 307 q 228 289 229 295 q 227 277 227 283 q 231 257 227 269 q 242 233 236 245 q 252 207 248 220 q 254 184 256 195 q 270 166 261 174 q 289 150 279 158 q 306 132 298 141 q 321 113 315 123 q 329 115 325 114 q 338 115 333 115 q 357 111 349 115 q 373 100 365 106 q 389 90 380 94 q 410 85 397 85 q 421 86 416 85 q 433 90 427 88 q 428 113 432 103 q 419 131 425 123 q 408 148 414 140 q 397 167 402 157 q 391 205 397 186 q 385 243 385 224 q 393 270 385 258 q 415 288 402 281 q 444 298 429 295 q 472 301 459 301 q 504 293 491 301 q 527 272 517 285 q 544 245 536 260 q 557 217 551 231 q 571 195 564 204 q 589 184 578 186 q 592 195 589 191 q 599 202 595 199 q 606 209 602 205 q 612 216 610 212 q 653 295 633 254 q 688 378 673 336 q 682 406 681 391 q 684 436 684 420 q 681 447 684 441 q 679 458 679 452 q 686 500 679 479 q 693 545 693 522 z "},"R":{"ha":770,"x_min":78,"x_max":720,"o":"m 710 568 q 704 531 710 552 q 689 491 697 510 q 675 456 682 471 q 669 436 669 441 q 656 422 664 428 q 642 408 648 416 q 634 390 636 401 q 624 374 632 379 q 613 367 620 370 q 599 361 606 364 q 585 355 591 357 q 575 350 578 352 q 566 341 570 347 q 557 332 562 336 q 550 331 553 330 q 543 328 547 331 l 539 319 q 528 317 534 316 q 517 315 522 317 q 458 289 488 302 q 396 269 429 277 q 410 251 401 258 q 429 240 418 244 q 451 231 439 235 q 472 221 462 227 q 481 212 477 218 q 490 203 485 207 q 526 180 507 191 q 563 158 545 169 q 599 135 581 147 q 633 109 617 123 q 659 101 648 106 q 679 87 669 95 q 697 70 688 79 q 714 50 705 60 l 714 43 q 712 12 714 24 q 704 -9 710 -1 q 687 -23 698 -17 q 660 -35 677 -28 q 649 -38 654 -37 q 637 -40 644 -40 q 615 -40 628 -40 q 593 -39 602 -41 q 584 -35 591 -38 q 568 -27 576 -31 q 552 -18 559 -22 q 543 -12 545 -14 q 526 7 534 -4 q 509 24 519 18 q 481 33 496 31 q 454 41 467 34 q 429 63 439 50 q 404 86 419 77 q 375 100 391 94 q 346 113 359 105 q 326 133 334 121 q 306 154 317 144 q 293 161 300 159 q 279 167 286 163 q 271 178 274 171 q 260 184 267 184 l 257 184 q 248 160 248 175 q 252 125 248 142 q 257 90 257 108 q 254 75 257 83 q 249 60 250 67 q 248 43 246 52 q 249 26 249 35 q 242 6 249 16 q 225 -12 235 -4 q 203 -25 215 -20 q 182 -31 192 -31 q 153 -25 168 -31 q 122 -17 138 -20 q 107 14 114 -2 q 100 46 100 29 q 101 57 100 52 q 104 68 102 62 q 93 111 96 89 q 90 154 90 132 q 96 212 90 184 q 102 269 102 240 q 101 272 102 271 q 100 275 101 274 l 92 279 q 91 286 90 283 q 92 292 92 288 q 91 303 92 296 q 89 317 90 310 q 84 329 87 323 q 78 338 81 335 q 87 372 87 353 q 86 410 86 391 q 91 438 86 425 q 96 467 96 452 q 94 511 96 488 q 92 555 92 534 q 85 595 92 576 q 78 633 78 614 q 81 649 78 642 q 86 664 85 656 q 88 690 90 677 q 86 715 86 703 q 89 724 86 722 q 92 732 92 726 q 87 748 92 739 q 82 768 82 757 q 84 812 82 790 q 86 857 86 834 q 90 878 86 867 q 96 898 93 888 q 101 917 100 907 q 100 937 103 927 q 111 943 104 943 q 122 946 117 944 q 142 958 133 951 q 163 968 152 964 q 185 975 174 973 q 208 978 196 976 q 218 983 214 979 q 228 986 222 986 q 238 984 233 986 q 249 982 243 982 q 255 987 252 987 q 262 986 257 986 q 272 987 267 986 q 283 990 277 989 q 293 992 288 991 q 301 991 298 993 q 314 994 308 991 q 326 996 320 996 q 339 991 334 996 q 351 986 344 987 q 369 986 360 985 q 386 987 378 987 q 404 985 396 987 q 419 980 412 983 q 433 974 426 977 q 450 968 441 970 q 479 965 464 964 q 509 960 494 965 q 526 952 517 956 q 543 942 536 947 q 551 935 549 939 q 557 928 553 931 q 570 925 564 924 q 579 924 576 926 q 593 911 584 921 q 614 888 603 901 q 635 865 625 876 q 652 847 646 853 l 650 842 q 653 827 650 833 q 663 814 657 820 q 673 802 668 808 q 682 789 679 796 q 685 779 686 785 q 688 766 684 773 q 697 744 693 755 q 710 722 701 732 q 710 709 711 716 q 708 694 708 702 q 714 670 708 681 q 720 644 720 659 q 715 607 720 625 q 710 568 710 589 m 513 785 l 503 789 q 488 808 496 798 q 468 821 479 819 q 461 825 465 825 q 455 823 458 825 q 447 821 452 821 q 429 825 439 821 q 400 829 419 829 q 387 833 395 829 q 374 839 380 838 q 339 842 358 841 q 304 843 320 843 q 294 840 298 843 q 283 835 290 836 q 267 832 277 833 q 249 829 258 831 q 235 822 241 827 q 229 806 229 817 q 234 782 229 793 q 239 758 239 771 q 234 732 239 745 q 229 705 229 719 q 232 653 229 680 q 235 600 235 627 q 239 554 235 576 q 243 507 243 531 q 240 472 243 490 q 237 436 237 454 q 238 420 237 428 q 243 404 239 412 q 266 409 254 408 q 292 410 279 410 q 317 409 304 410 q 342 408 330 408 l 359 408 q 372 416 366 414 q 386 420 378 418 q 400 422 393 421 q 414 427 407 424 q 426 435 420 429 q 438 445 432 440 q 450 452 444 449 q 464 454 456 455 l 472 454 q 480 469 475 463 q 492 480 486 475 q 504 493 498 486 q 513 507 509 499 q 528 515 521 509 q 539 529 536 521 l 549 534 l 549 543 l 557 547 q 560 559 560 553 q 559 571 559 564 q 562 584 559 576 q 567 601 564 591 q 573 623 570 611 q 575 648 575 635 q 574 659 575 655 q 570 666 572 663 q 566 673 568 669 q 561 682 563 676 q 559 693 559 687 q 558 706 558 700 q 556 718 557 712 q 553 726 555 723 q 532 755 543 742 q 513 785 520 769 z "},"S":{"ha":765,"x_min":40,"x_max":730,"o":"m 730 704 q 728 663 730 683 q 721 624 726 644 q 680 606 702 611 q 635 600 658 600 q 624 601 629 600 q 614 602 619 602 q 604 615 609 612 q 596 621 600 618 q 590 630 592 624 q 587 653 587 636 q 583 667 587 663 q 578 677 579 670 q 575 714 574 702 q 576 738 576 727 q 573 763 576 749 q 555 803 569 777 q 551 815 553 807 q 546 825 549 823 q 536 832 543 829 q 521 840 529 836 q 505 847 513 844 q 493 852 498 850 q 480 860 488 855 q 465 868 473 864 q 450 876 457 873 q 436 879 442 879 q 422 877 429 879 q 407 875 415 875 q 392 877 399 875 q 378 879 385 879 q 354 874 369 879 q 323 862 340 869 q 289 844 307 854 q 257 824 272 834 q 230 803 241 813 q 215 785 219 793 q 206 758 208 772 q 202 729 203 743 q 197 701 200 715 q 187 673 195 686 q 197 654 194 665 q 201 633 199 644 q 206 614 203 623 q 215 597 208 604 q 228 587 220 591 q 241 577 235 582 q 251 565 247 572 q 256 547 256 558 q 274 545 263 548 q 296 537 285 542 q 318 528 307 533 q 336 521 329 524 q 347 514 342 519 q 358 507 352 509 q 390 504 374 503 q 421 503 406 506 q 441 496 433 500 q 456 489 449 492 q 472 483 463 486 q 496 481 481 481 q 507 477 501 481 q 520 471 513 474 q 535 464 527 467 q 551 463 543 461 q 570 440 562 452 q 586 415 578 427 q 602 390 593 402 q 623 368 611 378 q 622 362 623 365 q 621 357 621 360 q 628 335 621 342 q 640 315 635 327 q 639 304 639 309 q 639 293 639 298 q 644 245 639 269 q 650 197 650 221 q 647 158 650 174 q 639 128 644 142 q 625 100 633 114 q 604 68 616 87 q 590 41 595 56 q 574 16 584 26 l 564 16 l 564 5 q 551 -1 558 1 q 538 -8 544 -4 q 504 -31 515 -23 q 482 -43 492 -39 q 457 -48 471 -47 q 416 -53 444 -50 q 386 -58 401 -54 q 357 -61 372 -61 q 334 -57 342 -61 q 314 -49 326 -52 q 298 -46 306 -47 q 281 -45 290 -45 q 266 -43 273 -44 q 252 -39 258 -42 q 239 -30 244 -35 q 228 -21 234 -25 q 222 -18 226 -20 q 215 -14 218 -16 q 211 -9 212 -12 q 211 -3 209 -7 q 172 14 187 1 q 145 42 157 26 q 122 75 134 58 q 94 104 111 92 q 95 110 94 108 q 96 115 96 112 q 93 133 96 124 q 86 150 90 142 q 80 166 83 158 q 77 182 77 174 q 83 204 77 193 q 99 226 90 216 q 121 242 109 236 q 143 249 133 249 q 165 245 155 249 q 184 235 175 241 q 203 221 194 229 q 220 207 212 214 q 229 186 222 196 q 241 168 235 177 q 252 148 247 158 q 260 126 258 138 q 279 116 270 123 q 297 102 288 109 q 316 91 307 96 q 338 86 326 86 q 351 89 338 86 q 379 95 364 92 q 408 101 395 98 q 421 104 420 104 q 428 111 425 106 q 435 118 431 115 q 446 120 440 121 q 457 122 452 119 q 472 135 465 126 q 489 144 478 143 q 488 160 489 152 q 488 175 488 168 q 488 180 488 177 q 489 184 488 182 l 497 195 l 497 204 q 501 214 497 210 q 505 225 505 218 q 504 235 505 228 q 500 248 503 241 q 496 261 498 255 q 493 269 494 267 l 484 275 q 482 284 481 279 q 479 292 483 288 l 471 297 q 465 308 467 302 q 457 319 463 314 q 435 333 450 326 q 404 344 420 339 q 372 352 387 349 q 346 355 356 355 q 331 354 338 355 q 318 350 324 353 q 306 355 310 352 q 300 360 302 357 q 294 366 297 363 q 285 370 292 368 q 267 374 279 372 q 236 375 256 375 q 196 388 216 375 q 156 419 176 401 q 121 456 137 437 q 94 489 104 475 q 92 498 92 492 q 89 507 92 504 l 81 511 q 77 522 79 517 q 66 529 75 527 l 66 533 q 62 562 66 548 q 49 587 57 575 q 50 597 50 593 q 50 607 50 602 q 45 657 50 632 q 40 707 40 682 q 44 719 40 713 q 49 732 47 724 q 57 769 54 749 q 62 807 60 788 q 83 826 75 817 q 89 852 91 835 q 104 863 97 857 q 117 875 111 869 q 121 888 117 882 q 129 901 125 895 q 135 913 132 907 q 139 928 138 920 q 159 942 149 935 q 175 960 169 949 q 190 966 178 960 q 218 982 203 973 q 248 998 234 990 q 268 1008 262 1006 q 293 1016 278 1013 q 323 1021 308 1018 q 351 1027 338 1023 q 372 1036 364 1030 q 421 1029 393 1031 q 477 1023 450 1027 q 530 1010 505 1019 q 570 982 555 1001 q 595 976 585 981 q 616 964 606 971 q 636 951 626 958 q 659 942 646 945 q 663 928 659 934 l 672 924 q 679 909 676 917 q 685 894 682 901 q 690 879 687 886 q 699 865 693 871 q 706 860 702 862 q 713 852 711 857 q 713 845 714 848 q 711 838 711 841 l 713 835 l 721 825 q 725 799 724 815 q 728 766 727 783 q 730 731 729 748 q 730 704 730 715 z "},"T":{"ha":693,"x_min":5,"x_max":689,"o":"m 621 785 q 610 787 615 787 q 600 787 606 787 q 565 782 583 787 q 530 777 548 777 q 513 778 522 777 q 496 781 505 779 q 482 777 490 777 q 472 781 475 777 q 464 785 470 785 q 453 782 458 785 q 443 778 448 780 q 432 775 437 776 q 419 777 427 774 q 418 767 418 772 q 418 758 418 762 q 421 720 418 739 q 424 681 424 701 q 419 653 424 667 q 415 625 415 640 q 419 591 415 608 q 424 557 424 574 q 419 530 424 543 q 415 503 415 516 q 419 480 415 491 q 424 458 422 470 q 428 405 427 431 q 429 351 429 378 q 427 299 429 326 q 424 245 424 272 q 429 212 424 228 q 433 180 433 196 q 431 165 433 172 q 429 149 429 157 q 429 115 428 132 q 429 81 429 98 q 425 43 429 61 q 421 5 421 24 q 417 -7 421 -1 q 406 -18 412 -14 q 392 -26 399 -23 q 379 -29 385 -29 q 357 -28 368 -29 q 336 -26 347 -26 q 326 -27 331 -26 q 317 -31 321 -27 q 282 13 292 -14 q 272 68 272 39 q 276 109 272 89 q 284 150 279 130 q 292 190 288 170 q 296 232 296 210 q 296 253 296 242 q 294 275 296 264 q 287 297 292 286 q 281 318 281 308 q 283 327 281 322 q 285 338 285 332 q 283 348 285 343 q 281 359 281 353 q 288 389 281 374 q 294 419 294 404 q 292 443 294 431 q 286 467 289 455 q 279 491 282 479 q 277 515 277 503 q 279 536 277 526 q 281 557 281 547 q 279 577 281 568 q 277 597 277 587 q 279 610 277 604 q 281 624 281 616 q 276 651 281 637 q 272 677 272 664 q 277 705 272 691 q 282 732 282 718 q 277 758 282 747 q 245 765 262 764 q 214 766 229 766 q 160 764 186 766 q 107 762 134 762 q 74 766 92 762 q 40 777 56 769 q 15 798 25 785 q 5 831 5 811 q 13 866 5 848 q 25 901 21 884 q 83 920 52 915 q 144 926 113 925 q 207 927 176 928 q 267 928 237 926 q 274 942 273 933 q 277 959 276 950 q 278 977 277 968 q 285 991 279 986 l 285 994 q 292 1001 285 997 q 309 1010 299 1006 q 327 1017 318 1014 q 339 1019 336 1019 q 370 1015 360 1019 q 386 1004 380 1010 q 394 992 391 998 q 406 986 397 987 q 415 960 411 974 q 424 933 418 946 q 448 938 436 935 q 473 942 460 942 q 489 938 481 942 q 504 933 496 935 l 514 937 l 518 933 q 547 931 532 930 q 575 933 562 933 q 617 928 597 933 q 654 913 638 924 q 680 886 670 903 q 689 844 689 869 q 681 824 689 833 q 663 809 673 816 q 640 797 652 803 q 621 785 629 791 z "},"U":{"ha":840,"x_min":61,"x_max":786,"o":"m 786 421 q 782 381 786 404 q 774 342 778 359 q 764 319 770 330 q 755 297 758 309 q 754 276 753 287 q 755 256 755 266 q 747 212 755 232 q 729 171 738 193 q 726 160 726 165 q 724 149 727 154 q 718 142 720 143 q 714 140 716 141 q 712 136 713 139 q 711 125 711 133 l 711 122 q 702 111 704 118 q 701 96 699 103 q 673 68 687 82 q 648 37 659 54 q 616 2 635 18 q 581 -31 598 -14 l 578 -31 q 537 -36 556 -31 q 500 -53 519 -42 q 473 -49 488 -49 q 442 -53 458 -49 q 411 -57 427 -57 q 397 -55 404 -57 q 383 -53 391 -53 q 374 -55 378 -53 q 364 -57 370 -57 q 346 -52 354 -57 q 328 -42 337 -47 q 307 -32 318 -36 q 281 -31 296 -28 q 256 -11 271 -20 q 224 7 241 -2 q 192 26 208 16 q 164 50 176 37 q 156 63 163 52 q 141 85 149 73 q 127 109 134 98 q 119 122 120 119 q 113 149 114 135 q 106 176 111 163 q 94 206 100 192 q 82 235 87 220 q 74 264 77 249 q 71 297 71 279 q 73 312 71 304 q 75 328 75 320 q 71 345 75 336 q 66 361 66 353 q 75 378 66 372 q 65 402 68 389 q 61 428 61 414 q 67 455 61 445 q 79 481 74 466 q 77 495 78 488 q 77 510 77 503 q 78 545 77 528 q 79 579 79 562 q 77 609 79 594 q 75 639 75 624 q 80 663 75 652 q 85 688 85 675 q 79 704 85 699 l 97 741 q 95 753 96 747 q 94 766 94 760 q 98 787 94 775 q 105 810 101 799 q 113 831 109 822 q 115 843 116 840 q 125 869 119 857 q 134 897 130 882 q 156 907 145 899 q 179 916 168 916 q 186 913 182 916 q 195 908 191 911 q 203 902 199 905 q 210 897 207 899 q 227 877 220 889 q 240 852 235 865 q 248 825 245 839 q 250 798 250 810 q 248 767 250 783 q 243 736 245 752 q 238 702 241 720 q 236 664 236 684 q 234 647 236 656 q 232 631 232 639 q 236 610 232 620 q 240 590 240 601 q 237 571 240 581 q 231 553 235 562 q 225 534 228 543 q 222 514 222 524 q 227 474 222 494 q 232 435 232 454 q 229 408 232 421 q 227 382 227 395 q 232 332 227 357 q 240 283 237 307 q 249 240 244 259 q 261 203 254 220 q 278 168 269 185 q 302 131 288 151 q 313 117 307 125 q 325 104 319 108 q 334 102 329 102 q 343 100 339 102 q 364 90 355 94 q 382 83 373 86 q 400 79 391 81 q 424 78 410 78 q 444 79 438 78 q 451 83 449 81 q 455 89 453 85 q 464 96 457 92 q 484 102 473 100 q 504 109 494 103 q 530 129 519 117 q 550 154 541 140 q 569 180 559 167 q 590 203 578 193 q 595 218 591 205 q 604 248 599 232 q 612 276 608 263 q 616 289 616 288 q 612 306 616 298 q 608 323 608 314 q 612 342 608 334 q 620 360 615 351 q 627 377 624 368 q 631 396 631 386 q 626 418 631 408 q 621 440 621 429 q 624 452 621 447 q 627 464 627 458 q 622 475 627 471 q 616 488 616 479 q 618 510 616 499 q 621 532 621 520 q 616 558 621 545 q 608 583 612 572 q 612 600 608 592 q 616 615 616 607 q 613 637 616 626 q 607 659 610 648 q 602 681 604 669 q 603 704 600 692 q 587 737 593 719 q 576 775 581 755 q 570 814 572 795 q 568 850 568 833 q 563 864 568 859 q 558 875 558 869 q 563 890 558 884 q 567 905 567 897 q 568 919 568 912 q 567 932 567 926 q 568 944 567 938 q 572 956 569 950 q 598 971 584 965 q 628 977 612 977 q 640 976 634 977 q 653 974 646 975 q 659 963 654 968 q 669 953 663 958 q 680 943 674 948 q 689 933 685 939 q 696 913 694 924 q 701 893 697 903 q 711 877 705 884 q 720 861 718 869 q 721 847 722 854 q 720 832 720 840 l 737 741 l 746 732 q 749 716 747 729 q 753 689 751 704 q 756 662 755 675 q 758 647 758 650 q 758 640 758 644 q 755 633 757 637 q 764 620 762 628 q 767 604 766 612 q 768 586 768 595 q 770 570 768 576 q 774 557 771 563 q 778 545 778 552 q 776 528 778 536 q 774 511 774 521 q 780 467 774 490 q 786 421 786 444 z "},"V":{"ha":743,"x_min":17,"x_max":699,"o":"m 699 893 q 694 850 699 869 q 684 807 689 831 q 671 727 674 767 q 660 646 668 686 q 651 613 656 629 q 643 579 645 597 q 633 525 639 552 q 619 471 627 498 q 606 429 614 449 q 599 385 599 408 l 597 382 l 589 374 q 582 345 585 359 q 576 316 579 330 q 569 287 573 301 q 557 261 564 273 q 547 232 549 248 q 539 203 545 216 q 530 190 536 195 q 521 176 525 184 q 504 133 511 155 q 486 90 496 111 l 476 86 q 460 50 468 68 q 440 16 453 31 q 431 3 435 7 q 424 -3 428 -1 q 415 -7 420 -5 q 400 -12 410 -8 q 392 -17 398 -14 q 383 -21 385 -21 q 352 -15 366 -21 q 327 2 338 -8 q 305 23 315 12 q 285 46 295 35 q 280 61 283 56 q 279 78 278 66 q 268 100 275 85 q 253 130 260 115 q 238 159 245 146 q 227 176 231 172 q 219 222 225 199 q 195 261 212 244 l 195 268 q 191 297 195 280 q 179 332 186 314 q 163 367 172 350 q 150 396 155 384 q 143 414 148 401 q 134 445 139 427 q 123 483 129 463 q 113 520 117 503 q 104 551 108 538 q 100 570 100 565 q 91 590 98 583 q 82 606 84 597 q 77 647 79 627 q 72 687 75 667 q 61 725 68 707 q 41 762 54 744 q 44 771 43 767 q 45 778 45 774 q 40 802 45 791 q 31 826 36 814 q 21 851 26 838 q 17 880 17 864 q 24 925 17 903 q 47 964 32 947 l 53 964 q 72 964 62 962 q 89 966 81 966 q 104 964 95 966 q 118 960 113 962 l 122 951 q 139 937 134 946 q 154 920 144 927 q 162 895 161 908 q 168 869 164 882 q 177 849 172 859 q 186 829 182 840 q 191 806 191 818 q 195 781 191 793 q 203 760 198 770 q 212 741 209 751 q 214 727 214 734 q 216 714 214 720 q 222 704 219 709 q 227 696 224 700 q 229 669 230 682 q 231 642 227 655 q 237 622 233 631 q 244 602 241 612 q 250 579 248 589 q 256 560 252 570 q 263 541 259 551 q 275 521 268 532 q 281 470 275 495 q 297 422 288 446 q 305 409 300 415 q 311 396 309 404 q 316 375 314 386 q 320 353 317 363 q 326 333 322 342 q 338 315 330 323 q 341 282 338 296 q 350 254 345 267 q 361 228 355 241 q 374 199 368 215 q 393 221 389 207 q 396 252 397 236 q 413 271 404 262 q 428 292 422 280 q 431 308 431 299 q 432 323 430 316 q 438 344 435 336 q 440 366 440 352 l 440 368 q 450 378 445 372 q 456 399 454 385 q 459 430 458 414 q 463 463 461 447 q 468 489 465 479 q 474 506 471 498 q 481 522 478 514 q 487 538 485 530 q 486 557 488 547 q 510 593 503 575 q 520 629 517 610 q 523 667 523 647 q 526 708 523 686 q 530 724 528 717 q 534 741 533 732 q 537 761 536 748 q 538 787 538 774 q 540 812 539 801 q 545 829 541 824 q 541 836 543 833 q 539 843 539 838 q 542 851 539 844 q 548 866 545 858 q 553 881 551 874 q 557 888 556 887 q 550 908 553 898 q 547 929 547 919 q 551 947 547 940 q 562 960 554 954 q 573 981 568 972 q 583 996 577 990 q 599 1005 589 1002 q 625 1008 609 1008 q 638 1006 633 1008 q 650 999 644 1003 q 661 992 655 996 q 673 986 666 988 q 683 962 679 973 q 691 941 688 951 q 696 919 694 930 q 699 893 699 907 z "},"W":{"ha":1137,"x_min":33,"x_max":1111,"o":"m 642 839 q 649 813 647 824 q 653 794 652 803 q 653 774 654 785 q 653 749 653 764 q 657 716 653 732 q 663 685 661 701 q 663 662 664 673 q 663 640 663 651 q 669 588 663 611 q 694 543 675 565 q 694 536 694 540 q 693 529 693 533 q 700 502 693 515 q 710 475 707 488 q 712 447 712 465 q 714 410 713 429 q 719 375 715 391 q 730 354 722 359 q 735 315 733 339 q 743 267 738 291 q 757 221 748 242 q 781 193 766 201 q 791 223 785 209 q 801 251 796 237 q 809 280 806 265 q 811 313 812 295 q 823 331 819 321 q 828 352 827 341 q 831 374 830 363 q 835 395 832 385 q 846 428 840 414 q 857 456 852 442 q 864 485 861 469 q 867 524 867 500 q 897 601 886 558 q 907 684 907 643 q 910 709 907 696 q 919 736 914 722 q 929 763 924 750 q 937 789 934 777 q 940 814 939 802 q 945 839 940 826 q 952 860 948 849 q 960 880 956 870 q 965 906 964 893 q 972 930 967 919 q 986 949 981 939 q 1003 965 992 959 l 1007 974 q 1025 981 1017 979 q 1041 983 1034 983 q 1058 983 1049 983 q 1078 985 1067 983 q 1103 945 1095 968 q 1111 900 1111 923 q 1107 875 1111 887 q 1099 851 1103 863 q 1092 828 1095 840 q 1088 803 1088 816 q 1088 794 1088 799 q 1090 785 1088 789 q 1073 745 1078 765 q 1066 706 1068 726 q 1062 666 1063 686 q 1055 625 1060 646 q 1047 606 1053 614 q 1039 587 1041 598 q 1022 497 1031 541 q 996 410 1013 454 q 982 376 989 393 q 968 342 975 359 q 959 307 962 325 q 957 271 956 290 q 935 231 940 254 q 929 183 929 207 q 917 164 924 178 q 903 135 909 151 q 889 104 896 119 q 879 81 883 90 l 879 74 q 878 62 880 67 q 875 50 876 56 q 855 25 865 38 q 834 1 845 12 q 809 -17 823 -9 q 779 -26 795 -25 q 741 -9 755 -16 q 716 8 726 -2 q 698 32 706 18 q 681 72 690 47 l 672 77 q 656 120 662 98 q 640 161 651 142 q 632 175 637 169 q 624 189 627 182 q 616 218 617 203 q 608 248 614 233 q 593 302 597 275 q 583 358 589 330 q 572 384 573 370 q 567 412 570 399 q 563 396 566 404 q 555 380 559 388 q 545 323 551 352 q 528 267 539 294 q 520 237 522 252 q 513 207 519 222 q 504 193 509 199 q 496 179 499 186 q 478 135 484 158 q 463 90 473 112 l 454 86 q 436 45 444 60 q 418 19 429 30 q 393 0 408 8 q 354 -21 378 -9 q 324 -15 338 -21 q 299 2 311 -8 q 279 23 288 12 q 260 46 269 35 q 257 62 258 54 q 256 78 256 69 q 245 100 252 86 q 233 130 239 115 q 219 158 226 144 q 207 176 213 171 q 203 221 208 198 q 180 261 197 244 q 181 269 180 265 q 182 277 182 272 q 177 306 182 291 q 167 337 173 321 q 154 367 161 352 q 142 396 146 382 q 118 482 126 439 q 102 570 110 525 q 93 589 99 581 q 85 606 87 596 q 79 647 81 627 q 76 686 78 667 q 69 724 74 705 q 53 762 64 743 q 55 772 54 768 q 56 782 56 777 q 52 806 56 794 q 44 829 49 818 q 37 852 40 840 q 33 876 33 864 q 42 923 33 900 q 66 964 50 946 l 78 964 q 94 965 86 964 q 110 966 101 966 q 124 965 117 966 q 139 960 132 963 l 143 951 q 158 937 153 946 q 172 920 164 927 q 179 895 178 908 q 183 869 180 882 q 192 850 186 859 q 199 829 197 841 q 202 806 203 818 q 205 781 202 793 q 214 760 209 770 q 222 741 219 751 q 223 727 224 734 q 225 714 223 720 q 229 704 227 709 q 233 696 231 700 q 234 675 235 686 q 233 654 233 665 q 237 624 233 642 q 247 586 241 606 q 260 549 253 567 q 273 521 267 531 l 273 510 q 275 476 273 490 q 283 451 278 463 q 293 426 288 439 q 302 396 298 414 q 307 375 306 386 q 310 353 309 363 q 315 333 312 342 q 326 315 319 323 l 326 301 q 329 274 326 287 q 337 249 332 261 q 347 223 342 236 q 357 199 353 211 q 380 229 372 208 q 394 274 389 250 q 401 323 399 299 q 407 364 404 348 q 416 374 412 368 q 422 395 420 380 q 425 427 424 410 q 427 460 426 444 q 429 486 427 476 q 435 504 431 495 q 442 520 439 512 q 446 537 445 529 q 444 555 447 546 q 467 594 460 574 q 476 637 473 615 q 478 683 478 660 q 479 728 477 705 q 483 749 481 739 q 488 770 486 759 q 494 821 492 795 q 501 872 496 846 q 495 888 498 880 q 492 904 492 896 q 495 922 492 913 q 505 936 499 930 q 516 959 511 949 q 528 976 522 968 q 545 986 535 983 q 571 990 555 990 q 594 982 584 990 q 616 972 604 975 q 630 945 623 959 q 640 917 636 931 q 649 906 646 912 q 653 892 653 899 q 648 865 653 878 q 642 839 644 852 z "},"X":{"ha":742,"x_min":43,"x_max":711,"o":"m 711 935 q 708 910 711 924 q 699 882 704 896 q 689 854 694 867 q 681 829 684 840 l 671 825 q 667 807 667 817 q 663 789 668 798 l 653 785 q 651 773 650 779 q 648 762 651 768 q 633 724 642 746 q 614 681 625 703 q 591 639 604 659 q 564 610 578 620 q 551 574 562 595 q 527 530 541 553 q 501 483 514 507 q 484 440 488 460 q 465 421 473 432 q 451 400 457 411 q 438 377 444 389 q 425 355 432 366 q 432 340 425 346 q 443 328 439 335 q 450 312 448 320 q 456 297 452 304 q 467 286 461 290 q 478 275 473 281 q 485 261 482 269 q 492 248 488 254 q 505 232 498 239 q 518 218 511 225 q 529 203 524 211 q 536 184 534 195 q 554 172 546 178 q 572 158 563 165 q 582 141 574 152 q 598 119 589 130 q 616 97 608 107 q 631 82 625 87 q 653 66 641 73 q 675 50 665 60 q 683 40 680 46 q 689 28 685 33 q 697 18 694 22 q 702 12 700 15 q 705 3 704 8 q 705 -9 705 -1 q 703 -25 705 -20 q 695 -35 700 -31 q 685 -41 691 -39 q 671 -49 678 -44 l 667 -57 q 661 -58 663 -58 q 656 -57 659 -57 q 646 -62 650 -57 q 635 -66 641 -66 q 621 -63 627 -66 q 608 -57 614 -59 q 593 -55 601 -55 q 576 -53 585 -55 q 562 -46 572 -51 q 541 -35 551 -41 q 522 -22 530 -28 q 510 -12 513 -16 q 506 -1 507 -7 q 501 9 505 5 q 483 23 494 18 q 465 37 473 28 q 462 43 462 39 q 461 50 463 47 q 441 72 453 62 q 418 91 430 81 q 394 109 406 100 q 375 131 382 119 q 374 140 373 135 q 371 149 374 145 q 367 153 369 152 q 363 158 364 154 q 358 174 358 165 q 353 189 359 182 q 331 177 338 189 q 317 154 323 165 q 315 147 315 150 q 313 140 315 144 q 306 130 311 137 q 296 116 301 123 q 285 101 290 108 q 277 90 279 94 q 268 82 273 85 q 258 72 262 79 q 248 53 252 62 q 238 35 243 43 q 225 18 233 26 q 205 5 218 11 l 205 -3 q 199 -5 202 -6 q 192 -8 195 -5 q 180 -19 185 -13 q 169 -31 174 -26 q 156 -41 163 -37 q 140 -45 150 -45 q 114 -38 125 -45 q 89 -25 102 -31 q 77 -17 85 -18 q 62 -14 69 -16 q 48 -8 54 -12 q 43 9 43 -3 q 47 31 43 22 q 58 47 52 40 q 72 62 64 55 q 85 78 79 69 q 91 91 88 84 q 95 105 93 98 q 101 119 98 113 q 111 131 105 126 q 120 136 115 134 q 129 140 125 137 q 133 149 132 144 q 138 158 134 154 q 145 162 141 161 q 151 167 149 163 q 154 176 155 171 q 155 184 153 180 q 164 198 161 193 q 167 206 166 203 q 169 212 168 209 q 174 221 170 215 q 185 234 178 229 q 196 248 192 240 q 203 263 201 255 q 210 279 204 272 q 216 283 212 283 q 224 288 220 284 q 229 299 227 292 q 232 311 230 305 q 236 323 233 317 q 245 332 239 328 q 232 355 241 345 q 214 374 223 364 q 205 410 214 386 q 185 461 197 435 q 161 509 174 487 q 138 539 148 532 q 132 560 134 549 q 130 581 130 570 q 128 603 129 592 q 125 624 127 614 q 119 636 121 633 q 111 646 117 640 q 102 663 105 654 q 96 682 99 673 q 90 701 93 691 q 79 718 86 710 q 81 729 81 724 q 82 739 82 734 q 78 765 82 753 q 66 789 73 777 l 66 800 q 65 823 67 812 q 60 844 63 833 q 55 865 58 854 q 53 888 53 876 q 56 905 53 892 q 64 930 59 917 q 74 954 68 943 q 85 968 80 965 q 99 975 91 973 q 115 977 107 977 q 155 968 140 977 q 180 945 171 960 q 195 913 190 931 q 204 874 201 895 q 210 835 208 854 q 218 799 213 815 q 222 788 221 791 q 225 783 224 785 q 226 778 226 781 q 227 764 227 774 q 232 745 227 754 q 240 726 237 736 q 245 709 244 718 q 250 690 247 700 q 268 659 256 673 q 286 628 279 644 q 288 617 288 623 q 290 606 288 611 q 295 599 292 602 q 298 593 297 596 q 304 572 303 583 q 309 553 305 562 q 323 521 315 536 q 339 489 332 506 q 348 498 345 492 q 352 511 351 504 q 354 526 353 519 q 357 539 355 534 q 371 548 364 543 q 385 557 377 553 q 397 588 389 574 q 413 615 405 602 q 429 644 422 629 q 437 677 436 659 q 453 695 446 685 q 467 718 460 706 q 480 741 473 730 q 496 762 488 753 q 508 783 505 771 q 518 803 511 794 l 518 839 q 532 859 524 845 q 548 888 541 872 q 563 918 556 903 q 572 942 569 933 q 574 951 574 946 q 576 960 574 956 q 591 976 581 968 q 612 989 600 983 q 636 999 624 996 q 657 1003 648 1003 q 671 1002 665 1003 q 685 996 678 1000 q 691 980 687 987 q 700 966 696 973 q 708 951 705 959 q 711 935 711 943 z "},"Y":{"ha":689,"x_min":3,"x_max":653,"o":"m 653 937 q 651 924 653 937 q 645 893 648 911 q 637 852 642 874 q 630 812 633 831 q 624 780 626 793 q 621 766 621 767 q 614 755 618 760 q 607 745 609 751 q 605 729 605 737 q 603 714 605 722 q 597 697 602 708 q 587 675 593 686 q 576 654 581 664 q 567 642 570 644 q 562 620 562 631 q 558 597 562 608 q 541 565 553 580 q 522 534 530 550 q 516 509 517 523 q 509 485 515 494 q 505 480 507 481 q 502 479 503 479 q 500 476 501 478 q 500 465 500 473 q 494 455 500 459 q 486 444 488 451 q 484 427 483 436 q 482 408 486 418 q 467 384 477 395 q 450 359 458 372 q 448 351 448 355 q 446 342 448 346 q 434 326 441 333 q 424 310 426 319 q 423 277 420 297 q 425 241 425 256 q 422 215 425 228 q 419 189 419 203 q 421 168 419 178 q 422 146 422 157 q 421 126 422 136 q 415 109 420 117 q 420 89 418 102 q 423 62 422 76 q 424 34 424 47 q 424 12 424 20 q 415 -24 424 -7 q 397 -57 406 -41 q 366 -72 382 -64 q 334 -79 350 -79 q 297 -70 313 -79 q 267 -49 282 -61 q 266 -15 267 -32 q 265 18 265 1 q 268 43 265 31 q 271 68 271 56 q 269 76 271 73 q 267 82 268 79 q 264 87 265 85 q 262 96 262 90 q 265 119 262 106 q 269 142 268 131 q 275 196 273 169 q 277 250 277 222 q 274 271 277 260 q 271 292 271 282 q 274 299 271 296 q 277 307 277 302 q 268 328 277 318 q 249 348 259 337 q 229 371 238 358 q 218 400 219 383 q 202 415 208 407 q 192 431 197 422 q 183 448 187 439 q 174 467 180 456 l 164 471 q 160 482 161 476 q 157 493 159 488 q 152 502 155 498 q 142 507 149 506 q 132 544 140 527 q 110 575 124 560 q 99 623 106 598 q 79 668 92 648 q 70 679 75 674 q 61 690 64 684 q 56 711 57 701 q 52 732 56 722 l 43 736 l 43 745 q 36 764 39 753 q 31 785 34 774 q 23 805 28 795 q 11 821 19 814 q 16 836 16 829 q 9 865 16 851 q 3 893 3 878 q 12 927 3 912 q 29 960 22 943 q 49 964 39 962 q 68 966 58 966 q 104 952 87 966 q 135 919 121 939 q 158 877 148 899 q 174 839 168 855 q 178 819 177 829 q 182 799 178 808 q 190 774 184 789 q 202 744 196 760 q 212 715 208 728 q 216 694 216 701 l 218 690 l 227 686 q 227 681 228 684 q 227 676 227 678 q 234 665 227 671 q 244 656 241 660 q 260 620 255 639 q 277 583 266 600 q 284 572 280 577 q 294 561 289 566 q 306 544 300 553 q 315 525 311 534 q 326 506 320 515 q 339 489 331 497 q 361 509 349 490 q 386 556 373 528 q 412 617 399 584 q 434 681 425 650 q 450 737 444 712 q 456 772 456 762 q 467 790 463 779 q 473 812 471 800 q 478 836 476 824 q 482 857 480 847 q 489 879 484 866 q 497 906 493 892 q 505 933 502 920 q 509 954 509 946 q 506 973 509 964 q 504 991 504 982 q 507 1006 504 1001 q 518 1018 511 1012 q 520 1034 522 1025 q 522 1048 519 1043 q 527 1054 524 1052 q 532 1059 530 1055 q 539 1074 536 1068 q 549 1089 543 1080 q 568 1095 557 1095 q 600 1084 585 1095 q 626 1058 615 1074 q 643 1023 637 1042 q 650 989 650 1004 q 648 970 650 979 q 647 951 647 961 q 650 945 647 948 q 653 937 653 943 z "},"Z":{"ha":710,"x_min":24,"x_max":673,"o":"m 673 965 q 665 905 673 930 q 646 858 656 879 q 625 816 635 836 q 612 772 615 796 q 591 749 598 763 q 579 720 584 735 q 568 690 574 705 q 550 664 562 675 q 547 651 547 658 q 546 637 548 644 q 536 627 540 633 q 531 616 533 622 q 527 605 529 610 q 522 593 526 599 l 514 587 q 482 543 504 563 q 476 524 481 536 q 465 499 471 512 q 452 475 458 487 q 441 458 446 464 l 419 427 q 404 400 412 416 q 387 366 396 383 q 370 333 378 349 q 353 310 361 317 q 343 302 349 307 q 335 292 337 297 q 330 280 332 286 q 326 267 328 273 q 320 255 324 260 q 309 248 316 250 q 302 219 307 231 q 291 195 298 206 q 277 173 284 184 q 262 149 269 162 q 279 143 270 143 q 299 149 289 143 q 313 154 309 154 q 344 148 328 154 q 375 140 359 142 q 389 144 381 144 q 394 143 391 144 q 397 140 396 142 q 406 142 402 140 q 414 144 410 143 q 426 147 419 146 q 444 149 433 149 q 471 153 458 149 q 498 158 485 158 q 513 156 506 158 q 528 154 520 154 q 539 158 534 154 q 554 163 545 163 q 561 160 558 163 q 568 158 564 158 q 575 160 572 158 q 582 163 578 163 q 608 157 595 163 q 633 140 622 151 q 650 117 644 130 q 657 90 657 104 q 640 45 657 62 q 598 21 623 29 q 546 11 574 13 q 498 9 519 9 q 475 13 486 9 q 452 16 463 16 q 429 11 440 16 q 407 5 418 7 q 347 6 376 4 q 288 8 318 8 q 264 7 273 8 q 247 4 255 5 q 232 0 239 2 q 214 -3 224 -2 q 183 -4 198 -5 q 153 -3 168 -3 q 124 -5 138 -3 q 97 -8 111 -8 q 78 -4 87 -8 q 60 7 68 1 q 42 20 51 13 q 26 32 34 26 q 24 40 25 36 q 24 49 24 44 q 27 70 24 60 q 37 87 31 79 q 48 104 42 96 q 57 122 54 112 q 61 140 60 131 q 66 158 61 150 q 76 170 71 165 q 88 179 81 174 q 100 188 94 183 q 111 199 106 193 q 121 213 115 204 q 132 233 126 222 q 141 253 137 243 q 147 269 146 262 q 178 304 166 283 q 201 349 190 325 q 226 396 212 372 q 262 440 239 420 l 262 444 q 267 464 262 456 q 278 480 272 473 q 289 496 284 488 q 294 515 294 505 q 297 522 294 519 q 302 525 299 525 q 314 545 309 534 q 325 565 319 555 q 337 585 330 575 q 353 602 344 594 q 360 632 353 618 q 375 660 367 646 q 399 705 389 682 q 416 750 408 728 q 433 795 425 773 q 456 839 442 817 q 431 843 442 843 q 384 836 407 843 q 338 828 361 828 q 322 829 329 828 q 309 835 315 831 q 289 829 299 831 q 267 825 278 827 q 246 820 256 823 q 228 812 236 818 q 203 816 215 814 q 178 818 191 818 q 153 816 165 818 q 129 812 140 814 q 111 828 123 823 q 89 839 100 833 q 82 853 86 847 q 74 865 78 859 q 68 878 71 871 q 65 895 65 884 q 75 931 65 914 q 97 964 85 948 q 100 963 98 964 q 103 962 102 962 q 116 966 109 962 q 131 973 123 969 q 149 980 139 977 q 171 983 159 983 q 205 982 188 983 q 239 981 222 981 q 274 986 258 981 q 307 991 290 991 q 321 989 315 991 q 335 986 328 986 q 402 992 370 986 q 469 1000 435 999 q 505 1000 487 1000 q 541 999 523 999 q 573 1002 557 999 q 606 1006 590 1006 q 628 1004 616 1006 q 650 999 640 1003 q 667 986 661 994 q 673 965 673 978 z "},"[":{"ha":486,"x_min":69,"x_max":478,"o":"m 432 1097 q 383 1079 406 1097 q 341 1084 362 1082 q 300 1086 321 1086 q 285 1086 292 1086 q 271 1084 278 1086 q 266 1058 269 1071 q 262 1032 262 1046 q 264 1021 262 1025 q 267 1011 267 1017 q 263 996 267 1003 q 257 981 259 989 q 253 922 253 953 q 258 880 253 901 q 262 838 262 859 q 260 815 262 826 q 253 792 257 804 q 247 770 250 781 q 244 747 244 759 q 247 723 244 734 q 249 699 249 711 q 247 638 249 668 q 245 578 245 608 q 240 540 245 558 q 235 503 235 522 q 237 459 235 481 q 240 415 240 437 q 233 371 240 392 q 227 329 227 351 q 231 297 227 313 q 235 264 235 281 q 235 232 236 248 q 235 199 235 216 q 234 161 235 185 q 233 110 234 136 q 230 61 232 84 q 222 26 227 37 q 230 -29 231 -3 q 229 -86 229 -56 q 229 -103 229 -94 q 231 -121 229 -113 q 239 -123 235 -122 q 248 -123 243 -123 q 268 -121 258 -123 q 289 -119 279 -119 q 305 -122 297 -119 q 321 -125 313 -125 q 345 -118 334 -125 q 370 -111 357 -111 q 401 -116 387 -111 q 432 -125 416 -121 q 436 -137 433 -132 q 444 -149 440 -143 q 451 -159 448 -154 q 454 -170 454 -164 q 448 -192 454 -182 q 434 -209 442 -201 q 417 -224 426 -217 q 401 -241 408 -232 q 376 -248 393 -245 q 336 -252 359 -250 q 289 -253 314 -253 q 241 -254 264 -254 q 198 -253 218 -254 q 167 -253 178 -253 q 158 -253 163 -253 q 150 -250 154 -252 l 146 -241 q 140 -241 142 -240 q 135 -241 137 -241 q 123 -233 131 -241 q 106 -212 115 -224 q 91 -190 98 -201 q 83 -175 84 -179 q 82 -151 80 -163 q 83 -127 83 -139 q 81 -104 83 -116 q 78 -81 78 -92 q 81 -55 78 -68 q 83 -29 83 -43 q 76 19 83 -5 q 69 68 69 43 q 74 119 69 94 q 78 171 78 145 q 78 205 79 188 q 77 239 77 222 q 79 267 77 254 q 85 293 82 280 q 92 319 89 306 q 94 346 94 332 q 92 383 94 365 q 90 419 90 401 q 90 430 90 425 q 92 439 90 435 q 96 447 98 443 q 94 457 94 452 q 98 475 94 467 q 102 494 102 484 q 99 518 102 506 q 96 542 96 530 q 99 557 96 550 q 102 574 102 565 q 99 586 102 580 q 96 599 96 592 q 100 617 96 608 q 106 636 104 627 q 110 734 110 686 q 108 751 110 743 q 106 766 106 758 q 110 784 106 775 q 114 802 114 792 q 112 809 114 806 q 110 818 110 812 q 112 835 110 827 q 114 851 114 843 q 110 869 114 861 q 121 901 118 884 q 123 936 123 918 q 118 981 123 959 q 113 1026 113 1003 q 117 1052 113 1041 q 123 1075 121 1063 q 123 1104 125 1090 q 122 1135 122 1119 q 125 1155 122 1147 q 133 1168 129 1162 q 141 1179 137 1174 q 146 1192 144 1183 q 168 1199 157 1195 q 186 1214 180 1203 q 194 1215 191 1215 q 201 1215 197 1215 q 230 1214 216 1215 q 258 1213 243 1213 q 288 1218 275 1213 q 309 1223 301 1223 l 311 1223 q 342 1223 324 1223 q 378 1223 359 1223 q 415 1219 397 1222 q 447 1210 433 1217 q 469 1191 460 1203 q 478 1158 478 1178 q 473 1138 478 1145 q 461 1124 469 1130 q 446 1113 454 1118 q 432 1097 438 1107 z "},"^":{"ha":589,"x_min":45,"x_max":536,"o":"m 536 538 q 534 518 536 528 q 527 501 532 509 q 514 489 522 494 q 496 485 507 485 q 453 492 469 485 q 428 510 437 499 q 415 536 419 522 q 406 565 410 551 q 394 593 401 580 q 374 616 387 607 l 374 623 q 371 638 374 631 q 363 652 368 645 q 354 665 359 659 q 346 679 349 671 q 344 688 344 684 q 342 697 344 693 q 332 720 336 708 q 323 745 328 732 q 314 768 319 757 q 301 790 309 780 q 295 785 297 789 q 292 775 293 781 q 290 764 291 770 q 288 755 290 758 l 279 750 q 273 734 275 741 q 271 717 271 727 l 269 715 l 261 710 q 246 680 254 695 q 235 647 239 664 q 233 636 233 642 q 229 625 233 631 q 221 614 227 618 q 211 603 215 609 q 203 583 206 593 q 198 562 201 572 q 192 541 195 551 q 184 522 189 531 q 178 515 182 518 q 171 509 174 513 q 160 492 166 501 q 148 476 155 484 q 133 464 141 469 q 114 458 124 458 q 92 465 104 458 q 69 480 79 471 q 52 502 58 490 q 45 524 45 513 q 48 538 45 526 q 56 565 52 551 q 64 591 60 579 q 68 603 68 602 q 80 612 73 609 q 90 621 88 614 l 90 629 q 94 656 90 645 q 104 677 99 667 q 114 699 110 687 q 118 728 119 711 q 129 734 124 730 q 140 742 134 739 l 139 747 q 143 764 139 755 q 154 778 146 772 q 157 790 156 784 q 158 801 157 795 q 162 812 159 807 q 171 822 165 817 q 172 828 172 825 q 171 833 171 830 q 177 848 171 836 q 191 873 183 860 q 206 898 199 887 q 216 911 214 909 q 224 943 218 928 q 239 970 229 958 q 262 988 248 981 q 293 996 275 996 q 330 983 313 996 q 360 951 347 970 q 383 912 373 933 q 400 876 393 892 q 408 862 404 869 q 414 848 412 856 q 415 831 416 840 q 418 814 414 823 q 431 791 422 802 q 444 768 439 781 q 451 744 450 757 q 458 720 452 731 l 467 715 q 467 709 468 712 q 467 704 467 706 q 473 693 467 699 q 481 684 479 688 q 483 672 483 678 q 485 661 483 667 q 504 629 494 640 q 520 606 513 617 q 532 580 528 595 q 536 538 536 565 z "},"a":{"ha":736,"x_min":41,"x_max":673,"o":"m 673 97 q 668 80 671 87 q 663 65 665 73 q 660 50 661 58 q 660 31 659 42 q 651 21 654 27 q 647 9 648 16 q 643 -4 645 3 q 637 -16 642 -11 q 608 -12 623 -11 q 578 -12 593 -12 q 554 -10 562 -12 q 534 3 546 -7 q 518 9 526 11 q 504 9 511 8 q 494 18 498 9 q 490 53 490 26 q 490 62 490 57 q 485 71 489 66 q 452 56 467 66 q 424 34 437 45 q 397 15 410 23 q 368 8 383 7 q 354 -7 361 1 q 338 -20 347 -14 q 322 -24 333 -22 q 298 -29 311 -27 q 275 -33 286 -31 q 258 -35 263 -35 q 225 -25 244 -35 q 188 -6 206 -16 q 153 12 169 4 q 126 17 136 20 q 115 32 119 23 q 104 49 112 41 q 85 61 96 56 q 68 75 75 66 q 61 90 63 82 q 56 106 58 98 q 51 123 54 115 q 41 138 47 131 q 45 166 44 149 q 47 200 45 183 q 53 233 49 218 q 68 254 58 248 l 68 260 q 75 294 68 281 q 92 318 81 307 q 114 338 102 328 q 136 361 126 347 q 149 365 142 366 q 163 367 156 363 l 167 375 q 173 376 170 376 q 178 375 176 375 q 184 378 181 375 q 191 384 188 380 q 198 389 195 387 q 207 392 202 392 q 212 391 209 392 q 216 389 214 390 q 228 402 221 396 q 241 413 234 408 q 254 424 248 418 q 265 437 260 430 q 273 436 268 436 q 283 439 279 436 q 290 446 286 442 q 298 453 294 450 q 313 456 303 456 q 321 458 315 456 q 334 465 327 461 q 347 472 340 469 q 355 478 353 476 l 363 479 q 374 477 369 479 q 386 473 380 475 q 404 490 395 482 q 418 510 412 498 q 438 520 427 513 q 460 537 450 528 q 478 558 471 547 q 485 579 485 569 q 479 600 485 590 q 466 620 473 610 q 451 640 458 630 q 440 661 444 650 l 437 661 q 423 669 429 661 q 408 679 416 677 q 394 682 401 682 q 379 682 387 682 q 365 683 372 682 q 351 689 357 684 q 330 679 338 686 q 313 665 321 672 q 294 652 305 657 q 265 648 283 647 q 243 596 253 623 q 216 546 233 569 q 209 516 212 531 q 195 492 205 502 q 167 488 181 488 q 134 493 152 488 q 100 509 116 499 q 74 533 85 519 q 64 564 64 547 q 71 598 64 581 q 78 635 78 616 q 93 646 87 638 q 103 662 98 653 q 112 677 107 670 q 126 689 117 685 l 126 694 q 130 704 126 701 q 131 715 133 707 q 180 765 162 734 q 205 774 192 770 q 229 783 218 777 q 249 795 239 787 q 269 806 258 802 q 303 807 286 809 q 335 804 319 804 q 358 810 349 804 q 382 815 368 815 q 409 813 395 815 q 436 810 422 812 q 447 805 442 808 q 458 800 452 802 q 489 796 479 796 q 505 793 498 795 q 519 782 512 790 q 543 755 527 774 l 546 755 q 564 749 555 755 q 582 733 574 743 q 597 714 591 724 q 606 697 603 705 q 610 675 610 687 q 615 653 611 663 q 625 635 619 644 q 637 619 631 627 q 647 602 643 611 q 652 583 652 593 q 649 557 652 570 q 646 532 646 545 q 651 510 646 520 q 656 488 656 499 q 651 459 656 473 q 646 431 646 446 q 651 391 646 411 q 664 353 656 372 q 660 326 660 340 q 664 288 660 307 q 668 250 668 269 q 666 233 668 241 q 661 216 664 224 q 656 200 659 208 q 654 182 654 192 q 660 139 654 160 q 673 97 665 118 m 513 318 q 511 342 513 331 q 509 367 509 354 q 504 388 509 381 q 485 393 499 395 l 476 393 q 459 374 467 385 q 440 357 451 364 q 419 348 431 351 q 400 335 408 345 l 397 335 q 381 332 388 335 q 368 326 374 329 q 353 321 361 323 q 334 321 345 319 q 313 286 323 304 q 283 258 302 268 l 272 260 q 247 257 260 260 q 225 247 235 254 q 209 230 215 240 q 203 205 203 220 q 208 178 203 187 q 222 163 214 169 q 239 153 230 157 q 257 138 249 148 q 273 137 264 136 q 289 138 281 138 q 300 137 294 138 q 310 134 306 137 q 323 145 318 141 q 342 147 329 149 q 380 178 357 167 q 427 196 404 189 q 433 209 428 203 q 444 219 438 214 q 456 227 450 223 q 467 236 463 231 q 478 252 471 240 q 494 276 486 263 q 507 301 502 290 q 513 318 513 313 z "},"b":{"ha":781,"x_min":65,"x_max":728,"o":"m 693 196 q 690 188 693 191 q 684 183 687 185 q 682 167 682 175 q 679 151 682 159 q 670 136 675 144 q 660 121 665 129 q 651 106 655 114 q 647 89 648 98 q 631 79 637 85 q 619 64 625 72 q 607 49 613 57 q 595 35 602 41 q 562 13 582 24 q 526 -5 541 2 q 497 -14 512 -12 q 466 -19 481 -17 q 435 -23 450 -21 q 406 -32 420 -26 q 380 -20 393 -24 q 352 -13 366 -16 q 325 -6 338 -9 q 298 4 311 -3 q 276 21 285 11 q 259 40 267 31 q 245 59 252 50 q 231 71 239 67 q 229 62 229 66 q 228 53 228 57 q 229 35 228 43 q 231 17 231 26 q 223 7 227 16 q 211 -14 218 -3 q 193 -35 204 -26 q 167 -45 182 -45 q 129 -36 147 -45 q 92 -18 111 -26 q 75 26 80 3 q 69 74 69 50 q 72 107 69 90 q 74 139 74 123 q 72 159 74 149 q 65 178 71 170 q 72 203 65 191 q 79 228 79 214 q 77 239 79 234 q 74 252 74 245 q 81 274 74 264 q 87 297 87 285 q 85 317 87 308 q 83 335 83 326 q 90 379 83 358 q 97 422 97 401 q 94 440 97 431 q 88 458 92 449 q 82 475 85 467 q 79 494 79 484 q 85 533 79 514 q 92 572 92 553 q 90 590 92 582 q 87 608 87 599 q 90 624 87 616 q 92 640 92 632 q 87 667 92 654 q 83 693 83 680 q 88 734 83 714 q 93 774 93 754 q 88 815 93 795 q 83 857 83 836 q 87 878 83 867 q 92 900 92 888 q 88 918 92 909 q 83 935 85 926 q 78 988 79 960 q 77 1042 77 1017 q 94 1094 77 1078 q 146 1109 111 1109 q 186 1103 165 1109 q 222 1083 208 1097 q 228 1045 229 1065 q 231 1007 227 1026 q 238 980 233 994 q 244 953 244 966 q 239 928 244 940 q 235 903 235 916 q 239 860 235 881 q 244 818 244 839 q 239 787 244 802 q 235 757 235 772 q 235 745 235 749 q 237 738 236 741 q 238 730 237 734 q 239 718 239 726 q 240 708 239 711 q 259 717 250 710 q 275 733 267 724 q 290 749 282 741 q 307 761 298 757 q 325 767 314 764 q 349 773 336 770 q 372 779 361 777 q 392 783 384 781 q 422 797 408 789 q 454 806 437 806 q 468 802 456 806 q 497 794 480 799 q 535 783 515 789 q 573 772 555 777 q 604 762 591 766 q 621 757 617 758 q 642 713 627 732 q 679 681 657 694 q 677 672 677 677 q 683 656 677 666 q 694 634 688 646 q 707 610 701 622 q 715 587 713 597 q 716 562 718 575 q 714 538 714 549 q 719 511 714 523 q 724 485 724 498 q 722 462 724 473 q 720 439 720 450 q 721 421 720 432 q 724 398 722 410 q 726 374 725 386 q 728 355 728 363 l 728 353 q 722 331 728 341 q 715 309 717 320 q 714 290 714 299 q 713 270 713 280 q 711 251 712 260 q 705 232 709 241 q 700 222 702 224 q 696 217 698 219 q 694 210 694 214 q 693 196 693 206 m 582 476 q 582 487 582 481 q 581 497 582 492 q 574 511 578 505 q 567 524 570 517 q 563 542 564 533 q 558 559 562 551 q 551 573 555 567 q 545 587 547 580 q 541 606 543 595 q 536 623 540 617 q 525 632 534 626 q 507 644 517 638 q 487 654 496 650 q 473 659 477 659 q 429 653 448 659 q 395 641 410 648 q 369 629 380 634 q 351 623 359 623 q 336 602 348 618 q 310 568 323 586 q 284 534 296 549 q 271 515 273 518 q 266 497 267 507 q 262 479 266 488 q 252 462 257 468 q 243 450 247 456 q 236 435 239 444 q 233 412 233 427 q 234 393 233 406 q 235 362 234 380 q 238 326 236 345 q 245 287 241 306 q 255 251 249 268 q 271 224 262 235 q 280 218 275 218 q 289 214 286 217 l 289 205 q 309 185 301 193 q 325 173 317 178 q 341 163 332 168 q 366 151 351 159 q 376 145 372 148 q 382 140 379 142 q 391 136 386 138 q 406 135 395 135 q 440 142 420 135 q 478 162 459 150 q 512 188 496 174 q 536 214 528 201 q 545 238 543 225 q 554 264 548 252 l 562 268 q 563 275 564 271 q 562 283 562 279 l 562 286 q 576 323 572 298 q 581 377 580 349 q 582 434 583 406 q 582 476 582 461 z "},"c":{"ha":714,"x_min":46,"x_max":664,"o":"m 663 526 q 660 496 663 511 q 657 465 657 481 q 638 448 644 460 q 621 429 631 437 l 608 429 q 565 431 587 429 q 522 439 543 433 q 507 466 511 448 q 500 508 502 485 q 497 557 498 532 q 491 606 496 583 q 478 647 487 629 q 450 672 469 665 q 427 668 439 668 q 393 673 410 668 q 359 677 376 677 q 319 659 340 677 q 278 613 297 640 q 244 560 258 587 q 227 515 230 532 q 225 498 224 507 q 227 482 227 490 q 224 466 227 474 q 219 451 222 458 q 215 437 217 444 q 212 422 212 430 q 215 397 212 410 q 218 371 218 385 q 215 349 218 359 q 212 325 212 338 q 216 301 212 313 q 222 278 220 290 q 226 254 224 267 q 232 231 228 242 q 243 211 236 220 q 262 197 250 202 l 261 193 q 277 171 261 183 q 314 148 293 159 q 356 131 336 138 q 387 123 377 123 q 409 126 399 123 q 428 135 418 128 l 432 143 l 446 143 q 456 157 452 149 q 464 175 459 165 q 476 194 469 184 q 500 215 484 204 q 506 234 501 225 q 515 251 510 243 q 524 268 519 260 q 530 286 528 277 q 559 295 545 290 q 585 309 573 300 q 616 298 600 304 q 647 286 631 292 q 664 228 664 261 q 662 203 664 215 q 657 179 661 191 q 646 158 653 168 q 633 139 639 149 q 623 106 627 122 q 607 77 618 90 q 583 53 596 63 q 562 26 569 42 q 540 20 550 25 q 520 10 530 16 q 500 -1 510 4 q 478 -9 490 -7 q 459 -12 469 -12 q 441 -14 450 -12 q 418 -23 428 -17 q 393 -29 408 -29 q 381 -27 385 -29 q 373 -24 376 -26 q 367 -20 370 -22 q 361 -18 365 -18 q 341 -22 351 -18 q 321 -28 332 -26 q 286 -13 302 -20 q 249 -4 271 -5 q 226 12 240 7 q 200 18 212 16 q 192 27 197 23 q 181 35 186 31 q 172 43 176 39 q 164 54 167 48 q 160 65 161 60 q 154 77 159 71 q 142 90 149 85 q 131 100 136 95 q 122 114 125 106 q 119 135 119 121 q 105 155 114 140 q 89 186 97 170 q 74 218 81 203 q 65 241 67 234 q 62 261 62 251 q 61 282 63 271 q 56 296 58 291 q 51 306 53 301 q 47 317 49 311 q 46 334 46 323 q 50 369 46 351 q 58 405 54 387 q 67 438 63 422 q 71 468 71 454 q 68 484 71 477 q 61 497 65 491 q 68 516 66 507 q 70 535 69 526 q 70 555 70 545 q 74 574 71 564 q 89 596 79 586 q 106 618 99 606 q 111 640 111 629 q 114 663 110 652 q 124 681 118 673 q 137 697 131 689 q 149 715 144 706 q 154 734 153 724 q 184 746 170 739 q 210 763 197 753 q 234 782 222 772 q 258 802 245 792 l 264 802 q 279 804 271 802 q 296 810 288 807 q 312 817 304 814 q 328 819 320 819 q 353 816 340 819 q 379 811 366 812 q 411 810 395 809 q 443 811 427 811 q 472 806 459 811 q 497 796 486 802 q 521 786 509 791 q 545 783 532 782 q 557 769 549 775 q 572 757 564 763 q 589 745 581 751 q 603 729 597 738 q 612 706 609 720 q 621 681 614 692 q 638 653 630 673 q 651 608 646 632 q 660 561 656 583 q 663 526 663 538 z "},"d":{"ha":749,"x_min":50,"x_max":676,"o":"m 676 1011 q 666 966 673 988 q 659 921 659 945 q 662 893 659 905 q 672 868 666 882 q 665 832 672 849 q 659 796 659 814 q 665 766 659 781 q 672 736 672 751 q 670 680 672 707 q 668 624 668 652 q 670 609 668 615 q 672 595 672 602 q 668 579 672 586 q 664 562 664 572 q 668 538 664 550 q 672 514 672 526 q 665 470 672 491 q 659 425 659 448 q 661 406 659 415 q 666 387 663 396 q 671 367 669 377 q 673 347 673 357 q 669 325 673 334 q 664 306 664 316 q 665 284 664 295 q 668 262 667 274 q 669 192 669 228 q 668 121 668 157 q 665 60 668 90 q 668 -1 663 29 q 651 -27 659 -14 q 636 -56 644 -41 l 631 -54 q 615 -59 622 -54 q 600 -64 608 -64 q 586 -60 592 -64 q 573 -53 579 -57 q 560 -44 566 -48 q 547 -37 554 -39 q 540 -5 542 -21 q 538 28 538 12 q 536 60 537 44 q 533 93 536 77 l 530 93 q 523 90 525 93 q 520 82 522 87 q 519 74 519 78 q 515 66 518 69 q 489 33 502 50 q 461 -1 476 16 q 446 -8 458 -5 q 427 -16 434 -10 q 401 -30 413 -25 q 379 -38 390 -35 q 355 -42 368 -41 q 325 -43 342 -43 q 306 -42 313 -43 q 293 -39 298 -41 q 281 -34 288 -37 q 265 -28 275 -31 q 244 -21 255 -24 q 224 -14 233 -18 q 206 -2 214 -9 q 193 17 198 5 l 187 17 q 175 20 182 17 q 160 29 168 24 q 145 39 152 34 q 135 49 138 45 q 124 66 128 56 q 117 87 121 77 q 107 106 113 97 q 90 123 101 116 q 84 149 87 136 q 77 174 81 161 q 67 194 72 184 q 58 214 62 203 q 52 261 54 235 q 50 310 50 288 q 57 339 50 326 q 64 359 64 352 q 63 371 64 362 q 61 390 62 380 q 59 409 60 400 q 58 421 58 418 q 62 430 58 425 q 68 439 66 435 q 72 481 73 460 q 77 524 72 503 q 85 557 80 541 q 94 591 91 574 q 95 619 96 604 q 98 646 94 634 q 110 663 101 652 q 129 684 118 673 q 150 703 139 695 q 167 713 160 711 q 185 741 171 727 q 218 767 199 755 q 255 786 236 779 q 289 793 275 793 q 310 791 299 793 q 332 789 320 789 q 361 794 347 789 q 390 799 376 799 q 411 795 401 799 q 429 787 420 791 q 446 779 437 783 q 467 775 455 775 q 472 770 471 775 q 475 761 473 764 q 492 753 479 757 q 511 743 504 750 q 523 756 518 751 q 529 767 527 762 q 532 780 532 773 q 533 796 533 786 q 529 830 533 814 q 525 864 525 847 q 527 880 525 872 q 533 895 529 888 q 530 908 532 897 q 526 937 528 920 q 522 971 524 953 q 518 1007 520 990 q 515 1036 516 1023 q 514 1051 514 1048 q 515 1063 514 1059 q 517 1069 515 1066 q 520 1074 518 1072 q 525 1083 522 1077 q 527 1092 526 1088 q 529 1100 527 1096 q 540 1112 532 1106 q 557 1123 548 1118 q 576 1131 566 1128 q 593 1133 585 1133 q 602 1133 597 1133 q 610 1132 606 1133 l 618 1124 q 624 1123 621 1122 q 629 1124 627 1124 q 636 1120 633 1124 q 642 1111 639 1116 q 649 1101 645 1106 q 659 1096 652 1097 q 658 1091 659 1094 q 657 1086 657 1088 q 660 1072 657 1078 q 667 1058 663 1065 q 673 1046 670 1052 q 676 1034 676 1040 q 674 1026 676 1028 q 672 1019 672 1023 q 673 1015 672 1017 q 676 1011 675 1013 m 529 519 q 514 535 520 526 q 503 552 508 543 q 492 571 497 562 q 479 587 486 580 q 462 600 471 597 q 444 610 454 604 q 425 624 430 618 q 414 634 419 630 q 399 640 409 638 q 368 642 390 642 q 330 636 349 642 q 292 628 311 630 q 268 595 279 612 q 241 564 256 578 l 243 558 q 238 530 243 544 q 228 502 234 517 q 218 470 222 487 q 214 433 214 453 q 214 406 214 423 q 215 371 214 389 q 216 336 216 353 q 216 309 216 319 q 215 281 216 295 q 211 254 214 268 q 221 235 218 246 q 227 213 225 224 q 229 191 229 202 q 229 170 229 180 q 246 151 238 161 q 262 132 254 141 q 281 116 271 123 q 304 110 291 110 q 319 112 311 110 q 334 115 326 113 q 349 117 341 117 q 364 115 356 118 q 394 141 380 127 q 427 164 408 155 q 445 197 434 182 q 471 222 456 212 q 477 242 473 233 q 485 261 481 252 q 494 279 490 270 q 501 298 498 288 q 506 322 503 302 q 514 366 510 342 q 521 409 518 389 q 525 431 524 428 q 524 458 526 444 q 522 488 522 473 q 524 504 522 496 q 529 519 525 512 z "},"e":{"ha":703,"x_min":50,"x_max":690,"o":"m 663 179 l 663 174 q 657 142 663 155 q 640 121 650 130 q 617 105 630 113 q 591 89 604 98 l 591 83 q 588 61 591 72 q 582 40 584 51 l 579 40 q 561 37 569 41 q 546 32 553 32 q 533 36 540 32 q 524 31 526 35 q 520 24 522 28 q 514 17 518 20 q 500 14 510 14 q 492 10 496 14 q 483 1 488 6 q 473 -8 477 -3 q 465 -14 468 -12 q 456 -16 462 -16 q 445 -17 451 -16 q 432 -17 438 -17 q 421 -18 426 -18 q 411 -24 416 -20 q 403 -28 407 -28 q 393 -25 397 -28 q 383 -22 389 -22 q 372 -25 378 -22 q 357 -31 365 -28 q 339 -37 349 -35 q 319 -40 330 -40 q 296 -36 306 -40 q 288 -32 295 -36 q 270 -20 281 -27 q 248 -6 260 -14 q 224 9 235 2 q 206 21 214 16 q 197 26 199 26 l 193 36 q 177 46 184 40 q 165 62 170 52 q 154 73 159 66 q 144 86 149 79 q 134 99 140 93 q 121 107 129 104 q 109 134 115 121 q 98 161 104 148 l 89 170 q 89 177 87 174 q 90 184 90 181 q 86 196 90 187 q 76 215 81 205 q 67 236 71 226 q 62 252 62 246 q 64 271 62 262 q 66 290 66 281 q 63 306 66 298 q 58 322 60 314 q 57 345 56 333 q 58 367 58 356 q 56 383 58 375 q 53 400 53 391 q 58 415 53 408 q 62 429 62 422 q 56 472 62 451 q 50 515 50 494 q 59 552 50 532 q 81 582 68 572 l 81 614 q 90 620 87 615 q 95 631 93 625 q 99 643 97 637 q 103 654 100 650 q 110 665 106 661 q 116 674 113 669 q 120 684 119 678 q 121 699 121 690 q 142 710 132 703 q 160 726 151 718 q 179 741 170 734 q 201 753 189 749 q 231 775 210 764 q 272 796 251 787 q 309 813 293 806 q 326 823 326 820 q 366 821 345 821 q 406 821 386 821 q 446 817 427 820 q 484 806 466 814 q 489 798 486 802 q 494 792 492 795 q 499 785 497 789 q 501 775 501 781 q 544 744 526 766 q 575 694 563 722 q 594 637 588 667 q 600 583 600 608 q 597 571 600 576 q 591 559 594 566 q 589 546 588 553 q 586 533 589 538 q 576 515 583 523 q 564 497 569 507 q 538 441 551 469 q 505 389 524 414 q 488 370 498 379 q 475 349 477 361 q 456 343 463 349 q 444 331 449 337 q 431 319 438 324 q 412 314 425 313 q 401 297 407 304 q 389 282 395 290 q 377 279 382 282 q 368 272 373 276 q 358 266 363 269 q 345 264 353 263 q 330 249 338 255 q 314 236 322 242 q 298 223 305 230 q 286 205 290 216 q 269 202 279 203 q 256 192 259 200 q 261 168 256 179 q 282 157 267 157 q 296 139 288 146 q 314 125 305 132 q 348 125 331 126 q 382 123 365 123 q 414 127 402 123 q 432 135 425 130 q 445 143 439 139 q 457 147 450 146 q 477 180 467 164 q 505 201 487 195 q 517 222 511 212 q 530 244 524 233 q 538 267 536 255 q 538 290 541 278 q 552 311 544 298 q 569 335 559 323 q 589 355 578 347 q 611 363 600 363 q 630 356 622 363 q 644 340 638 349 q 667 331 658 338 q 681 312 676 323 q 688 289 686 302 q 690 265 690 277 q 684 219 690 244 q 663 179 677 194 m 439 640 q 434 641 435 640 q 433 645 433 643 q 431 650 432 648 q 429 654 431 652 q 415 664 426 659 q 392 674 405 669 q 367 682 380 678 q 349 685 355 685 q 327 680 335 685 q 311 670 318 675 q 298 660 304 665 q 282 654 292 655 q 279 643 282 648 q 272 633 276 637 q 263 623 267 628 q 256 614 258 618 q 248 592 250 604 q 241 568 246 580 q 230 544 236 555 q 220 519 224 533 l 210 510 q 206 483 206 497 q 205 456 205 469 q 210 422 205 438 q 215 389 214 406 q 214 375 215 382 q 212 361 212 368 q 213 355 212 357 q 215 349 213 352 l 218 349 q 231 351 226 348 q 241 357 237 353 q 250 367 246 361 q 260 376 254 372 q 269 380 264 380 q 278 385 273 381 q 282 392 281 388 q 286 399 283 395 q 301 408 292 404 q 318 416 311 412 q 332 427 326 420 q 343 439 338 433 q 356 450 349 445 q 372 457 363 455 q 382 472 376 462 q 395 495 389 483 q 406 519 401 507 q 412 538 411 531 l 415 538 q 426 542 422 538 q 435 550 429 547 q 439 565 438 557 q 440 581 440 573 q 438 610 440 596 q 439 640 435 625 z "},"f":{"ha":621,"x_min":0,"x_max":664,"o":"m 608 872 q 573 887 591 872 q 536 919 556 901 q 493 952 516 937 q 439 966 469 966 q 418 961 424 966 q 407 945 413 956 q 393 929 403 935 q 380 913 384 922 q 378 897 378 905 q 376 880 378 889 q 367 851 372 865 q 358 823 362 838 q 350 794 353 809 q 347 764 347 780 q 348 748 347 755 q 350 733 349 741 q 378 725 362 725 q 401 728 390 725 q 424 736 412 732 q 447 744 435 741 q 471 747 458 747 q 499 740 486 747 q 529 733 513 733 q 553 738 542 733 q 578 742 565 742 q 600 733 589 742 q 607 725 603 732 q 614 708 611 718 q 620 690 618 699 q 623 677 623 682 q 611 638 623 656 q 586 604 600 619 l 583 604 q 555 601 569 604 q 528 592 541 597 q 500 584 514 588 q 472 581 487 581 q 447 583 460 581 q 422 586 435 586 q 390 583 407 586 q 358 586 374 581 q 354 559 354 574 q 358 516 354 538 q 363 472 363 494 q 360 421 363 446 q 357 370 357 395 q 359 338 357 354 q 367 309 361 323 q 361 286 363 297 q 358 262 358 275 q 365 236 358 249 q 372 208 372 223 q 370 190 372 199 q 367 174 367 182 q 374 137 367 155 q 380 100 380 119 q 376 79 380 90 q 382 63 380 72 q 390 49 385 55 q 383 13 382 30 q 385 -24 385 -5 q 373 -36 379 -29 q 359 -50 367 -43 q 344 -61 352 -56 q 328 -65 336 -65 q 302 -61 317 -65 q 271 -50 286 -57 q 245 -32 256 -42 q 235 -9 235 -22 q 236 6 235 -2 q 237 21 237 14 q 234 50 237 35 q 228 79 230 64 q 227 111 227 95 q 224 142 227 126 q 219 158 222 150 q 215 174 215 166 q 217 183 215 179 q 220 192 220 186 q 219 204 220 198 q 218 216 218 210 q 220 234 218 225 q 228 250 222 243 q 218 310 217 279 q 218 371 218 340 q 216 402 218 387 q 212 430 214 416 q 208 455 210 443 q 205 481 205 468 q 208 519 205 500 q 211 558 210 538 q 176 568 196 568 q 137 564 157 568 q 98 559 118 559 q 78 562 88 559 q 58 568 68 564 l 54 576 q 48 577 51 578 q 43 576 46 576 q 31 584 37 576 q 19 602 24 591 q 8 621 13 612 q 0 635 3 631 q 17 677 4 660 q 49 704 31 694 q 91 718 68 714 q 136 722 113 722 q 158 722 146 722 q 179 720 169 722 q 190 731 186 723 q 196 748 194 739 q 198 767 198 758 q 197 783 198 777 q 217 848 213 812 q 224 917 222 884 q 237 938 233 926 q 245 962 241 950 q 260 991 252 981 q 275 1010 268 1002 q 289 1023 282 1017 q 300 1038 295 1029 q 303 1048 302 1042 q 306 1059 304 1054 q 308 1069 307 1065 q 314 1078 310 1074 q 333 1088 322 1086 q 354 1096 345 1090 q 368 1105 363 1101 q 377 1114 373 1110 q 388 1122 382 1118 q 407 1128 395 1125 q 433 1132 420 1130 q 458 1133 446 1133 q 481 1131 471 1133 q 503 1124 492 1128 q 524 1116 513 1120 q 546 1109 534 1112 q 567 1106 556 1108 q 588 1102 578 1105 q 607 1093 598 1099 q 623 1078 616 1088 q 627 1067 627 1074 q 632 1055 628 1061 q 656 1015 648 1034 q 664 966 664 996 q 662 936 664 952 q 655 905 661 919 q 638 881 649 890 q 608 872 627 872 z "}}}
